<mxfile host="app.diagrams.net" modified="2022-11-22T22:27:41.194Z" agent="5.0 (Windows NT 10.0; Win64; x64) AppleWebKit/537.36 (KHTML, like Gecko) Chrome/107.0.0.0 Safari/537.36" etag="h1OkUwXcOApaJlKEbRpN" version="20.6.0" type="github">
  <diagram id="-18GJYBvnyeC0Ov5CeeE" name="Pagina-1">
    <mxGraphModel dx="813" dy="441" grid="1" gridSize="10" guides="1" tooltips="1" connect="1" arrows="1" fold="1" page="1" pageScale="1" pageWidth="827" pageHeight="1169" math="0" shadow="0">
      <root>
        <mxCell id="0" />
        <mxCell id="1" parent="0" />
        <mxCell id="1ELBB0HRcsOuJXmiOw2A-1" value="" style="rounded=0;whiteSpace=wrap;html=1;" parent="1" vertex="1">
          <mxGeometry x="40" y="40" width="80" height="90" as="geometry" />
        </mxCell>
        <mxCell id="eZ2o3girgJDlzD4JXMhm-1" value="" style="shape=image;verticalLabelPosition=bottom;labelBackgroundColor=default;verticalAlign=top;aspect=fixed;imageAspect=0;image=data:image/png,iVBORw0KGgoAAAANSUhEUgAAAOoAAADMCAYAAAB9YT9lAAAgAElEQVR4nOy9V5Nl6XWm92zvzj7+pDnpM8t1VXVXVXd1V3cDDUeQIIkgQAXoYkYkZyJGGl3qJ+hf6EoRCuliGMGRNDFDigbEgCAsu9GmutBdPiu9Od5sb76ti1PTCilmaIeoLiCfm7xJs/M7+93ft9Z619pSuVwuOOOMMz7VyM/6As4444y/nTOhnnHGc8CZUM844zngTKhnnPEccCbUM854DjgT6hlnPAecCfWMM54DzoR6xhnPAWdCPeOM54AzoZ5xxnPAmVDPOOM54EyoZ5zxHHAm1DPOeA44E+oZZzwHnAn1jDOeA86EesYZzwHqs76AM55PJEmm0WiysLDIysoa7fYSaZoihMA0LXRdI88FWZZ+8lVVNSRZIk1Ssiyj1+vw9js/ZDIePet/51PPmVDP+DtjmCat1jxraxu88MJVNre2sO0Slmmj6Rqe51EU0Gw2qddr6LrBdDolDEMUWUZRFXIhSJOUKIwII5/5hQW++c0/oXN68qz/vU810tkolp9vFhbanDv3AkgSQRhQCIFlWaiqQhzH5HmOqiisb57jpZeu02zOoaoaAEma0ul0CIKAKIoIgoAszajVaywtL7O5uYllmgRBgKapZFmO53kIkQEQhiFxHPDw4X3+7z/6dzx6+ABJkp7lcnxqOdtRf46Zn1vk937vf8A0HeI0w3VLVKtVSiWbNE1QFBlN01BVDVnWiKKEbreDN+1ydHyEN5kSBAFIBa3WHHlecNodcNobEaQFmlHi0vktDNVEAsIoIosz/GBKUQgsyyQtFG68dJPN9S3+4N/8b7z77ttkWfasl+ZTh2IYxv/0rC/ijJ8+JafMb37j96nWm4hcQpJU2kvLzM3NUxSQZRmj0ZjhcMRgMOHu3Yf8+J132d7eYTr1SZOUOEqplCtISMiySqVSIwhCxlOfer2F5wdkcUKtUmY4GJGlOUIIojgky1IMXUeIgizLWF1Z5ebN1+l0Tjk83EMI8ayX6FPF2Y76c0ilUuOLX/wVmvMLOLbLwlIbWZbJC8GT3R2Oj49JkphOp0O324VCRmQ5kixTdl0kwDBMNE1H13WKIieOI3q9LlCwtbWJLMvs7+1iqzK1ssv9+w+olMvMzbewLYc0i4jjGMO0oCgYDIbMzc3zu7/7r3j0+AGHB3vPepk+VZwJ9eeM9Y0tfvd3/3s2Ny9g2y6e5+F5U3qDAdvb2zx4cJ8kSXFsl3LZxbEriCzHKOtYtoWmqiRJgqqqiKJgNB7T63RwyyWcsku92aBSq5IkKbqi4nlTfD9AlmTuP3hAGIUsLbXJshxJKnBsmzTLEEKQZTlzc/O8+NIrdDonpEnyrJfrU8OZUH9OkCSZldV1fvO3/gUXL72EEAV7ewc82dllNBxweHKIN/VQVI1arUnZraAoCrKsEIUxsiyTJhkSMpVKjdFoRCYESZRglUqouomuWzhOiSSMyPMc17HodnuE4W1sy0ZRdYpilkTKRYEiz+LWPM/J8xxdD2jU63zus5/nr3/4HYbJ4Fkv26eGM6H+HCDJMuvrW3zta7+N6zZ59/07jMcjDg+PiIMIwzQwTRshZhlXw7Cw7dInGdgsyZAlCVVVcF2XMIzp9wdopo6ENCvPGBpxktDrdNF1DUVRkCjQNY3x01jXsWwKAYqsIkmCXOSkSYKiKCiyTJqmJEnCwkKblZUNRqMhRXFWlICzZNLPPLKisLq6wa99/bfY3LzAgwePOT7t4ZQcJCDLC3IhSJ6aEAoBEjKFKMjyHFlRcBwbSZLI0gzLtul0uoRBiFNysG0bwzRBkhC5IEkThMiRZYk8y1BlFVmScUtlLNMiTVMqlTJOycE0DHKRI0RBnmeIXFAuV57+vMLt2++S52cZYDizEP5MUxQFzeYcX/ryV9ncvMTh0emsRJIm5JlAVhQURcGybLI0h0JGlhVs28GyHeI4Iwpj8kwgMkGSxAwGfQohqFQrmKZJnguSJMP3Q/wgIMsykizF8zzSNEWSZBRZ5fSkS783RFU0JlOfyWSKJIFt25iWiawoqKpCQYFhmly+/CKNevNZL+GnhjOh/oyi6wabWxe5/vLrNJqLdLp94iRF03SSJKbf7RKHEVmaMR6PsSwLy7KwbRtFUUkzgWFamKZNnguEKLBsizRNQJYplcsYhkGapui6jm3ZgEQUxeRZPks2CcjzglKpgq6bAKxvbODYNoEfEoYzQ8V/MllYto03naLICq1mk9duvvFsF/FTxNnR92cQRVFYW9vi1q3PsdheYzzx6XX7JEnGZOIh8lmNUtN08jwnjmNUVUWRFbI8J0kyFFVDkRV03UCWJLI8p+Q6FEABVOs1gsAny3Mc2wGgeGoPLIrZbm2aJo7tEscJuqbRbDawbQvfn5KmCaZpIkSOKASaqqIqs78vhECRJVzL5v0P3iEIw2e3mJ8SzoT6M0ZRFJScMq+88ibnL1yGQuK002Uy9cjTnChOkZBRFAXbmQksDEOKokCWZSzLwjBMJFmmKApUTf3kiFxQgCRjOzaVWoUgCJFlhUIIojAk9ANkQNc1VEXBcRxA4vj4iOFgiCRBf9BHiJxGo46qKeR5iuPYmObT46+iMBqN8KcTahWXqqtzdLDL1I+e6bo+a86Ovj9jaJrGqzc/S6M+/0nmNY0jJCQyAU6pjKxqJFlOkqUgSRSAyAVxHPOfkqxCCCRZQlFVHNfFKbv4UUyBjO04xHHy1IRfkKYpeZqRJSlFLnAsm0atThLH9PtdZAUUVWYwGCDyHNu20A2DLMuIoghJlmcGClWbxbhxTK83IIwSvvDZt/iXv/kVlpvWM13XZ83ZjvoppyjAsixqtQaqqlIUkOf5f/H7b1y/xQuXXkLkgv6wz+nJMZPJGFU1MAwX2y5hmrNYU1YkkiQlz3OyNMX3fQohZsdeVcN4ustpuoYQBUmSsrCwSK1aZf9gj163jyopJFGELEmfHF9t26JcKSNJMnESEkURhqrTaDa4/MIlVE0lz1M0TSPLUyzLJI5jxuMRQRiSpCnd0w66ptOoOqjZmOtX12jOt7h7f4efx4rNWR31U065XOHLv/hV5lrzUBRIwGg0IMtmNcc4ifjJnfcZDofMLSzQ6fb5y7/6Dutr6/S6HbIsYaG9SK1eRTOqaLqJLMNwOMveCpGjawqBl6EoCqZlPa1rKqRpQhAFpHnK4uIStlOmKHJGoxFpktJebGMaJpPJkHK5jGEahFFInmeESYKqK7RaLQzdZDyaIgqBoioEoY+mq2iaiiybUBREUQQFaKpKnmZoikq302Op6TKYRKy0m9x8+SJK5vGHf/Jj4vTnywv8M7Oj6rqBqmlomv5Jx4em62iqPjsCStJPxehdLlf49a//FlubFzg+OZwd7f7BrVsS1WqThYUlgjBiaWmF9uIijm1xbmOD9dVV5EJQJCmObfHyK7fY3d9nNByjaRpR6KOqMo1mA9OukGQFhmGQ5zmDwQDDMCgQBH6A4zhIkoQkMesZzVLiJGZpeZmlpVUURSVPUzxvSrdzhO8HSEgoqsLi4gKGZTGeTsiKHMu20dRZrBmHMfV6nfmFhVlSqChQVAldU3BKFkWRI8syjUaDer1GEIaIPEeVZU6ODqlXaxi2Tr+zz0LDpukanB6dMo3AtBxUTUOSJApRzGLon1F+JnbUGy9/hl/6yn9DksXUqhWqlTIFM0fNeDxBVxRURfC//K//Mw8f3vsnuw7XrfB7v/evefnlW4xHI1577U3u3ruDaVscHh3yve/8Rzxv+nf+fYqiYtsVHj98Qntxnm63g2no2KbOdHDKt7/15+ztPOHWrTd5eO8eu/Yjfv+//ef80Z/8Obt7u4g0YXNzg0wIhuMx5eo8mq7S7XZRVQkhcmzDJlIjpl5ALnJy30c3DBRNo9VsISGxt7tL9+SEctnh8uVLGEpOp+iRxBlZlpPlBbICcRTheQF5uSDRNMIwwzEtQKMoCnzfJ6uWUVJAVxkOBmiaQsmxSZIQ35twenKEyHLyNGN+rkmapehmjfnlSwgE9x7sk4SCpcY8F158lVduvsrm5jqZyNnf36U76DMajQjDEJBmDeqhz+npEY8fP2Q6nfxTffz/pPxM7Kj/4vf/RyqVGndu/4Tp0x5J17ZwHAdFVmg2Gly5epXjkyMePLj3SYxXrdZZWd5A0zR8/+8uoP8c83NtvvKVX6dcafLo8TaFJCNkjWvXb/Dm67e4cf06b33+F0mimJOTQ9I0/Vt/5+ryOqZp4wcBjm3ROT3h9PgAVaTc/fB97n/0Ab/2q79MuezyztvvcHi4x/HRISedLgeH+1DkLCy2MS2bOE5JsnS2ixZgGBqTyYRBv4eiqCRPr0dCQtcNFhYWqFQqHB4c4k2nlBwHWRL43gRN19B1DSRoNBr43pQwmPl0VUWh1+khyzLLyytEYYzrOsiyxKNHj7FMnUajTiEEYRhgGjqWY5FlOaenpxweHRFFIYauUq+WuXP7NnPzbWQKdnce8sO3b7N/NKE/9Dk57fLkyTZhFLCxucHNmzdZbLfZ2jrHuXMX2do8z8bGOTY2zvPKzVu89sZnqdXqDIcDfN/7R33eP22ee6Hadok3Xv8ScRQxGY/I04TAG5HEIVmaIiPN7Gqmhlua+VdffeVNvvj5X+a1Vz/DysoGVy6/hFsu0+2ekiR/u4D+/ywuLvPy9TeQJJ3DwxPGY48wShBIHB8fY6kSdz/+CaPRiMuXr3P9xVcpu3WWV9ZxXZcsSxF5PjsiF1BQULIdXNtiMB5Rr9dwDINgOqJ3usfpziMGx4e0FuZJC3jn3XcQImUShGRidpOriowkFVRrNRRpNgJlPJ7Qmptjbn6ew8ND8ixBLnICz8d0HMrlKoqqUa3WkAuZg/1DpAJUWUbXVBRFZjQaI0ROlmWcnJyiqQppGpPECXEU0e2c0Ot1MHWNaqWCoimIoqDZahL4Prqqcu7cFkgFqq5Qr9XQdR1VUymexqqlUolqpULoTbl/7z7lSpVatczHH93m0fYeu8dd4izHtkxk4P79e3z72/+RqT9lcWkJt1pDkhVM28a0LGRNQdNVytUyly5f5fNf+DJra5sIIZhOJzP7ohCf6ukSz71Q20ubzC+ukwlBxXWRihzT1Ol3T+n3e3jT2U6Z5xm2ZdFuLzHXaqMqGuPRCF1TqDeavHTtOhcuvEAUR3jehORvaLGSJDB0DQlwSxXObV1maXmd9tIytmNRCEHZLXH12lW86YQ/+9M/Zjye4LoVRF5gmDbLS5tsbl7i+vWb3HrtDa5cusraygb1Wp16rcY//53fYW93h16/y/mNDSolh8ngFCkPiKZdTDkhiSfs7++x0CrxxuvX+Nf/3e/yz377G6yvLHDtxctEYcx05KEpOpquIUkyhl3CCyIm4wmqolMulQiCCFXXMCwbQ9NRVYU0TUmTlFajztSboBs6uqETRRGt1hy27SCEoFwu408nDPp90jR9GpNDueyi6QaqqjIYDNB0jVq1RJqEQIHtWMy1GizMz+GUHLI0Zep5GLpOe7HNSrvNZDpmMh0zHg2J/CnHRweYtkWjUefSxYusr68xt9BkbqGJZRs82d3BtHXmF+bIc4Esg6ZLOLaJ67qoikYYBEgFrK9t8NnPfJ4bL79KyS2TZdnTLp7sU9m0/tzFqKqqYVomju2gGyb11hJ+FJEXBaoEuqGjyYJOHJBmAiTYefKIQb/L8nIbTVPRVBPbtDh/8QKOYyMrMkmasrV1kQsXL/L+++/wrW99k92dbZIkhqLAMDRcx8I2dSxDpVJyODnp0xtFDPoDlEsKcRLwwe13uH//Lq5b5uh0h2q1wc1bb7LUbuOUSkRhxGQ0Joo8kjglDAN0RaFkl7lyqcUrN25Sr7vIskAFnjzeIYkDhoMeZCEKCZvr86y161SrDo5bQlNNFN0gDfrs3O+gpDFKltMou/ROR4S+B7KKXqrQ7/UwnSp2qUTkh6iGRXNunkxk+N4YTdVIU5kiFximRpLH5CIDqcAuOeiWhaLNEnWrq2sYuo4myWRxyng6xjBtas0mpmkw8caUpTKqJnN8fESrXsMwTYIwoNGsYlgmYRJj6gZpkrC/u8fcXItavUaUxiR5jmZoHO3t8vjeKTIJzUaZC1tLvPLam7z1pV9CMy0830eSFZI0RzF0bMtBkjTyPKPfO2E88RkOQtJEkMQpFJDFsxry8soqv3fpXzEZjvjRD7/P+++/zY/ffXv2uX+KeK6EKssyW+cucuHCC5w7dw7Tcrh3b5taxcYyTcbDAUHkk8QBURxiOw6uazPoD0mSiHrNpVarYxkGaZxhWjbTICTLEuq1GrIsY9sGv/71r3Pp/Dn+r//zD9h+eBfX1llbnmNlsYmjK4yHYw6OeowUGU2VSdOYvf0dRqMRe7tPUGQF07BIIsH5c5eoVatPn9Qz+53jOjglB8/zURUZSzdJYp+DvW3yLECVBQvzDdZXlmhWSrz/wXvsj/r0u8csL9R4/dZ1Kq6OEICsY9oNvCDhr9+5SxzFyFJBdzChP06eHqkLJBkCf4qc5BjmrOtFlSTiJCETGZ4/QQhBIfLZRVIgSRJJGlJyLbzAw4ocNtY2GQ7H9AdjltqL5HmGqukstpcRh5AVAmSJME0IfJ88F2iqTLu9yMJckzxLcRyTNEs5Pj6BIsfQdXzPnzWKFxAnCfv7exweHTIeDhiPOog04uD4iN0nIUvLLd67/SG3P/qIX/jlX+LylSvUa7XZbCdFQVIUikJGpCnztWWGowkffXiPB9tPQNKx3RqKOkuYjccjDNPAsmw++5nP8fLLNzk9PeHx9sP/z71XFAVOqYRtO3jTCWEY/lSPys+VUFVVo9lawnbqSJLJdBwwHXaJp0MkSUJRZaLAR1EkCmY1Qt+bMp2MkKmQpQneZEQW58SZoL8/QdFU/OmYwJswP9eic7SN7/Vpt1y++oUbHG+UqDkKpmlxcNThzp1HHBx2mXgRiVDIC4U0i0jSiKWlNjeu3UCSVdxyjXprAZELJKHQnp9DMw38YEoax4giQZELKo5NkQu6xz1EMiH2eiRFRD/r8frNi+RLDXb37qNpgBBoqsJkMiFJNRSjhuE0WFy+wZJbo7X+Kp2TI773l3/BnbtPKGQV3XDIREacRhSyjlykDHsnjId9Go0miqwynY4ZDvtIEqiKgmVZFIUAJAzbJM5iRuMJtUaDaqOO5ZQ4ee99wjii7JQIgwjdtFhe2yBKImRNIcnSWZyoKVRch/XVZTx/Sq1aoVRy2N17wmQ8plarUogCbzLFMS0s0+Dxw4fsPtkmDCaE0zGqlJGSE8cJSRwxnU7wwoQ/+Df/O9/+1l/wK7/8Zb7xjV9nZWWJPEsZBSGBH5NFIZVqmUq9zrUXV9EIuX/vCeEkQ8gm5VqTw+MTJpMJc40WmqpSckrMzS3yePshkiRRKrm05uZpNudYW99kvrXAweEBH390m4ODXYLA/+nc+z+Vv/JfiVwIer0RR0fv4zp3ufnKDa699BJH+ztsP3rAeDRAU2SarRZz8wtkmWDc6yEJgaZppGlMMB1j2x6FrDIYe8wvLmFoKuN+l6Ptj+kcP6FeMYh7FoYmocoF27sduoMph0ddgjihkE0kXSWPctY3Nrl28zXWN8+hyjq6ahLHKcPhhCgIKbkujlui5JTwgwn3f/IhtbLD6vIihZ8wno4ZD/t0j5+gELC5UqZk19E0la2NeWrrW8w3qyzNNXjvx28zHQ/xwgK7Podqtyj0Ktv7HTq9+wx6Haquzer6Od6//SGdfpdqjZmJQdPI5QxJAiFikiQnjXwazRaSyEijiDiJ0DQJKM16UguBH4zJkdB1E1FAtVpD11Tu3fuIohAouophW4gso1mvkBc54/GYKIlxSw4112VleQFZkTg8PKBkW8iyi2lY5E6OblpEQYCMhK0bRNMpJ4f7eOMBWRQSRwEKOdN45lhK8pw0L2jN1VEGBaPOMT/89p/z6tU1+gcf8WT7EWEY89fvfoxpObTbC1RqNd787OdYaddJpjZH3TGHnWO86ZiT0zHHBUzmRrTmG6yurXP+/CWGoyHtpRWWltZoteZoNueoVKpomsmtNyze/MznefLkAd/7q2/z8OE9ouiftnHguUomKYrGzZtvsb5+joX5FpcuXmBxcYHVlWXqtTKOqVHkCf1eZ2YQn/ntMAyTctnF1FWS2CcOp6RJyO6TbShyEAnd4z3uffgO3vCIubqDSBNOu312Dnok2MwvXmB1/RKt+TZWqcLW+cu8eO1Vbtx8nYuXLlOrVikEFHmBqip40ylh6LO6toyqyoyGXYbdU1J/hFyEVByV2B/y6N5tjvcfMdcwWGlX0ZUURMjq6iJl1+boYA+5KNBVjSTJ8MIE020gm1X8FLrDCR/eucP3v/dXvPvjH7H9+D6FyBgOeiRJjKYqmIZNgUSUxIg8J0tSJFkiy1IkqcA0TXRNwzR0CpEShcGs/YycNE3IM3BKFXTdIgojFhcWKDk2bsUliWNCPyDLMyzbxLEtbMvCskxEltFozOras0n5CiXHQYjZ7lgUBaPhEG88wTZ0dEXm9PiI0aCHyDKyOCKJPJJwymgyYjiaohoKpqGiKuCYOrWSyfUr5/jsm9eJ/T5F4lN1S/zlX/6A026PMAj5/vff4aM7DzHVlEpZ4/jkmO/81fep1to4Tp0kSqGQiNOYaq2OZVWoVOdZW79AtTpHGKR404DhYMxgOCYIIqqVOmvrW6wsr7G2tg5Fged7/2Sx7XMlVFlWWFhYY3FxiUsXz7F1boMkSchzwfz8Au12m1azhW6oTCcjRoMORZagSBlJNEVTQNdkdrYfMhp28KdD+t1DLAPWVuYJ/BFx5GEaJt2+x2haIOk1as11qpUFGq15bLtMc26RxcVVWs156vUGmiJjmjqVUon2wjxL7QUsW8d1DGxLYToeEkzHSEXOxuo8FzbnWF1psDBfJQrHbD++T5ZFMxNCnnL1yiWuXLmIPx3w5P5HpEHIaDzh/qMdHuwckaExGI7pnB7TOz2i2z2lEAK5EHjTKccnRyRpjKJKyE8bt5M0QxQFSZzMJi9oKn7gE/g+hSgIAx/D1DB0jTiKZiNQCjGb9JDllNwqtlPh8OCYJIqZm5uj1WqSJAnj4Zji6dgV27ap1apUymVkqcBxTJySTRiGWKZJq9nk+PiEXqfD4eE+UehjaipxGJAlEacnh4xHfWRy8jwhz2LCyZjReMw0SFicr2NqQJ6yuNDCMQ3aS4u88dbrbLxwnppj8fjxDvceHnHa8xiOA5Ikp9/pcff+A0bTkME0RzWbXLr6Gs25ZVTDQFZVFlfWQNLJc4U4FoxGHn4Qk+UCRdHIUsFkMhsGF8cpvh8QhwmLC8u8+uprbGxukmcZ4/Ho71Qn//vw3Am1XG2ysrLK+XObWJaJ5wWEYYyiKGiajuuWWFpaZHV1mZJjEXojRB4RTIcEwRRZygn9EQvNKi9eOcfVq+f5+te+SnupzeMnu2R5gaLZKEadcn0Vy11gOk0Ig5BCFMRpCsjIskYQhASBz+HhPp3TY+IwmrWMiZR63cXQZdI4xFRlNAlEllCyFVbaZZBDqnWXzc1VECnf/NZ3+fG7D3BKJr/45V/ANGW6Jwc0a1XSNGdn54if3H/MnbsPMA2Dxbk6a0tNbt64wtrqEq1mnfbcHKahkxcCz/cJgxhVUZBkiTCKEcVsF83FrGZbFGKWFEFiPB7ieRPCMCDLc3Tt/7VeqpqO7ZTJhUSeCYa9LkHg02jWqVSrMzN/MZvMUHZdDE3HtiyqlTK5SFFVmTiZJbYKUdA5OaHf75JEPromI/KELImJQp/RsEeexijyLNOeJwlJFHFy0iHKBOsr8ywtzqMqMkEQcXI64OS0i11yqNZqHOzs84f/9o94sjdk7BfsnYwRQqJWL9OYX2aufZ6F1assrV/FiwR+mFKuVpFUlUq1TlHIJEmO5/n4nkeBhKrrs5pcMUsquaUS7cUV3FKZzukpOzt7WFaJq1de4uUbr9BuryDJCuPx6L/aDvtcCRUkrly5xvr6JpWK+3SmLERx+DQTF2AYOo5dolat0263KUTCyeE+uqFQq9hUyhathsu//P3f5tXXb1C2dCqVBv/2//hjdvYHvPDiq7iVBSTVRVJt4lSQZRlCpCiyNOs0KQrskkUUJ4zGHn4Qomk6SAr7e/scHO5TcV0cy8SfTjBVFVPTSIIQScSoquDxk0eUyi7LS20WF+ZRFJmDwwPeu73Nvbt3eOmFTeRiZry//2CH927fZ+/wBMfWeOuNl9harSNLIW7J4OKFTUq2Ttm2WF1Zwa1UaTZauCWHOIwI4og8F6RpOusvlWTiOMY2LQzdIAx84mTWARNGIUky+74CQZplOKUKlUoDqZjdr4E34eTokCCMaDXnKJVKSJKMpqqYpokkg6qpNOcalEo2osixTZssy7n78cckcUgUeoxHPRQy0igk8j28yYgwmKIrBXkW0zvtfGLY7/a6WJY6y2h3h3T6Y45Oh4wmEUedKe9+8JiD7T329075+O4ew0lGlMvUW0tcvHqd1z/3JV5780ssrlwkEQZ+XJBlEq7tUirZqKrMdDKZhSxBMLM7JsnTQW0yge8R+j62aWEaDrkQZFmCbmiIAoIwIYpSGo0Wly5d5vKVFzl/8QXiOKbTOUGI/3LH09+FT41Qb936AldfuvF0Snvyn30StVrzXLxwlaKQEKJA13UMw0CSZAJ/ikSBN/HxvZAiB8uw2NzaRJDz8ME9ut0TNteX+eIXPsfLL79IGoc83t7hu997lx+/dw/FrJEXGkGUI6smh0fHfHjnNn4wwZuM8Lwxp90ukirjVCuEcYqqGtRrdZIs4fTklCAIGPT6dE87tNvL2KbFoNeHIiVLPEaDEw4Od7n94XvIMlimiTf1yPKMWq3K4uIS7777Lh+88zbL7WW2Llzg+HTIYBhw8dJFXn31RZaXatSrNlvnNllYXEBCoMmQJT4V1+HixbkTxJwAACAASURBVEu0mi0W5+fJspTdnR0ykYEsUQhBkkSf2NdFliMQaLoyswUWMnmeI0kgSzJFAZpmoioqcZKQRhFR4GHoKp7n4ZRKOI5LGAbEcYLv+0RRRC5SypUS9VqVosixTJs8TQm8KYNBj8AfMRl26J4e0uudkuUZpq4i0gjbkBFpTL/XAQHjyYRCkqjVXPYPT+kNQuIsJ4gykgyyQiaJEu4/POAnd/ew3BbNhTXOX77Ol3/la7zx+V/gwpUbFIrDeJrSHXogaeiKRpqk9PsDxsM+SRKRxiFxnJI+Falh6Igih0IwPzePU3KJk4zJZESaJaRJilsuo+sWk8mU7ceP0U2T1bU1Nja2WF3d5M6d9xmN/nGjTz8VQl1Z3eRrX/8dLlx4gWsv3uD6SzfYWtvAsV2yNCVLZy6hc5sXMY0Sum5iuy6HB/s8fvgIuRCUKxUMwyCJIuIwIYkyJFmn2lrg5Zu3qNUbnBweUrId1tbW2d094OD4lP/wp9/iowe7aLbLZOpxcjoTW+BPESLB84f0+ycE0zGT8ZT9oyMG4xFutcbm1jnIMzqdI06O9+n3uxiGgcgz9g8OieOcc5cuQZES+H1cByxboKoZipIzGfdRVBVJ0SgkqFTLNCslXn/5Ne49POQ//PF3yYqYtbUVWs0qy8vztFpNLly8yrU3vsj65Ru026v0OwOODvaIwwnD/glb622yOJyN9FQ1Ot0e/f4QVVXQdB2QsE0bWZIJo5ACAfKs98S2HJI0Jcuzp21o6kyEaUylVpv5or0JSRqSi4zhcEguBNVqjThO6PX6yLKEWy4hK5CkEZZpzBrKbRuJgr29bQ4PnhD6I4LpkOlkjKGruGWbOJySJT6KJIjCCM/3GY7G9IdDgjBn5EXMpprKyIpMLiTiJCcT0JhfYuvqy1y89iqvvPl5GgvLqIZNqdrguDNg+8keYZqRFxKGZUEu8KcT4tBH1w3mW00UScEwLSRZplQpo2rqJyNNZ9MTS5iOhazMBpBHcYqiauiahqYpFAj2Dw44OjpFCGjOzXFyfMj+3pN/1Dt1PhVCvf7yWwxGUyrlMoN+l9j3sHSN8xub3LjyAhc31mjWmkiKjqZbLCwuU3JdVFklmPh0uz0azRpuycHQDDRVRUNGFAXD6Zjx1KPdXmFz8zxRkvEnf/oX/MW3v0MQeTzcfsTduw84OjpGksBx3Nn4zDSlQKAoBeWSTdktk2UCWZWJspRut8/Hdz6k0zmZGcjrVQxdJwoDojCi2WiQJhHdk30uXlyhUlYouzKtRpm5Zp0L57fYOn8O1bSpzbXZ3NxidXWZ2++9Ty4En33rFyiknB/+8PuUKzZCJAwGXTIhePhwhw8/+IjO/iGdwyNeuvICSTwliSeUXYN7H33Ak+1HBH7E+XMXmGs1eLK3z3QaYJg61tMBZqZpQjGzy+Uip0B+aqXLgAJZmrWxpVkGRYGmKvS6PQaDHqokE0bBTOh5wbXr11lZWUWWZcIwoFGvIhUZWZbiui6BHxAGAeNhj8if8PjBTxj1TtCUgma9Srd7TK97iqFpSEJQ5ALLLrO8tsb65hb90YTuYEyU5qQCRDEzZOSFRFrI1BpNrt+8xed/8atUGotUay2QVfqjMbKiE8UJQsgkcUacZlimiaVrs/g4jcnSBEMzGE8meH5AqeQiigLLtGm15lFVjU6nS384IIxCpp5Hr9ej2WzOHnihj+f75HlGFCY8erTNaDRifXWZza1N3nn7+/+ozp1nKtSiKLj52heQZJvBYIRbclAViSwM8CZdOseP8SdDfD9m5PkkuUA3HUQhY9gWtmVTFAW1iouuavjTKdPpCH8yIQo8JqMendNDxqMJ5XKDSqPNTx4+YXvvkNZclS++9TJf+6Uv8MYbN/F9n3fe/oB+r0Oe59i2DRRkaU6cCHq9IWme4rjW05KGzu7uNuPxCCiwbYtqpUKRC3q9Dt6oR7OqsdDUWWmbOGaGKhcUAnIBjlNGVi0WlrZYXj2P74dUqlWWV9YI0xDPG9BqVVhfW6FRa+BWysgylGybKPTYfnyfjz58n9vv/Yh7H71PEk/JsoDjowNKJZvJeMqjh4+f+lwdvPGUXn9EFCegyEgSZGlKkecUxSxRlyYpQeQjSQWFVKBoKiW3jG3ZRFFEr3NCnATMN5oYpoGEQFFU+sMh02nA6toa9VoNRIpEhqVpCCF4cP8Bo9GAzvEBO9uPGHYOUUVEo+Jy9fIL2JZKs+Fi6AqD7oA0FQRhwjTOeeXWZ7hw5Qqvvv4GV156iXq9SeA/jSFTQSYULl2+xi//6q+BYqBq+tOJ/IJHD7fJ8gLLtNA0kzhJGI7GNOpNlpdWKVdK+N6Y8aBL6E9RNBlJUdENC1lW0XSD8XhCfzAkTlMMy6RUKmEYxuwlV4ZOkqQoikKSpkRRgO97VEoV5ubmsEydes2l1WxwenrCzs723zid42/imRoeHMdleXkLRdMJwwAKGPTHSHkKaQGFzHjikaIRZVDIytPsW46pyshSjqrkVKsl5CJkOOwg0gTfG5NnKbZtUbJL5Ajeee8Dhl7A3v4uo6mPa+s4uoRry6xuvMjVF6/zyivf5Q/+8N/zeHuXNI2Ym19GUTWSJMHzxoSBT9ZLKJVc0iTC0hUURbB/tEeYBFy5eBHX1GnWTGzL4Y1bV3jhwhrgYTs2um6SpII8K5gGEXuHJyhPjrlyNaPsOuS5zOLmeeI84/jgMbauEvkxw+EQ1IKaNEd7cYnlpWUURWM6DZh4Hv1BF91QkRG8/YPv4AU+b37mNW7dep3t7SPu3X+IZWg0Ki4nwxFxPHtBk6bq6IqGLCsICpBBUZg1cyNDMXvTmuGY2LaFIs1eDpVmGVEUoqgykpjNSXr7r39Ar3vK9evX2Npcp+aWyLOEk9NTVMNAVQp2DncIxiMUKcfQFCzTIIlCTk8OKLkG16+e56jWQVNsZMXkpD/lz/78m6Ao1BpNLly4wEsvXmVpYYGDw2M+vHMHVIuv/fo3cNwyNd8niFJOOx1W2iuzZnhFRZIUkGadP5PxhEatScm2cF2DvSezElC14pBlCaEfYlplkjRjvlTGtjL29vaJk5hqpfrUY66iaRr50wmMjmOjaSqqphDHCWGSUC6XaTWb6IZBnmd87evf4L33Zq2I/xDr4TPbURVFYXPrMrIsMxx06XZOGA+GpEmGoVpkOZSqVaxyDT/KifPZYK5GtUbZ0SmbChVHpVKSsE1BpaxhGwJHF5RdmdW1eeq1Ch9++DHvfvAh7935Cd3BEFWTGXZ2WWranFupUau7fOcHP+Lhzi5f/43f4HOffR1dFRzs77O/t09RCFaXFzm/toYQKWHkEccRUpGjKQpJEiEoEEXO0cETVDnm67/2eb721c+xsb4869qxHbJCJs0LhCThhzEHR6ecdHukacb8/ByVagUkFd0sIdKc2+/+kFfffB1bNzjtD9Adl/XzV1jZuoykGOilCrX2Gq21S6yef5GlzSu0N17g8pVrnJ4c47o2X/qFL7C4uMLh/in9/oRcFEw8jyTLkSUZVdGRn04XzEQBEog8R5EVLNPGNGezetM4I89yJFRct0KWZmR5QppmxHFMqVxCkgS9fodK2SbPIjRVnsXq+/uUHIvAm5CEHok3RldldGPmsz05PoAiI/BH6HLOCxfWqZQdTMOkWm1yetLlBz96myc7T3h0/z4/+uH32dndwbZtLKfE+tYF7FKF7SfbpFmBZZcRRYEiKczNz9FotrBth6OjIyaTCYZhUrItFHIib8Tp4T7F00mISRLT6/UZjT2SJGUwGtIb9MlFOuuwyQumU+/pULaYSrlKe2kBP/ApJBAUKLpOgYzvB/iBj2HolEolHNMiTVLu3f/4H7SrPhOhFkVBtdZidW2LRr2OoemEfshoNCaNUy5euszyyipupYKsGRwcncxetSAEwbTLS5fXWF0oUXcl5ho2qpJgGTmKlDLfqnHtyiXmmjXu3L7Dn/35t9neO0SzHIQsMxr0SIM+r798gVbNJBc5H3z0gLff+4DdnV1uvHyNL37hLRZbTZI4ZG9/jzzLuP7ii9SqVSrVMvVqBVWWKdk2zUaNKPAY9jrMN8r89m/8Kl/43GtoSsFkOkWRVVIBSSbwg4DJZEroB4RRQi5gc2ODrc11cpERhj6mU8KQC775p/8OkYTMLa3QWlrj/NVrLKxsoRkOUeDjT8ZouoWqGohCRogCGQndqbC5dR5kFcNyuPvRA7773R+RxhmOW+akPySI46cjQRXyPCPLM9JsVh+WkFAVDV0zUBSFKJoZJPI8JwgCVFWl5LpoT/tHJVnCMAxc10HXVCzLIE0ith8+YGf7Mbqh4E0nRKHP5toq4XTM7u5jotAnSiIGoyF+4JHlKaossdyeJ/RHRJFPv9Pn/v1ZrF0uWWiqhCLBdDqlN+gj6wbziytoho0kaxRIOKUqsjTzZkdRzPHJKWEYcXzaQQhYWl6mXLIYdI45PtgjTxMUWUKWIRcFfhCS5QJJVvC8Kd5kimEYmIZJGETIkkySJHS7XVpzc7Tbiwgh8EOf4WhEuVrFcSx8z2MyGmEaJu2FBWRZwtAM7t79CePJ6O+tmWci1FLJZXFxDbdU5cb1l7n5yi1M3WY6mVAul1lYbDPxfYYTjzQTuG6JRrWKN+qz8/BDLm42aVYE08EullngWDKhN0CVpdm7OZH44fd/wI/ffo/JJMSPM9B0ZFUnSwJUMeXNV1/AMRWOOl0e7RyRCIm9wwP63Q4by0vcuHaF6y9dRpHgyfYO/f6I5aVVDF3B9yboqoLM7OEhi4y5uss/+62v8ZVffIskiYjilDQvmPo+g/GUJEkZj0ZPbwqJJE5RJJlGrUq1bKPIs0Zvpcjxxn3u3nmX084pdrnO6rlLmJZLmuaIPGUy7DIZ9hBZShIGRP6QwBsjspgsEyiazdzSOmEiePtHb/P2X7+N7/vkBXSHI8IkQddnD6ksS2aN61mOhIymaui68bQ+HZGkCbqmk2UzO6FlmRimSZ5ms0mGsowkyYRBgCgEbsmhZJt4kxGDfocsiYiCKWEYsji/gCQSth89YOoN2Tk44Lg/QFIlkiRhOByysLBAe7FB4I9ZXlxmMplydNKlVq3g2iaWoWE7DobpYDgui6vr1JrzT1/BkYCkkuc5vuezu7vHaafz9GFTUKlUKbsueRJSZDFJGGCoyid1X0mRSTKBELNxqXkuZm2VhkmSzAStajq+HxInMVmeEcUhpmXQ7XcRhYCieGokCej3+xiazsrKMooszRrnNZOP7935e/e8/tSFKkkSi4trrK2dp9Fo4Xshlm0znU559Ogh9XqdApmjoxM8PyDNEkolC9vUEEnI/s5DsmjMXE0n8vqMx6PZxLw4Yn6uiSJJ/NG//xPe+/GHhGFGmGRM/IgcBUU18Kd9WlWJay9uUC47HByfcn97n0ySSbKcbqeDP51ybmuVNAkY9YaEfsRppzcbCtY7od/tEoYBYTBl2D+lVjb5xte/wuuv32Q4mTCaTEhETpjEeEGIphoMOh3yNKbklgiTlNHIo9Fosb62wUK7TS4KLNOcJSbiiL3dJ0RRzMa5S6iaRhoFjAc9/MkQbzIiT2PGgz7/D3Hv9WzplZ73/da3vvztHE4OfTqi0Y0BBmEiZxAmcCiSIi2XaOnG/4905WvfWDbLF7ZlFkXbpIuyZsgZDiZgkIFuoNPp0yefnfeXsy/WIVQqWxJdlCFcNrrq9N7d71rvet/n+T2j02Mif0KWBCymU8L5nCyKyJKIIstoehaOLZn7C2ZLn/PpgjDJFMAsU6uv+nLyW9cVQmjU1Jc7wlRJCTVIkoS6Btsxmc3GxHGIEJAXKUnsM5tPlJ5XalimjiYqpAa2rSsdrO8jKLFkzXw65nw85snBMZrUabccTF1SljXLZchzt69jWyYNr8na+jppVZNmOaauU9Y1jXYH02nQGazx0itfx7BcpuPp5Q6+ZLFYspjPyXPVsuvSIE0zpNRxbJsomJMnIfLyrZgVuaJB2A5lWZFmOWiqu6iBvMgJwwDDMPG8FqZp02i2qClZBj5CEwhNQwrIsxQJSE2FZulSMlzp47o2URTSarU4OzvhYnT2/6luvtRhUl3XNJsdWs0ezWYbQxo8ffoUqWscHR2QxBGdTled7IaJ1/SoyUjSiDwukFLD85ocHBwzvblJt20wuZgynfrkec5y6dPt9BiPxvhBRl4KkjRVqhtpUeQJUbikd3WI1CoKYP/whCBO0CudvCiJy4Jf/OrX3Ll9HdcyCeZTEn8BdUGn1+bG4CqCktOTI8JgSlkmfOX5G9x5/irT6YRZmCC0miSL8f0lG5ub6NJCk5Juq0GeF1xMFqRJTqvZo9sfkhXQaHcp84yjoyO0umJn5xpp9pDd3SuYts10fE6Wpkr4X0GW5pRFriasVU0WZ0RBrlraIiZc1ERRhBAFX3npNtdv3+T+509Z/k9/xvjeU+IkRaJavqqoEFKFVRR5qvJlhKCmxvU88jSiyCscp0EU+iyWannfbHSwLJ048knCkJZnI0XF8eFTyjzDcyySSE24G57L44f3aVs6URQwns5Ic7ABKTQ1XLJMRrM5j56ecG13mwdPHpPmGndfuEte3ePw2SFOo0WpmdSaQaPVIU4zFssZaZZiGhbj8RhqDWrlXxY1aKLGcSwMXYHUZMMgmI0pkoTFcklFBXqM54LQJFIaimpYq4S7KEmIwpiG12JluEKNoChzFss5WRZTFGoNJaoKS5d0mk3iOMZYGZJnGePxBSvDLoapU9UVv/Ojf8jDR5+Rpn93+v+XeqMKobEy3GB39wadrkJ8nJ4ds1xOWMymrK6t02p18cOQwWCA0/AIw+CL+D5Dl1RVznR8TrfpYJmquB4/3ufpwRGPnxxyfj6n318nTQv8IGa29JmHCcIwoS6RxLx0a5O9rRUePT3i408eUtUWQZCRxCV1XROHPgdPn7A2XGE4XOX+549499NHlJpFq7vKiy++yO3nrtBtW+xsDrl16wZC1xjN5kRpytnZGZZh0O+1kQKiMFST7Szn+GJClBbYtsvN6zfY2tkmSVPyIuPw2VMW8wWWaWEakoODZ2xv7zAcrCCFII0iDE3SanWoasiyFN2QmLZJHCeIulYcIVFCXWBbJkVRYOgGDc+l4ZrcuH6VW7duoQnVtZRlreIrRI0QGtSColDBTVVZoGmg1QLTMKEqCHxlXCjyjDxNiQKfLFqi1xmeJVnpdaDKmU8uCJYzojDA1A2gunTGjEjShNPxmDQrqakR1KRpRpLGWJaJNCw+e7DPL9/5nIUfkec1zw6PSPKcRqdPJQxKdGynBUJHajqOZXN6fKzaTdOkupReKRlHiZQ17VYTx7Jot5oYhkEQBPhRRFVDWQv1XQhJlhUqBb2uqWtFVzQNk3arTZokTCZjijxTzxU0haQVKrvHddwvWuWiVJ9P13U63RaGqeP7PsPVVc7Pzzg5Ofw7186X3voOh+tcv36bJEk4vzhlNhlxcX5Cu9niypXrlEKg6RorayukWcJisaDIc3QpaDU8XMdkPD5FUlCVBUmasVgGREnJ+WjB/v4p8/mSLM8pq5rZMsZPM2qhEQRLPAteuXsNURR8cv8xQVQwnSzx5xFFVtJwXVzXYjYZ0W61uLp3jYvxlPfvPyHOVIDSoNvCNXPyZM6w36LZ6fD06JSp7+O4DpoQbKyt0u+1mUxG+EFImlccX4wZTZegGXTbHVZXBrTabYQmGI3OkFLQ7/aZT8ZYlsHR8RGWabG9tU0Q+CRRRFWWZHmJJg2E1NSkFr7oQhzHIi9SfH8BQLPRpNloMr44QVLy6quv8s3Xv8u3vvkNDCnZ39/HjxL1D1tAVdVKfF6psCYud6xS00jjEClKmg0Hf76EumBt2GZztcfd29d46zvfJA4WTC5OifwFRZqiCYGoK7I0hiqnrkvyqmTuh0RZoYBmaU5eFBhSU5LKKOXje4ckZc1XXvwqZ6dnzBZLnEYLaTmYTgPba7G5dYWd7V1cx+Hi/JyzszOWiyXz+QLLdtCEhmVZaFqN1GpMUxL6CgQuNEEUx/hRDELDtBxVqFJnOpmSpikIdUApD73iQi+XS7I0wbYvmdG6wdbmDp7bIC+KSx11RprlFGWp3vSmgWWaaFI9K6qqZDhc4cOP3vs7i/a/1EKt65pef8ju7lV0XeP87ISz02MMzeTmzdsMVtfwmi3SPCFKFZpDkwrWTJExn444Pz1iOhlR5CG6hCjOSeICIU38ICVOK4I4ZRmEVOiMZ0uWQUiWpuRZhiErPNvmg4/ukxUCQ3cwdYPN9XV63c7lDRgT+CFRGHDr5jWE1Pj1u/eIgoAfvP4yaz2bJJ7S8Ax2r2yzjFOeHl8QJilS19lY22A4HKq/BKFRVDXTxZy0UJPXKEzJkoyre3usra/i+0tm0ymrw1Xm8xlHhwesDHsURcrJ0TFXdre5ODslDn2m0xGabmK7LSxD7eiqukaXOnUJWRJTUUDNZbJajWFK+r0etuNQ5jnT81M8S/L6b3+f1776AqPRBY/2j6gvr6GaGqH9W5y1SmlLiZOIPM/pth2GPY9vf+0OLzy3w/Z6nz/6J/+I3/vDf0CnYXF8uE9+iSqJ45iyzCkKZUpvNGyKsmQZJoRJpm6zSsHiOi0VrjydLpnOE56/c5tvfOObzCdTlkFILXVsr4XtNuj0VnnuuTt4jsvR4SFnF+doUlLkBePRGMO0aLRadLo9dNPAcVW2TVUpNE1dl2i6yoOdzpeYho1m2JduIpQUtFJdRqPZUDA7TeDYFo5lYtkqCyfL1XecFzndbodur3eZzq7jeA6dTgvrkrKIBlLXSeKYa9euA/DJJx/+nWrnS259Bc1mh2arQ1nmnJ+dEEcRd57/CjdvPY9mGIRRQJonXFycUhfFpSxQQ1IQLqdcnJ2wmE8pi5hGQ4kEgjBlNg/Iq5o8L5TFK8nI8gJN09jb2+HO89dxbEG7YSN1g8dPjgnDlFbTY3dni9XVAa5jEfg+zYbH1197mTxPFKWg2+Hhg89467vf4O7NDbQ6RBMFaxsrdAY9TkdT4qzCa7XJy5KL8zFZmhNFCZou8ZotlmGMYVrYlofULPKsYH1jlSt7V0iShF63e0lPkEgNDF1Q5Bm/+tUv2dncYmd3G9+fc3p2Qrc/ZDhYQwg1SZRSoglBGkeURU4UBVRViZRqV5lmCcPhkEazxcPPP+Nw/xHL6QhT1rx49zavf+8NWk2X/af7LJbh5XCpoqamrkrKQr2HDb1ia2PA9SsbbK612F5r0/Ik3/r6y7z6yku0mg5X97botRvUVYVh6KRZRJrHaLJGagLHMknSgunCJ07zLw4DQxfoolZrukVKp9vk9TdeZ293j08+/ZSnh4d0eiu4bgupW6yub2HbLofPDjk4OMDQDcqqxNB1mq0mpmWxvraJ5zYUhb/fVZPvsqTh2ViGgWVbWJZLEESsbW5juy7z+YKG5+LaDl6jqeiFuo5pWXiug22aFGVOWRQkaUJVFizmM6I4xHFtsrwgDEO63Q4bG+s0Gk08z0XqOnEcI6VGmqQ4jsPOzi5v/+JvlNjnP/Lfl976Oo5Ho9Hm8ePHHB8fsra6zu6VawzX1lj4Pkvfx9A0osWSLE5oOBa9dpPFbMRkdIq/WHAxnjCZReiG4PRsxJOjOeN5RBAkVEVJv6uK77mbe7z6ygu88vIdfvTb3+V7r3+N7735La5c2aPba/Haqy/w7W+/xt27t2h3WjQaLnfv3OTrr73AD77/Ojtbm+w/3sfUDZ6/tcdzN7aJ4oCizOg2Xa7fvMYySDi/mBAnmUolMx00JPN5QJzljMYL4qykqjQ2NnbQNZM0zjAsE2loijlsmRiaTpooxVDTc9GkoCpLxpNz9h8/wrEsNta3WFvfIk1SprMpw/VVDMsiWM5JY2Uk0DRl9E7TDENKhKipigwBlzY0k7oqmIwvWM5GBIsxSTDnhTu3GHQ6zCYLzi8mqhWuVUhVw4G97TZba22u7gzZ3ezy6svP841vvMILd59jMR9xcvKMh59/hil1Xnr1VW7duHbZ9dQIKvKsIE2UGirNSk4uJmSXsDcNqMuKLC6oygrTNtnd2+XFF18CNP70T/8VrW6f1fVNmu0+g+EG3c6As/MLikpFaPhLnyLP6Q/6vPzyywz7Q0zDpNftsb62iuuYnJ2ekEYR7VYHgY7AQEqDVquDadvESYLnuTiOy2w6xbIt2q0WWZoihaDR8KjKlOV8Rp4nlGWBaWgURQpVSZZmhFFIXhS0O21WV1exTBNp6NiORRj41DWYtkWaJHgND12TfPTR+//RuvnSJYRSl3TabXqdLjdv3FA5MZbNwbMjup0u7WaDJBijFT5lHFGE8PHB+xwdPCGNA6TUWBuY2LbNjRtXycuKMi/Y3txkc3WFra01BoMBQkgMw0AYGt1+j707t7HqjD/7l/8rP/2rn1BU8MLd61iGzsrGkB/+6Pt0mj3SOOTzzz/i/r33WSwCNGryNGZjrY8mKyKjIhewujpkuQzZPzylrDXWVteY+yGL6YJOp49peVQ1FETM5iHNZovHDw/oNNtQlZR1yTIIOD09pX39KlKXjEczXNemv7LCcj5lOp3Q8Dx+/G9+zNnZGd//3m8jdQvd1LAdh9H5GVs7u8zHF/iLGTUlRa4cGmVREMcxpqnCgc/OT0jTkEG/j5SgGxqHzx5DEXFwdMydF17ma1+5zn/xB3/Ak6Mz/tk//2945513uXlji29980W6HQ/XNtAFDAc9/uif/FdYrSb+xQl5FtHvD/nlL37Nn/3pn/DGG29y5/nb/OiH32U4bJNkFQ8eHvCTv3qb+589QpoGRVGrAtUAoVEh1Bu5rtCkzmg0JQwTfvLjn6EJnZWVdTr9FYYrW7h2i48+/pTDk2M2d7YZDoeKBVWoHJsgCAGNosxJkoCzs4Qsj2i4Dp7toEuVTpcnKY1mk7X1VQXHk4JWaU30OgAAIABJREFUu81yNiP0XRXUnOdocDl88kmSUCFUy5pms4lhGkgpCeOE5XKG7TZotNqcnJ6qp5YuqeuSzY01er0eo9EIRIWhSYo04/XvvMnbv/gZjx8/+A/XzZd9o7ZaLRrNDnGc4ngeTqNJnBQslhGWYZKEU1wzZWfd4dp2k50Nl+31Bl+9s8uP3vo6f/h7b/Jf/uH3+d0ffZc3vvsav/e73+N3/8EbvPLV22xt9hj2XBxbp91pIg2dJM0w3Rb91U20quQv/+IvuXfvMesb25yenfLs6BnvvvsudQ3PPf88YZrw4P59zs5PCYMljmfhujZFUZCmIY4tef755/BafX753seM5iG64QEmZVGjSYmmCaI0ZhEGWI6L1/RI4gxdM4CalZUeasAq2N7cwDIlQlT4S0X6s5ptxTCyDUxDZbRMRlOu37hJo+mRZinD4QqNVps8zzGkRZbGxPEc6pKiqMnzkrLKkIaOlAbz2YTQnysV1WRCnqe4tstofMF3v/Nbqt2tS4arXVptj2B2gV4HfO/1V1kZDoiTFMO0CeKEWRByejZiY20HtzvA0mqEQPGT4pggDOgNeuRlRqvl0mk3+L3f/x3e+t7r9PtN5r7P2dgnr0qEVJ5X6hqq6tKJkrG1tUNZlLzzzm/Yu3odt9Gm1enhem0Ekvl8SbOtbjt/qQDhtuNQFCqVztIlaazgaFWZYtsmUmpIqV2iW0t0XSPPEoo8o7xMKyjylDRWw6Jut32pF5agqX1rXuRIw6QsKqQ00S0br9lG6AZZXuDYzuUwrmY6nTBfzInCUMWseK4iLvo+tm2r5IYaXMflnXd/9R+smy+9UF3Xo9cbUBY1aBqtVod2q4dtu6RpwunhQ3Y3LN76rbu8dHeHq7srXL+6zosv3GJvd41O01J0QKmYOr9451e8/Yu/4f6nH2KbgrxIqepSUd3TjBqdGo1Op0MaLPjpj3/M6ekEx2nSajc4PjliY2MD27Tottv4C59/8d/9Mffv3afdUSob6hxNK+h2m3Q7DYbr6xTC4eB4RLM9ICvUAKSu4OrVK5i2RRCHLC7jEkBQpDmu4+I6Nrou0HUDz2swGPSBElGX6FIwX/joaJwcH2KZJps7W9x+/i77+/ucnp7y2muvMJ2MmUwn9PpD8sv+sdft8OjRp1RViec2MU1JnicYUkOXkpqSwJ+TxInKjrFt7nzlLoZl8vjxU1ynzen5iL/+m5/yP/7xH3N+cqx2ya7Nk2eHTJfqWVJWNVlW8smnn+EHEXu727Q7bUbnpxwc7NNotQjjlOVySafbZm9vl5PDIw6fPeWFr9zllZfu8oMfvEmv6/HRRx+TJAWivhw5o4QCju2wur7O2dkZq+trdPt9HK+NNFzarS5pklIUBe1uh5XhCqB2poZpQVXhNTyajRZQY1kS27Eoq4Ioisnz8lJRJShLpVVOoojFfE6aK1JIWRbYtqVoGLpGVSmyYpamuK6HabuEkZJhWo5LLQTNZgvHcqEStFttOpfe3aqu0DSBoUs8z8VzHOIkgqqmzFLKssQ0TU7PThmNzv+9dfPlF6rj0mn3WV1ZZ21tE4HEtVxswyBNQhwj46u3B6x2JUUeoIkSKQWNVoOL0Tn7T59eokIMPvzkUz789AFhmHDz6h63n7uF1HUc18M0LYqioihrRFlhVAUPPvmQd375a84vFsRpju2a1HVNFIaMzs9ptJp0Bxu8/dMP8JcB1/a2aLg6rlXjujrdbhPLsvHaKxyc+xwcjRgM1hDCIMtLLMPg+rWrzBdzbNvBtg3iOKAua2zTRJcaaZowHo0wTZOv3HmBjY1NHNdhsRhjGpKV4SpxlHB88hS1fdHo94ds7+xyfnFC4M+gqtCFgeu2EJpkMh5DXeDYOsFyCWVBw3MQdUkc+SBqLNtE13X2ruzQbHggJdefu8XVGzf56d/8it+8c4/3P/icBw+fUmQ5/X4HaduMFwHFJTfI0CRlXtBwPVzP5dH+Yz795GPyLMO1TcoyJy8Fnz96ytODA65d3aPMKzzX4/z8lCIOSaIFJ88ec+PaJpPRlMePTmjYDh1PBUkVZcXa6gpcii16K2t0h6s4bhtTd7ANCwGEUUwUJ2RFQhD6ZElOv79ClqZMpxO6nR6Nhkuapui6SZ4VVKW6KKiFAnULjTzLsSzji3T2qlK7zyzPSLKYLE/RTZ0sz4jTFNO00XQDoUm8RpNOt0NZ13iOw3C4ius0cRwPANMwMC2DVrOJ5znUVUmr3abKc5bLBRoatmUzGPSp65pPPv3o3yvY/88yTFpZ2aDhtUmimDRJqYqSPI1oeiZb6x7PXe1iGTlZGrBczL5AW16MLpjPZpeG4ZonT/bptju89fp3ee76HlmaqMAh3aQqa+IwYnR+ThIt0aqCjz/4gM8+e8LF1Cevas4vTnAdi6pUbpnz01NOjs/55N5DpFaxsdal17Hp95roEpVv01ulkg5//q//mtlC2arKsqIocgxdQ9c0Fn6A6zbwPIeyKGg2m2iaRlkVlEXBoN/nxRdeoNnw6K8OabU9zo4PmM8mtDtd+oMemtTo9fsUeUmSZHS6HYoiY//xQ65fvcbe3lVsx6HRaKBRkcYBw36fNI4IA0VcLPOYNI3wbBNBhSU12k2P0+Mjkjxjc+sK9+494l//5c85P1+QxAW2a7O9s4VuSuZ+QFaj5HRCIDWJqRsYuq52t5ogiiM+f/CQOI2xbA8/iBCapNdp0e91GY2nWKZNv9/F1JV88PDwGaPRiMl4znwW0m53WF1ZoddpY1smUhM0mk26gyHt3oCyEBRZRZaknJyesPQXzBYTojhgNhnhLxasDFZpNjzC0Ge5WOI4Do7tYpoWUpNkqUoq0DQdqV/OL4RQ+9JaIVOzPLlMH1ChWlWlxApCamhSh1pDN0yGwxXlN3UcojjBc5XTyLZsXKdBWRb4ywVFnqFLSbPZotVsqugNAbZtslgsMC+tcrouWVtb5/DoGSenR/+vNrgvfY/qeW3W13YRtcZ8NseQOnEcEvpTFrMT9rbarA9ckmgOlFR1hW7oWLbJcDik0+ngea5aHBcFHc9ja2MVU9eU7EtIqrwiT1LyLCVJAkxTYz6bcv/+Iw5PppxczBCahusYxIGPqAXtdhMhJO9/dJ/PHh4yHHTY3eyxvtLGNjVs2yOIc3qr23zwyeeEYUqnv8JkvgRqJGrsn+apAp4liksUJ/Gl8ihXp7sUtFtN1tdWaTWbdLpt6iKlyGKFL9GUCbmqBY7jqjVPnFCWJVJURP6CJE6U1rSGx08esVjMcF2LYLlgd28PfzEjTSPFL05DPMfE0iVJ5LOYjjh89hTXbWBZTf6H//5PePjwEF06pFmK65n0hj0WfkBaVtRCiR3EJVFBkxqe54G45AJLHaTGdOEzmixw3QZXtrfodpukacZoNENKnTCYM+h1OT054cOPPuXXv7nHYpFgO+r3FWWBZRp4joOUBsO1DbxWB9ttkYQpjuWQJiEXo3OSXN2iUqtpNDzWVlcU/dBU71CBYHNrk7qGPFcZrtQC0zIRWo1tWZiWUktVVUkcpRimUnHlZUElhJIS6jogiOOUqqzV29eyWVlZhVrpn7M0xZD6JVJU4vtLwsCHuiaOIoqioBY1rVYTx7Gp6wrHcciylDRJMW2Luq5wPY8kiXn06AFZ/v8MKPtSp7627TEcbKILncVsRpJEiFo5EPJkiSgmdN+8QaPpkukelglSh1poaEKgCciyBNty8Boe0/EYQzep65I0TUmzkqwsmM+XJHGM51qYes3B/kMePnjKfFkSpTlJWuC4NS2vRZGlVJVkPk8JowVno+UljT0FAYZuogkJSOpaJ0kr/CDiyu4VlknJdBkoDlFdUFKhVSW1qKjrkiSOSJNUYU6qGl23aDRa5EXGyekxe1f3sHSNxTzEdhx6vR5St1nMl6RxjOwYWE6D6XxOmkVUVcGV3V2mkxknp6esrq4znUyYTsY0v/oiT588ZnNrndX1dQ6ePCDPUvzFgros6LRbjMcXlFXNcLDCoNvj3sf32H98QLPZIYoS4ixhaHcZTWf4cQqaRKNCajVC1pRlSSYEyyBAaBoIoVLHpXpC+EHM8ck5utTZXF9T4PHlGTevt6AWPNp/xPsffMDDh/vMljVFKWn31qiEzmg6Z7acYRk2mmlhOB5Os40QBlLT0aiZTkZEUYBndBgMB6ytKNeM1AxAw3U88ryk026jS0jiGLjsBqTEMCRSCoRQAo6iKLFth/oSoxqFMUJqlEWFbirJa1VWKrLDVCjaLM2Yz6dUVaUm7JeOmSJPGY1imo0GmoAoihhPxti2hTQ1JrMptmUCFQ3Po9vpMS2nWJaJbkiiOOH2cy9w8+Zt3nv/1//5ClXTJKur22xvXcWUkjwJSaqUxTykrktOjx6xs2pyZXuA1EoMw6CuMzShIS7fD2mSEPg+vh9wZXeXjfV1hGZQVrCcL5nOfUaTJWmW4rkms2nKeHTO/XsPiBMQZoda05BSokudIi/x/Zgkg+BSRhfFJYapY9vGZbYnpHkFeYZuOjw9OKTbXUHqDuHFGb12iwpBkZXqFnRdiqpSJ3lWQlVgmwZJnFHlFa1mG8sU5EVOHMdkjoUhJbVlU+QVtusxGHicHL3HyuoaTqNJdzAg9CfEfoppmvQGA8aTGZPJhJXBkF6vRxCoQn7y+AFra+uYloU/L/CDiIUfgCZIspzNzV2uX7/NYhlwdrpPkuboosCPAvqDLm6zwdl4TFbVCFFiCeVZFWgITUBR4Oc5hqEjDQMhJBqKXGibFnGc8ujxM6YTH+MycrEWgkGvz7/8n/+Yo4MTbtx8kWFp8+jxIa5rs4xTFn6AFIJW06Y9WEMzTMpa4BgmdVmqJ0wcYeg6K8Mhz9++i64bzOdzdN3A0C3yXIGypZTEUQAILNNG0zTquqYus0uDvKAoa6oSdMPA85zLt6xBBfjLJcMVF01IirzE0E0M3biUQ8JyPkc3dAzdUJSKNPlCsmrbpkoXqAocxwZqqrKgKArCMqfdbJLlGY7j0mqXRHFIHZfous7K6jpfe+1bPD14wnQ6/nfq50tofWsansva2jpra7u0Wm3KPEVUGUm8JPCn+MsZ49NjXnlhh9e//TJRPLu0SQmoFVtWjfAvT0bdpMgL0jhjMp0xnQZkWUWcFcyXS67sbmFK+PCD93j69IAsralqkyTXKCuNNFFUuTzPWPoRRSkwTRchdIIoxnFNbt9YZ29rgFZDECYYtovuNHi4f4JuN/F9NaSQmlTKEiEQtcAyLXRdkkQhpmFcLvtTBNButrAtiyxN1RCh10PWYJsmjtdE6iZSKkF5XirCQJKmivurS5Jwib8cw6Uv8t4nn2IYOq9+69s8evA5WbJE02p2r+wxm8147ze/YTyZkRaQl5KFX7C+cZWFn/H+u/f59N4+R6cTllGEbuiKVZxnxFlBVtbUlVITQa1M4jVompLHIQRVrXTBWoWS5mlCHTplRRJHzBYzZospV6/u8vjBxzx68Dmu7dFsD4hTCOOMRrtFf2WdKFWhUp3+gP7aJivrO4zHUw6e7tNpNJhMRgyGq2zvXqHfG9IfrKIbilmUZRlCSMoKms3GZQxHCZUqAJWTaiB1SVlW6rMIjbKsLlcyhfKemqYiM4Qhru2hawZ5XtButml4LmmSqvVOUXxhFjENhU1NkgSo1M8uSzSp0Ww1v5geNxoem+vr2LbN2fkZuq7TbrfwfR9/uaQqK4qiYmNji9HojKPjZ8pi+GUUar/j8o0Xr/M733sdt9lnMl2SJAlpHKDVGfPZOWGwwPfnDHsN/vEfvMmVnT5ZruIIq7IkjlNmiwVJnGIZJo2GR7PpUeaqxT05OaOqa/wgxA9CNjfXSeKAD997h9H5BWlWYpkOpuURp1DVEqoCXWr4QYiUKuDXMEyyIicIQ9ptjxu7fYYtizCMSdKC1a0d/CRnEeaUtUEQpqrtutybJkl62QoJTN1Al+oU73U7tBseZVEwHPQxDYOLiwvSJGXv6jUMQ2c5m+LYalKtmQbUFUWVYVnGF4T+VquDbgim41OyLMPzGsqUEEVcuXqV+XjC0bNHrK2v0OsP+elf/Yyf//yXVMJguog5Op1zdr7kycEpH917wLNnFwRhztnFhGXos7I2AARBGJOWJRVgSF15QCv1lpNCwzSUwLysKspKtX3i8q1X1ZUaOBk60uALHm676fLZxx9QFwWO02IZJPhRQV5UZEVJpzdAGg4l4LW7FJXOjZu3EcDP/vqvWB0O2N3bY+/6TVZW10mSnPkyoChr2t0utVAzBE3ql0A2j6bXwF/MMU1D7azrmjTJFMgNJbBPs4SqVgC7olCfR0qJ6zgUpWJbWYbN6toqTc/j/PxMObl0yd+Oe/JMva9N06CmJk0TyqpQh5ahbndTVwnwruuQ5xk1EPiBgpULgajrLzCulmVjOy77Tx//O9TC/19a3621Nj/4zotsDFz0uqaSgmC2oK5qJrMpriEwXUka+ZRpyOZKn9s3t3nxxZu02gam0WY+n7NYLtANE11aRHFCXU9puQZ1EjHsdEijiLljcv+zTxldzMiKkk9NlSqdphF1DVlW4Jg2K8MOmlHw7HCCQc7e1Wt89Pkj0qzANiVlmREnMUVZ0G67DIddyrKgrARZWeN4LfZPn1LXSsgtNIP5MkDTakxDp9Nuf+F/pKopi4rJfIZlW6yvDul2+mR5zunpCY5rMRz0mE9HDHvXSBOYL6fYWQhC4Ng2p8dP6fUHbF7ZJQ0iijyj1e6zunaFIFhSFQWuY3P07Bl//q/+N9566w3uf/IOtm3z4PPP+OWv38Gw2+Q4lFrNytoaN27cZG1jh15/QLfR4OMPP+Lov/0XxFmEY1mUdQ2aTl3mlEVKXlXkmkZdl5imget6XxxKlmVRlyWGbiCoqQWgacRZQlFpSsQuwDEs/PEcrZb0++tkqcZsuSDLleQyT3P2n+wT5jVoFrbTIk1qFpMlg+6AN777Jpom6A7XWd3YZjZfInSDbq9NkmbEaU4YpsRaha6bzJYLut02TUeimwaarqmfkxfEcYKh64pggWIYB2GARIImiJKYZrOBoRvUNSwXIRoWSRSRRhVUKMZULVAfWKBbFl7jkv+b58RJRFGUVFXNYrnAMgw0z6OsJMvFBNPUGQwGnJ9dMJlNcUyLJE6wLIvV9Q10w+C5m3e5dvUWFxdnFIXKsPlPdqPqUnBlo8Wrdzb46nNb/KPf/yGuYzMejRlNIu4/PCKIM5I4RqtzqiyiSCNWh32GvRY/ePNbXLky4LN775OnOWEQMl8ETKZLRuMZ/mKJYxmYWsnp0TP2Dw559zfvs//4ERdnZ18Q5pbzANNy0E2HNC1BaPQ6XYbDVWoszi8mBMspr7/xOkEYMB5d0HA90ORlLEHC9b01nruxiW0qA7LbbDNc3+GTe58jpYPjepS1cv7neUZdVZiGrji48rJYa0FSpISxIq9LKbFsmzAK2d7eZnVlhc/uf0qz1aLVbhNEPoYhqYocQxN4nkVZVjSbHTQhmIwv0IWkv7ZOo9lidHZKVSqCwQfvf8Sd52/T6bZxHIf333uPIq/54Y/+ISUaL73yMm+++SbbuzvceeVlrt15Hq1SSWm7u1d4/OgJJ2enTKZzojjDtm0c2yJNE7Isw9ANFXFRVZc5M3+bXQOmofazUkryIidJY7IiBwRaLdBKQbico4mKYW+FJNaYziOSLKcWkjQpWIYRaVnTbA3U92s1OD05JvAD7ty5S7e/Rhin+GFCHCfMl0vG0xlBEJJkOVIaGIZFhWA0mtJoeCRRgBA1um5gmTYCiZQ6pmGog7QsL7EqIUmSoelSmb1Ng7ossEybIsvIi5yLi3OWS7Xy0Q1VxLP5jH6/j2GaVHWNpklMy6LVbNHqdHAcl6qs1NvdMmk3G1iGhhAVZan+XHEcYxkGVZ6zWCwJQtUV6rrBoNfn4aP7X9yqf+9CFdRc3+7zX//hd/jdN17G0qGodNqDm1itbYTZRjptHjza58OPPyJNY5q2TrhUX+gPf/A9NBJ2NvscHh3w/ocfkqY5xycjzsdLJWoPYhq2gVZlHBw85eN7n/P++59xdjZVp1haEOcVVWWSV5Ky1slLjTivAQOhmaRZTYUkjCIePBrxzW+9yg/f+g4P7n1CmhZomnob6iLl+eubbK72MHSVxbK1cwWhuxydjRn0h8oJkcXUdYmuaYo7lGc0Gw6ea5MkKVGWKoxHWWGYBlEcEyfq1wxTxTJ2Ol22dq7Q7nTJshTXtel1OhSXIU6Wbau9nhA8fviA87NTtjc3qfKE5XRMq6lofUEQ8ItfvM2bb7yJ53n87K9/xvVrN9nc2sHxbL7/g7fYvX6dXn+AKQree/vH/F9/8SfMJmf803/8T2l1uvzvf/5/4vuZyk0tctyGQ34p5pe6ThiERHGksCPUCASakGhSvePCOCIvSvV/hEAINW2lLplNRrzw/A12t6/w3ruf4fsZQtepa0lSQKUZlyngDrbTZLmccXDwlChO6PdW8NwO80XIdDrHdRv0+j1832exXNJseCqRTgi63Q6TyRhBpagXuTqoNakjhM5gOFSk/1Dl68RpRl2h2t6yptHs0Gi2KKuCPFdm/qJISfMUTdepEeR5hm07hKEiFXrNBlVdEQQBVVXhNhpkWY5juTSaDZIkJs9Sut02timxXZMsL9R+F0GeZbSaTfI0JQwjbM9mZWOFtZVVHj1+wNGReqv+vQvVtQxeurmKXiXkpUZ/5Qob23doD28yjwR+XNJb2eCVV7/OV+5+hc21NQxRMjk/J8tiLi4OefzZJ6yttgiWaq+q65L5fEEUp+jSxNLVaX56csHnT454drrgfBxTY6GZNtNlQFrqaLrLZJFwcjFnHiQslxFBmOBHGfN5gCZ1Aj8iCAI++viTy8V6mygpCKKYoszpd11uXd+i5ZloEmUCWN8kSGv8KEdq6m2bFzlpnKAJ0AQ4tkXDc9E0QZzmLMNQGa6lIEkSirLEXyzZ3tlk6c+5OL/gtVe/xrVrN3HbHbyGhes6HB+dEvohgR+Qpim24yKl4PjokKPDQ1YGfco8Ic+Sy0GJZHt7l0ePHnN+foHrumjSoNnu8G9+8hM2t9bwGjZxGGPqkrNnj/n83nvE0RxNCFZX17j1nOIyvfzVlxj2B3zy6X0m0wWWrWIU0yQljlPqulSa4AqkbuC5DUzdYBkERHGs7GCGemvVda2MAWFAo+Hwg++9zmg05Re/+BDbbaPpOkGYEKQF0nDxWj2itODs7FyRDU0LTTPoD1Z57evfpMhLjo6PqVFFkec5WZqiaRqmZVIDF6ML4ihg0B8gakiiFFGDv/DJsow0SZmMxyRxQlmVlFWJLhWwuyxQQpmqpNHwLn9GxnLpIw2DTqdHnpfoUlKW5aU0FK7sXaHVbHFxcaEKSihUaJZmWKZFu9W+JDYqlrFlGuptnqRYpkXgL7Et5dJJs4TB6pBr1/dwbIc8K/ngg9+QZel/ghtVQMfWODy+INd7XLv7bRqDq5xPQvJaQ0gbTbfZ2N7lt775W7z60ldZGbbZ3uqxs71GFEwwRESnoWMZFZYpsAwdUZVUaUyWhEymUx48OuKz/REHZzHn04JFKBkvc5JCkOSS01HI2SQgrQySEvJaQ5cORVaTFRWm0yAKUy4uJmjCJE4qfvbuZ9z7/IAkVTedJmB9rc3GWgso0U2TVrtJuzdkNIuRhqOM4EX5RZtclRmGrmHbNrZlowlJkqeUtUKMaEK7HLJo5GXJ5tYmVZkThQGDfp/1rR0sx0WUBScnR4RRhNR1Njc28f0A318yn80osozVlSGthsfF6Jw4CogjnygMuHbjJrUQ/MVf/B/cunUDKU3e/sWvuHP3Lleu7OEv56TBkvPjA6o8ZrXfI8kKLMdl0OtyePSUTq/JD37wXfodj9PTE45PL0ATGLYkimOlmy5rtfeTBrqmUuGEJhG1wDR16qqAqsazHaQQ5FnKYr6g3Wgi65rQz7iYBCA0agFRVoDh0Oys4AcpVVXT7LSxbBvPa3D79l0Wy5BPPvkM3TBZ39jEskyOjw45OHiK43r0B0Nsx8VzbdIkZj6bYpg6dZGznM0o8lyhR8cXBP6cokjRdHEJkcspqwrbcWm1OwqGVpUURcnGxgZSN1ksA4TQcOwGUjMwLEuha6iRhmRlZYVet09RVJimpToNTamY6vry+zJ0qr8NiC5KbNPGMiyo1VMiyzMazQZCaiyXC+qqotVtY7keP//ZT1gu53//Qq1quHXrOX7n9/+Ib73+e2B2KSoTqeuXCAwNy9JZTEe8++uf88Fvfs5sdEDT0+j3Gzx38wpvvfEtomDBw0cPMQyd/FLRcnI+4dnxhKeHY05GIcejmNmyIM40slwQZyWT+VLhQDUTabjUQqfW9C92a1LoZAUEQcx8tlDaU8+j2x1gWBZ+FKkb0TJxLZ2djT4r/YbSf+oGvcEAr9VmsohJM7WaqIVgOp2gSw2paRiGxNA1pJAEUUCcREhDu9yhWjQ8DymVETzPEmz7MjHb9dB1Hc9zGI8umIwuyMqS2WyOY5rKDjhcIbhUu7RaDZI4Is8T+r0Ox4fPmM2mXL15i+FwlT/9k/+Ffr+PH6b88lfv8fob32V9dUiZZxhSYzIe4Vg2R4cnIDS+9rXXOD58iqgLrl7dQ1CRJAGdTofxaMH+/vElmVCiCYnUBK7j4jk2lmFCLcjSDEPX6fdapHFIMF9SFhW1qDBNjSgIWB0OsDSdw8MzwrgkLyFKE5KywnBbtHsrOF6b3nDAV1/+KrbtAQYNr02r3cVfKtG8psPpyTFprjS3nc6AJEkZjUckUYKgptlsKYN4nmFbJrquqV1nllJT47hKdqlLlYAwnUwJs5h2u40QMB5fEEXhFzOFdrtNWdZITUdKnSD8t8l77U5bkQZ1nXa7Q55lZEnGYr6gFmCaJlmeY1qmWg1lMZQllu0gNTWU1KTGfLEvVD1tAAAgAElEQVQgSmKkcQlVKyGMIgzT4N13fslodPH3K1Rd19nc3OFr33qLtZ3nQHPJsgJD17iys06wGPPk4cc8/PQ97n/0K6bnTxDVAlGHLKZnLGbnWAZ4ro3X9BC6xcHhMRenIw6PJ3z+bMnxOOV8VjIPaspaKqWKbqgViCYp6pKiBKHpgBr+FElKlmbEUUISJ+RpTp4U2IZJr9tRImhR0W43WR12Wek2aboWtglrwzYrgxaua4OmceXaNSy3xXKZkZdQCcHSX+A4FisrA5XKXZZITWAYEl0XBLGP1DUsXccQkF4OnKgrpKwYDtqsDPp4js1kMsJ2bQxN8Mu33+bR/j6tdodep0ueZcRhSKulrG26ITFNk+ViSpkrlGdRliRJyvraGkkc8/O33+b55++wsjpkMrrg6t4u9f/N2Zv82pam+VnP6vu11+5Pf87t40abGRnZRRauUroKyqjKxpZQlRCSkfAEhAR/Qo4YwdRiiBFITAoJI1lCNnYaV5GZlRWVGTciI27fnXb3e+29+pbBtzMkhACb0dEdHemevdb+vvf9/Z6nqbEMi3W4YRvFDAZjYVxzbVarGTdX13S8DvPZlKYu6QY+rmsxmy05v1zsHlSoqWnqajc805BbmbIokJSGW6fHGLrCarFElRWaVoDQ2qbi7u1bqJLKfB4SpzVhLFjLXneAavvMFmt6/QF7+wdsoxhZEp+r2XzJ54++JOj4aBpMJtdIMnR7XdbrDfv7RxwfnyJLEr7vE242Yk9flcRRiG0bILesww0NQqEiK+JFq6k6ruMSrkNW4Zr+qE+WJazXC9IsIdpuURXhnynLCkWVsRyTqhG+XNu26Pf7ZFnG+fkFlm5gGCZFUVKWoillWTZVU6MbGp5rURWCaqhIUFe1mEJrBmVdEyUpTSNRlTV1WQtRcxzz6NGvmEyu/v8/qLbtcu/B+/z49/+I07N3iOJC0NrbEkOpePnkCz77y59yc/4VhlzgGNDrGKhKBXVBEHgMh11sSydcLtlstuIIiMJsMmOyiJmFLXGh0qBStxLNztDWNsKPWrVif5cXFXXZUBU1RZ6TZxlNXSMDge9wtD/g7p1j3n/3AYcHB6yWC64nEyQZPv30hyhSQxSFmKbC3qjD3rAjjja6weHxLfJSYrGOCaNUxAubmsD30FSZ7XZLmmff7BWrtkXa3WPausYwdNYb0eyHBtc2sHQV1zYZ9bsk0YZwMedgf5/Vas3Pfv5/YJs2H3/8HVbrkNl0QrcX4Lgur8/fMhgN8TyP2XSCrMh0e33quiXdhcPDKGI0GvHh+x8ADVVdYtomh4eHRFHMJtzw3nvvoesKm02I5/l89dXXlEWJ63tkeYHtODy4d49e0OHycsrlxYyyabB0FUVB7FHLmiIrKcqcokhxHAtd06nLCsMwQIJqB8K+f/c+WVLz4vUFtaSzihKivKCWVEyng2l7RFEmThKWQ4sCqN/0Tq+vLxmOhliWgW7olGWNohgcHp0gSTLz2ULsdCUhhMrThHi7Is9T6roly3LKutmhYwsRnrcdNE0TPeOyotvv4tjOTjUp43o+WVZQljWGaVBVNZph4Loepin6yaJsoRLHAqUiKwqm4+B2fCFA1sRp0jA0TFMnzxIBRjPEPT6KE5oGvE4HVdNp6gaalrLIsWwL33f4/PNfcXn19t/8QZUkicFgj4+/8ym/93t/yPHhCbYumKlKW1NnK948/YIXjz/DkBOODzoEHQ3bVKirjKYqMQ0dx7YoyoxwvaLMc6q8JElSNEWj0+lRY3CzzEiyCiSo25ZqRy9v2pa8zMl3vUK5haJskBoJTZFwXZugG/Cdbz3kb/3Bj7h1NuRgHNDvBSxmC25uZqw3W8IkpT8ckKUxZZli2ip74w6DnkOa57h+D9MOmC1j4rxmHads0oS6bdEkieViSZbn4sgiy6RZQZIVKJouwhrxFj8IKOuWNMvQdQXHMlBp0OWWusio8gx5dyQ7OT3h6ZOnTGczUISWoeP66LqOZhpkeY7td9jfPySNU+Jki9/x6XaHaKqOqum4rs3F+RvC1YLpzTUvXr3inQ8+IOh1mdxcY+6C6V99/RvaVuLw5IjpdMbp2SlV3YCu4fkdhoMB9+4Kk/l8tuTqeolCS6/joqh8450xDI1u1ydLM5aLNXUt+pdZXrDdJGzCmP29I3TT5ZefPSIpW1TToTsc08oG9995n4fvfsB8seL167fYtkcn6HJzM2O1jjk8PML1LMbjIUVRsFit8Ts99vePSJKcq6srou0WaDANg8lkSpKEqDKkqWjyaLqBbpo0bUuSxtQNInNdFCzXawzDxu/0sEwT13aRZBXX8aiqhiwrsGzh5HXdjgilyL8VaZskcYptO5iWycvXr0BV8IOAqq5oaQQMzTaE47cWAZC2qQGZoqgpynKXFRCbAMG6kpHkFk2TefL0K16/efVv9qBKkszhwS1+8MMf8+CdD3FtB0NThMo93TC9fM56+hqVmH7HwDYl8jQkSyOaukSRJDRFpqlK4nhDkSXIiMRLWVQCT9lIeH6X/vCIpGxYrLfkeUHdNgLzSIuMiLapqsheSsjILYyGAx6+e48ffPddfvxvfcQ/+Ad/woN7x6zn14TrNa/fXHAzWe6aEQaLcIvtOFRlhqa0BIHF3ijAtnTyqqLTHRHnsN7mLLcJWVnRtDUSLVWe0rQliioJq5kkoagayJI47uhCY68oCkXdECcxjmkQODam0tBWOevVjKJIkWiYTmdomsl8ueXRV1+jmSZBJ+DO2S1BFmwr4jTD7fQxLZM8idhslpiGRr8/oGla+kfHfP3Fr5len1PmGdfXU5brDZrlcXp2B9uykWSYTW5YLOZ0gwDHd7Bsm8OTW/QGI4ajfbrd/u5u2nL//i36fZ94G3J+MaEsS06OD+kGLg/u3+LTH36PW7fOuHP7LuevL3j+9CV1LZEXBZvtljQtCdcx80XI+eWEpGhxgz62F2C7XbbblCTJAAnf79Lp9Li5mVI30DTQ6/X55LvfIk4SZvMZsqyJwEavz2K5pCpLut0OuiECGZZpEK5XNHWJqqokeU5ZNeiGjW4amJbFar1BVhSapuXm5gbTsbEsh/VqhaLKZFlOiyiwZ3lBt9sn6PZ2JnaJIOjgui5lURFFCbYtAHjzxZybyQQJRDifljxNKIsC17HRFJm2aaiKCk3T0HSNqq5RVJWqqkXbpq7ELMC2WK2WPHv2lPOLN//6ySRJkrh9+wHvvfcJt+88EHeWKqPMKzazOdlmhtykdJwKRarFpLHIgQbHtqiKgqYuMEwTzTKpSxlVFVneFpHyaBpQVJOsbHl9cUlVlfS6PmmWoTTg2Ra2YSDtqkKe7yKh4rguvuty984dhkOfUU8jsCs8u+by/ArXNkmTnMVyQ7c/Io1SympLnhVkaU5gKyTbDUf7nhiTl4XgvCITbmKSSmWx2qBoOrIqoSuIvK2kIkninig1EpIioSm/5ffV9Lpdgd6I1yiKhNLW2JqMqbZs1guxO/VtqkpFkmXevH5Dmld0eiPyoiJJU1arFW1dUGclhqYLM1xVousyqiIRb0KUgyMkuWW1Cbm4uCJLU8yOSVm1SJLBrz/7gtu3HvDx9z5GUVWSeMvDhw9xbAtNlun3e2yjiNH4gLJsaFuZ+XJFlkXEccjRccDf/bs/ZhPFPHv2lslkya3TAXdO9/jo/bs8fvYG2zR5/933ePrkJVdXM/zAwXU8irzl1etLquYCWTbxvS6yalKUUCQRcZoTbmIs26ZuZKq6wfM74oSEDFJLrz9gNp/RCbrIiorre1i2zd7emPlshus4pFlM27aMhgOCjsvjx18KoXVdU+QV/f6ANE9ZrZaCBCGJ8rjlOJiWjSTLTGczkmRL04o+bKfTxTBNyqokSRJaSVQU67oBWjodH9t2hYMmTRkNBsLYsF7jWRaappAlCaWm0O91kWSVsqqQZIW2abBcQYdoaSiLAsPQkWUJRZbYbjfM53MMw0CS/jUjhJqm8+FH3+Xhw484PDjG9z0MTaLOI4p0zmryDJWUUd+lKCOR5aXCMRWRBKGllmVkWcXQVXRNJUtr0t3bpkXG97qoms18FfP05TmPvn7JNiuoGqjrGk1R6Xoee6MRru/jB13G432G/TGnZ6ccHB4Qbdc8e/wFk8mSrZZRFX/FeNAjzxuuJ2sURcfZ7QWrpkDTYLNe4BldTEPDsXR0QyXcxOiWzTpKmW9qWtUFWUNWVTRVUOgVScTfVE3CUJUdGUAEyxtJIkkijsfjb2DMvmvTcTSUNkNuwLUs3NGISsj6kGWNzTamLEvOzs4AiTev31IlMe++c5e8SHFcD/KYtEihqinjmNevnyMjkZfwj/67/wlDUwg8k5/9/BFFI3N6eoqpqfz5T/85vucyHgYMRmPhslnMaYqcVgJZM6nKggoVRZa4md5QlxnbzZq2KdFVnR988iE31zMePzmnGxhcX5zz1NLRTJ8kDjE0iZPDQ3795XOiaM7e4RBJMiiqmPUmpj/w2D88oTscc3U948nTF4IAqJtU9RbD9NB1A103eP32nPv3H2KZJlfXV8RJimnbqIpK07ZcXJyLyb6uUlYFhmFgGDqO6zAw+0TRhlevnlNVlTDeNRVpkrAJN2i6IV6usoSiiG+zKI5wPZciFy2qum7YbrfIikqcJFRNi2M7yKpQckC7C3uI4jdSK8roOzM7NKRpIQDrQJoWOLaGbpgs50sUqUHWpN1kWHCUqZrd1UFlG0W0bcve3gGyLP9/H32DYMDf/vf+lOOjOyiKzumZMJptVlPyZIlKgme3BB0NTStpmxzH0ul6ProiocoNqgyqIqNqIjeaZSlJloojRquQZhWX1wuuJyuevrjizfWa5SZD1U1c12c83OfO6S1un93i8PiE+w/e5fbdd7FsnzxvGY0PQRbU9024Jktz4jhjOpngODZfP33L4ydvMU0L17GJ4i2N3CBRo2syJ0eH+K5BN7CwLZEcsf0BYVqzCFMaVFTNQFFkZBHmRVN00iQhTRNkBXRNFvoHWaFFgJl1RScvCrabLYPAZegblElInad0g4B+byDutUmJotrUrUxe1rw9P2c8GNFUOXkWURQJeRYTb9Zk0ZoyjZleX/NXP/8Zv/jFz/jqyyf88pe/4mc/+5w0KcnziqqR6Pb63L93G9/VePX8OV9/8SWqqnDr1i2apma1XPDq2XPqsqBua/ygi+m4VFVBsg1ZLRYMB32uL9/y9s0bdM2irODxixt8T+f0cMxqvWC8d0A38Hn98gWO47GJMhaLlfhWlFSmOzvAaO8I0/G4mS5Zrjb0e32qXXhAVdRvprJpmrFerTg5PcGyxOCm1+/jd3zyIicvSsJNKIoOwyFBJ/jGAJ6mGa9evkSVZeJ4y3w+24UwZBHlVFVkVYirfM+lG3TJi0qsXcoS3RSEQlkWeg9ZlmloqRshj5KkFl3TidOY7XZLWQnmkaaJl3WWZazDFZ7n4nousqLguO7uC08EHppatGyaukTerWmEiSBlG21Js4yyLOj4Ppqu8Vef/eL//UE9ODjjT/70P+bo6IyXr15h6Ca9Xh9NV6iqHFVvyYuUMFyRpTF1WYp1RByzCUOSKCJKRMqmrgTXdRvHbKKEsoQ4qZjMt7y9WrMIC+K8Ja9lOv093vvgIz7+1nd4cP9d3nvvI957/yPu3nuI6QbImoGqaCznC7IsF5PAHSiKtsY0TWzHIQw33EyXXF8tKYuGtoXFesFqPScIHG6d7RMEDnXTIEs1x4dDJEnsDQ23zzRMKWsFRd25TNqGlhoJKKqaqq3IipSqKUXNTZKp65ZGUpBllSwXwYaOqTDwhVXNdU1kqaWpStpWvD2LqmW7K6FPZgvKomJvMMQxVZS2ZL2YEK/nJFEIdUOeJLx4+pTpdEqSFrx+M+HlqwnjwQlxkqEZGvfu3+bjb7/L3/zxpzRNzpMnX7Hdbvj80RfkRcnDhw8xLRPH8egEAbP5jOVqxWDYQ5OhzHNc26Ysc968es7rVy9JkgIknavpgukiRlPEnS2KIjzXJkkibMfFMm0WyxXrcEuDQtW0HJ4cMz444tXbK7ZxhmGa+B0fSQbTMJBlhYvLK4qqRJEVtttIWL/HI1zbJU1SsixF36khaBuyLMM0TLIsZTIRyaDTkzMuLi93LKKB0CnKmogeDobYjnhoiiLHMi0ODw+p6oZws2GxmFGWJcPRSGBom5pws8EwDHTDEIJkVQDL8jKjE3QFh9l1GYyG3xTFm6YFSWY4HBGnKba7Ixm2DZZuYBoq0OzuvLIIROxmML/VWPa6PUbDEUma8Mu//Iv/pwdV4tbth/zu7/0tJFnn7ZvXHB4e8e477+HYFpICjm2J1IWqCTJdXpOmJYt5SJRkrNYxby5n3MxDXr294fJqyWIVM5lumCxiJsuE1bbGcIb4wxOGR3d48O63OT57wP2HH/DRRx/T8XvIsobtdTAtl6xokTUD3++wDTdkaYbt2CRRhGO7YgKsKCSZIJjnVclivkZCodvt00iw2qxIs4j5fIZliPH8xcU13a7L0X4PmQZZVagVh8kmo0Esun87XKnqkiRLKKsSTdd3yRMNRVF3pAEx7gKFqszoOAbHww5KW9A0JSdHR7i2w8tXr5gvliiaQVnDJil4ezXh+nrKB++/j2nIVGWKbSgYWotlKKiSxGoZMr2+4urygqJqcdwey1WK7/bxvA5NU7J/MOC99+7z/vv36Pc9HMfk/OKNcJ+0Ek+ePGd//5CDo0OSJKHbC/B9n+n0Bs/SURWJqigwLZM43pInEYNuD0nSSbKKm1nIYhExXWxZrZY8fXZOnEScnZ3QD3r4vrBzr8INk9mag+Mj3vvwWzTImJaL43iYpsXJyQmGoTGZTlmv17SywMnKiorreiDJjEYjzt+8FaImXWc0HKKrKkkcY+g6RZ5zcXFBpxPwzjsPqErxrWeaJqqqUpQli8US1+/QCXooutBaiAzynKdPnxLFMfsHB4I2uA7xgx6O4+I6Pt1uj6PDI46Ojzk8OqLf79M0DUG3y72793YZ6JQHDx6gGxpVVZLlOUmS0glEAysvSyRVwtQNgk6HoshElbGoQJFRVBVJVqBlRyrJcR0RhonjiM/++hf/9zuqYdjcvvMup6f3sSwXz7MZjx9y//59AQ2uCpAsNE0miTV03cIwfcp+TlXmpNGGti0oioIgSdluY2RJEckSWaU3GIh9qaoRdHscHZ+SFxWqqlKVoqCsq+IBqqKSslFockHTq8qasilJEwPLcXBbKLIEx3G4ns3wg4Cz0/sE8YonX/0VpuVS1hJ5WmF7PXxNZ7A3pi5Tnj55wjZuefX6BZJi8cm3O8hti0SNZXkkiiaOo3VFnEeoqoptWlSpSI6Ypomh6jQ78ZEqSUi/lQlVDXVZMPRMhl2HtsyQJQWVls8/e0SRJzh+gGJYxFlN1bRkZYOiKuyPAxS5YLuNUZSabhBgaQqyVKEqJnE6E66TPGc627DcZHhej80mIk2W/Kf/yd/nqydfcnx6gNfxcTod/G7AH/7hv8s/+1//GfF2Qrfb5b/9R/89/8V//p+xv9fn6ZNHOJbB0f4eTVWzXsyoqoIiL1CpORgNWc5X+N4ehpXw9OWcNxdzwrQmvhLUvGX0G5I05/d+9H32Rvt88vEHRElOXr3ANB103SZfZ0iKwvz6RmgnXVdA0Qyhowi6PSRFIggC+r0RddvSNA1ZnuC4FmWec/H2LYZpkCUx69UaWdHYPzzCMgyW8zmL6RWz2ZSiqVE0lW24Io43XF7WXFxf0+31cWxTrJiqlKJM0GpTxPY6PYbjfcqiwjQsXNfn5OSMqq7FPdiELM/pdLtUlQia1E1L0AlQFBnbdnC8Dr26QY8iiqrEdlziNKFIc+K2YdTvYhg2yg7vk6QpLQpV3ZBkBXleIbUytuWiqhqj8R6maf9fH1TX7fH7f/B3+OST77NYLnBsm7t37xJuQrIsoZIl8jwjy3Km02vqssRxbZq65eZmimVa3Lv3EFWTWSwW3BoJR4ppWqyWIeE6xHF9TMcm3ISsw5CbZYHnuuR5zcXFOcf7R2w2kaiXOT0U2WQ5n7FeLSmKAlVTyNKUJNE5PT3Dd21M0+Tr58/RTAdZtSjLudjzZRGqJBHmObPZjCiJdoFvlaqRkSSNvKg53Dfodlw0TUaXNWzTIExzcSxRVVoqFAXKPKOuSgzdYNgfkOc5TS0W2ttwhSSDJENdFPi2Qcc2ketahDWamtl0yfn5W4Jul0YXmdj9vX2SOEEqKxpFQ1dkhr0OT569YDjsICutaLKUObbp0O3WPLm6Ic2K3RVCpgi3ZFnCf/T3/5RPvvshURYiKzJZUYKksdlsaRuZv/3Hf4d/+r/9C7549DW+4/EP/+F/w3/1X/+XfPs73+Wv//LnpFFKmiZYtsHjJ7/BcVz2x/vYuriPx2lOlrSM+n0sRaVCZrg/wnZMDva6bOOQq5sZpq6yXMXouiFM4FnB//6v/gJZs/D8rnDFdh0UVSNazoljoYFYhxtG+z7RNiJci0EOdcXv/Oh3kKi5vLxkuZyTRBuaosSxbYqqET6bLOXxV18w7gfYlkW2DSmzGl23ODz0qGrYRCIsf3iwR6Q0XF+8FQgWPefy4pLj0zPu3LlDEicgKZy/vWK12qIbOq5nM583lHXN6ekZdVPz9deP6bgermtzfX1NlqeCL6yJ1JOua5imgWmZrJcr8qxkG6V0/A5RuEJTdWgzZElFkko8z8N3PTZhyHK5RNc0bNvEMExx9JUkiTt33+WP//hPOD298w24abPe0O0GGLpKtF2TJBHT2Q2Pn3zNcrmk2+lhmDaqrgu3aaeDqmlso4iibAg3KaARhpHAdkgyWZGx2Ybc3ExYLJZcX91QFOUuN1qy3cZIrYymGdxc3+yQijlZEqOqCrZp4tg20TZCNw1u3b3Pahsx3B+L+lG44fzNc24uXzC9fEOVZxSFoNY1TSPI5al4sxuGQxyFnBwF3L09xHcUTENBVlTWSU1UNRRljiyJ+F9RZEhtg22Z9Hs9kiShAXzfE+oDRSNOEmxTZdQPUCVQWhnTtDFUhSiNObp1m8H+CVfzLbrdQTNtVpsQzdCxdpFCx7bRTAPb1DE1maYucEwbmpqL83NevnhDlNTUjU5RQhjO+eS738KyLbZpwuntM3r9Pm0rc3M9FWBoWWY83udwf5+nT75CVzXyouR/+B//jD/+o79H2zRcXl2wjTZMZze0bYssqzx88B4d32cyX/Drz58wX6YkiVhr+Z7LvXtn3L93xsOHD/noW98hXMxoq4xlGPHFb17w7NU5raJzeHJKXhR0OgEP3nnAbHKN63p89NG3qMqSbbQlSQt63QGmaXBx8ZZPP/0hFxfnzKcTDENMVGkr1usVtu3s1CUS222Ebdt8+qPfQdYMsrJC1QxAJtpE3Llzj+OjY3wvoKnFEM3QDNq6ZTKZcn55za2z2/idAN/vst5uaBqJe/cf0O11GY+H9Pt9hsMhy/Wa8/NzLMvG0Aw2myWPH3/NixevkCWx6lJkkQF3LFvga3aNMDH9TRgN+miqQhxvAYk4TbBsB8fx6Pf6QnY9udnhSBMePfor8aD2B/v88Id/gCwb/PSn/4IvvvgSXTcxDJ298VDAlp8/YbVeEoYhhm5yeHiEpps0jYxpOThuB920KcqKqpJQVYu2VciLCsdz8fwOhiF4QkG3i+t6DAZDbt2+IyaldU1d1VR5wXqXVjrc3ydOIparJVUtgGG242LZDlle4Pk+08WKq8kEx/ZYr1aUWY5t6pR5ity2OJZJfzDg6OSUoDck6A84PT3j7OwWru0QRQt6HYWTox6nh0MMTWa7jZhFOVHR0rQtTVuhqYqgzqsKvuMgyzKrlWjs12VBHCdEcYxl6OwNOuiqhFRDUdY0VU2DTNDrcuv+fS4nC4paot8fU5Yly9UKSYGqLr9JYem6iiqDTE2VZ9iWQLVE2xhZtUAyiJNaFOHjFaalMhgNuPfgHmVZEYZbOp2Avf0D/CCgPxyhKDJFkXF6ekzdVIzGY+aLkP/5f/nH/Dv/9h8wGg5AEqGSwWDA5fklF5eX3Lt/l5OTW+imz3S2Jtyk1MBgPKITBNx55wH33vmAulUINxviKGEdJtzMV2RFy2C0x8HRMa7nUVYNw8GAqsz5/IvPeeed9zg42Gc2n6EbNg0ynusgSdDv90mzjGdPHuO6LpcX50ynE5pdQs11HZE1bltOjk+om4ZBf7QbYrX0e322UfwNV6ltGkajIcvlkuVyzq3TEzqeh2WaOJ7LfLEkz1Ms22a5WvPixUvyPKMbBOi6CNZblsWLl6959OgR4/GIvfEYSRLrHN/30FQhM/ZcD9/3AWiqCs8XvyfdFdpXywVZktC2LU3T4roeVVkhwa40ION3fNI04dEXv0LRdf0ng+Eh3f4x8/kCgKODA3pBlzRPyYqMbbhGkiTiKEY3LB48eI+gOyAravKywbB8ZosVFxc3TCchdSMxGu/RHwxxPY9WAkXT0DSN/mBAt9vDsizSNBNWK9NEU2UW8zlFlrLdhGLU7zpomsLB4ZFokSQJdQuaoaPqBoqq4XoOhm6RJilpnLEJQ8LtBllR8T0PXVMo6hoUjXc//DaqbrONtgS+T5xEXLx9zvF+h3HfpuebdBydqiqZRyXLpEaRVdFBrBrqqkZuZUzTIsszqjLj8GBMkiQsFitMXeNgPEBXQKJBU1ThCM1yFF1jMB5zfnFNkuWMRiNcxwUJsixFVSRUVZSc+90ebVvRlBmjfoDnuaxWK9arkFcv3zCdrZgvYy4uZ8znS+7ePeXBg9v8jb/xKX7H5/zNG+q6YrFc0h306I+H0LaE4Zr1ekXQ6/LgvQdcXV9iWQbTmxsuLy8ZDkf4gcerV6/4+uuvGI/2CMOQcBUyHI4oypbL6xlX85BWNfjuj36IPxjR3zsjGBwwma+QZIM4KZjczIm2MWUNirDfFrMAACAASURBVG7y6s0bvv3xJ+wfHlEWBffu3iWOY968PWezWbMNtwzHB3S7A8JwxWRyQ1U3jIdjbqYTbNvi4OgQz3OxLHMX4TOEBmS1II42XJyfswzX7I3GjMcjJpMJg8GAxXwhhj5JzHq9QpZbNuGKju+hyDIvXj1nOBzQHwzwfR/H9Tk7O0NRFWazOevNlqIqiZOY5XLB6ekpqioTrteoskLQ7Qk2Ey2+5+H7Lk1TE8eRiFdJMlVVCTDcLp00m97QNjWqqpHv7OTbzZb1JhR8YlkAz8uq4DdfPUJxHO8nvf4+fmeILEl0Oh329vYIAo8kTZnOpt8sfm3HR1F08rJmMl1yeT1luljz9uKa16/fcnMzoWlbPF+EjHXTRNFU4fCQJaJELPTX6w2SpNDv9wHQdY2iLFmv15iWjiS1yKrKeG/MYDiiO+jjuS5105DlGa7j7Iq2ObZjMRwNOb84J44j2qYiiiIcz2U46GNaBm9eveTLL79gvL/PvQf3UVWF0XjAV7/5kos3L/jonSMsrYY6R2rFqmUelyzjkhYBqdJUDdqWtm3Y2x+R5TlZGnN6uIdtW6yXS/aHPfaHvV03UzzYVVWxCCOyqkazbaaLlfCCtjv2kC40iHkWMxqNsC0L13XoeC6aqrCY3tDr9zk+PcPQLP76s19zcT1juY7ZbhI6HQ8/cLAsjVu3jzk+OSLabLh1dkZVl8RpzHh/j6Zt2IYber0+pmXTtDV379zm8ePHDAYD5vMlv370iP2d0FnQBjXibUKeV8wXEV99/ZLr6ZptVlOi8vH3f0Ara8RJSVHWbCPRpe12eyRRxNPHj6laCd0Sd0nDtDAMUwDkPJ/vfe97vHn7hjevX6MoGnsHRwyHI/pBj8lswuHRCQ/eeYfhcMTzF88F/d6yaFpwPA9FUXBdl7aBpmk4Pj7BNExW4Yr1es3Nzc3uKmKzvz9GUeDq6pwkSQk6HSzTYjQccX7+lvV6hef6pHnBYDDE7wQEQcD+wQH9QR/f9zFMneVqhaLInJ3dEmyrq2tsy4JdrLXX7eI6DkUlKnRJElOXtfi5iwcqskRZliiKhON5IO3+raqCJdw0GJpGnuckacLLF09RXNf/iecP8f2eWByXJaYpYMNJGjOfiQB7nuWsV1vOL2+4up6y2kTkVYOqmzQgoMRtRX/Qw7Rsqlq8LaTdcTEvc+IkRVX13TBqKlTumxBZVYX63XY4PDmh3x9w/8EDXN+nqmrCUGgKyqIUmnXNEFKfIkOSIS0TTEMlzwVlwLIMqrpAVmW6QUBbpqxmVzx7/pTZcsHN1RWbTcgvfv5zAk/l1lEXU63R1QapFQ9nKhlsshZFUZGAqqwE79fQ6PW7LJcLZBps08A2NPI4wtEVPNtCVhXa3X/+Zpsw36RUreDqPn/1hsvLCaZlU1cVRZHR1iWWqeM5NgcHh9y+ew/XsQg8l8V8TrfbZzAccf72nM9//RuKUiLLGwxD5+7dW7Rtw83kinfevcOdd++TrJeYus54f8Szp49Zr1YEnQBJVtB1E00Xfs4sTdFUnV6vx/sffpurqwlffvk1B4dHuI7D+fkFs9mS66sVs3lKlDRMllvWUcYyjDk8vk1dt+RphiJJYp5QleRFiirBzdUl19MZbscj6A2oa1E5y/OCNM4wTIO6rcjSHNfrcHR8iiDTp/h+lyjN6fcHdIIuJ6cnqIr6zXS4qhqQZVzXxzBtLMelaRpmswlFnmFYBttoS9009Htdyjwn3KyY3Fwz6A949+H7lEXNcDDk1p07XF9PWK+3LNcr1N1GIk0yoihC01T6/R5BrytWJlFMnufYloXvCvGTpqnkWSrKKYrMerXagblLVqs1TdOQpglZlmEYIq3XNg2mYYIkkSQpEgLNWu+OwFmekecZb96+RLEs9yedYCTubK5D21T0e11UVWExn+2QFDVxklJVNS0Kumnh+r5Y6mcFqqqyWa2gbZAVUUXzvYCqqnFcm6IsUBR5p2WXUCSF68srXr16RZaLwMI2Stg/OOTw6Ii2haoR/J04TYWwJxOQY9d1KMuCt+dvsW2b4XjIcrXAMk06HV8EK/KUshIgNamFwLWgLlmu19xMJkRRzG++/ILJzYw7ZyO6roJrqdimuBdarodk9ljFNXUjIcsKVS0EwULk1EeRW2zToMwzqiylKVKyOBZ/jKKgalvqFlBUFFknXIecv3nL9fU1hmFiGTp1kXC4P2DYDzANnWibcnrrPvfe/wCprfE7AZJq0gm6pGnKT//5v2QxWyNJBts4p2lbPvzWh7ieTX/Y4Ue/810ef/HXeK5NmsS0TcX1zTXXV5d4bofDgyPSNOXVyxfixZalWJbJaDzm5npOkss0qs/lJCROS26mS6IowzA7BL19wrgk6O9hOh22Scre4QmD/ghD0wTdoczI4i1xGNKUGYoEmzji+mbCcrnAsCxcy+by8pK6bYmSiPV6SZblyJIqRuZAmkQoskyRF1xcnFMUOcdHR3QDn8V8jmmY6LrGarFkvVrtrN9rqrogzzMsU0yBN5u1wJjWNYvFAkWVKcqSXn/E/sEx222Epmvs7+/jOC5xkhBu1mzDJavljLosaJqazWYriJStKImLF8KMcC1wpLou47kWq+WCKIoA2Gw3tG1DlorrmGHoZGlCmmXi+EsrssiaRppl0IKiqORZTlnmKLIk6I+aIh7U8fjgJx999B1OTk+oihxNVfB9jySJuL68FP5Nw6ZpJTRNx7RMur0ehmaSbLZswjVNI9D+49EIv+OTJAlB0KNpYDqfCaCxbeFYFpvNRrylVHFs8TyPbr+PrgtmkKJpbLYRmyiiqoVNumlb0jwFWjzfQ9U1sjRlOBxg2RZZmrLZbmnaGkPXSWIhoM3TjHgb4dgmy+Wc7Y7ts1itub6cELgmp0cDbAM0ucYyNSzLZDDeJ6kNbhbiTqzICrIixFOGIXQNH733kHC5pEhTmjIjTyKKPCOKY/KyJi0raiRUVWe9WHN1foFjWTR1g0xLx7XoehbDrsv9u2ccnZzQonJ86x387pDz1y/xO13Gh7fpj/ZYTW+YXEzYhhmzRcg2zcjKkg+//RGq3DIaBvzw0+/x6PNfc7C3x3K1IE4TsiRjOBgRb2MWszlJtCWJQrIkouO57B8e8sWj3/Bnf/ZP+OWvn/Hud39Mb3ybstE4PL5D0B3RtCrbJOfZy7f4vSHvvf8t3nv/I7q9gfCo5Anr+RVXb56yml6TJ1uaKsX3LUaDHpIksd4NIiVAURTqXTIniiLSNMWybOpKxAk912a9XmJbBsNej/29Pb784hHL1QzTMJhNpxRpBk1DXZaoisxyuSBJIjxf5HWjKGQ6nVBUJXVVCRv5cMjZ7Ts0jUzTSKiaoP8LlKiAmRVFymp2zc3lOevFXFx3kCibik0cEYYhVVHuDO8bmrrCtQ0kSsJw+Y1GMYoj6rpE18W0V6gXtd2gTEQGNVUhLwQhw7YdDE3MR0zT2H0h5WiqxOTmCvV3Pv1dHr77AdE2JlwtUFSFvHBIoi1xJLAa/aCPbkg0NTiOj6ZqbMIV6/UcXddJtmts28G2HdpWhPiXyyXdoMdmsyXarljMrhkPBt9wYwb9PlVREIehwCn6HZqq4PryiqzIAYQ2QNfxfB/aliQRax7DNDk+PUFqW8IwhFbi5uaag/09Bnt9yqJgNhX0t1aCsm6pWpUkLdhsYq6mM+oaHEdHlqCqK8pKom5aNMPCtF2UTJwOyjyjQUZCFmqCQsIyDO6cnvL66WMG3gHL5ZIkSeiNAoqiZJNVJHEhVlTFmjcvXiPLGrJmURNjGyZ7e/u4psSzp89QFIXf/f3fx3K7mJYFkoJlu2y2CXvegKZO8VybTqdDWTYUVUuSFXQCn6dPnpDFG9qm4OLymqODAXnZcHp6m8ubGZ8/+nPeffAQx7GJozX7+/uoCmzCkNu3bmG7AReTOWlWMpuvePbkJcdntynShqPDU46O32FzsODp069Z/vIR019+xmDvlHff/4gw3JBu16ym5+TRioNxwNmpKG1AhSSDohp89fgF//if/FOupyvO377i4OgYZJjPYlRVx3E8/KBD07TUdSmojlXO27dTfvCDTwnDBVkWo6gNw34XVZMwbQPP8VgulsznM26ur5DklqrKKbKMXr/3jUpCV3XaFmzbpt8fEMU5aZZgGUK5YRomYbjBMCxund3BkBXC1YLFakG4WWN7HbrDPY6OxaZAkSWibYipa8gy4uUrC5PbbymMuq5hGhrdIEBRN+RZIYrqZUWWJuiqQmsbzOYLRuM9HMcjywrq3ZeBpomVjoxIWSn//t/7D38SxQnXV9cUeSbYPztyQRSuqBsh0tFNG7/TxfMDMZ0K15iGRhB4rFdLbMfHcwOKqsZ1PCzLJv3tNFORuHz7isV0QpWLI2kcR1RZTp6mFFnGJlwxn82wbBvP95nN52y3EY7rMhwOcSyLPM/EOB5odm+uLEvp9cTUrSoLTMPCd13iaMs2XEPboKkqWZYxm0xZLNeEaQoyDLouw56HaTRYuoLvOfT6XYL+kG0hMVnGQoFRlLBTT0jUHB+MkWkp0pgH9++SlSXrbYofdHH9DnkJs/mK5XSCVNe4tkNWNFzPQ+oWgo5PN3DJ85QkTrAsm/5oyPjwCDsYoagabSUg15qqMb96y+LmiulkwXKdk1eArGBaFq9fv+Hy/JLXL8/57FdPeP7yhtlkitcJ+NXnj/nzv/g54XrFaK+P5Zjs7x8gSYLS4Ac93GBAsHeMb3v86vOvcPwBluNR1xKW00E3fTy/g26avDl/zdvLK2TVxrQ8XMfiYNyj7xl8//sf8/H3v82o32HY97AshbotODk5otvvku2M20kSMZsvEbIkH8uwUFQNzdDo98XwL88zNE1ju92QZinRdiv2qFJDWWb4fgdDN0jSlNl8xmK5wDTUb+7I0TZC1TTqpsHzfapKEPBVVQNZxnEF4rNpBFi8qRthVDdMukEPz3EZDIYYpk5RZhRlRl3VBEEXz3ZEUb2t8VwHyzRpWzBNC1XVqeua1WqFbVsEnQ5lWRCnCW0rUTcNcRyRxltsx6Qocl6+eo2uG7ieT1GW0LaoioyuqTRNTV1V/Plf/BT1q8fPKMqabjfAMnVkqYa6QmoqTFNHygu24ZqRG2C7Ni0NVV0hISEpKnULXqfHaHiAbXvY1DS0uI7DfD7n4uIlB/tjHNtis1iiyzK6rtPqKm4QkMUJ6+VSlL0MDdO28ToeQccjilMBPVYUclo6fgclCMQfYxNiOzZBIBoG4/GQm6tLmqohLwqapkGSZExTw3Vd4s2auq53bQ2wbLHiqRsAhaKoSJKEohDKO12W0ZHQJIVWlalakDUFTzdQFYXlaoasKFQNKKrO/t4+bSsRJylZVlGVFdvVCk/XKRSNWRhRI6PvPixJlqNKFfuHx9y6fR/H9ZFlBc3UaHYh8+GwT5WnpNuIIiswDIdufw/NGfLQcTBtm+uLK1bTCXG85mY65fmLF1xeTvjVo2dskgJTzegHWxbLkJvpHFnWuX3rjELKkFWVom7YH4/43g++x7f/4tc0WhfX7iCpKrOV6BQbcs1qcY3t2IzHY/rDEeeX1+i6wicfv8/sWmIVbsiqjF/98udE4QJFaynKnIODEz744Fv8B3/yR/z5z37BYODzL//VZ1zeTKnLGt2wSPIMzTS5fec+d+/ew7Nt1mGIruksZ1NU1eDk+JhuR3yYt2FI2ISYphji9HoBqiwLpaGhM2slJBQG/T0Ojg9ZrpYsF0suzt+wXC25e+8dDNMkTxM6HZ/FfEGSJWimiW6YaLpOlsQcGwaaaXB5fUHdgCy1mIZOEksoskpTV9iWRRynLBcrNF0l2kbE2y39XkCWZVxeXpCXhQgyVBVllXN4uE8QdHj16hVJLMj6iqqg0WIYHqauUewGo4vZDc9fPkO9urlG003KusSzNQxVoq4ELS9LEyRZRlElTFOjqnKqusU0NZJUfNgM02Q82sfv9CjLUgSTy4LJzQ1RFLIJl0TbBU1VocsKUbQVrJnWYbvZYJkmgRGw3oSoisp8OkVRZUZ7+4TrkMVsSl0UOJaJZZpAQ1TkAvNomDiuRVVV/ydr7/UsW3qf5z0rx16dw84nh8kBmMEAFECRFClRFi2aZTlcuPw/2L7HP6ELl+2SQ5l2lRls0KAgigRADCbnGcw5Z07cZ8fenbtXr5x88fUMXaJYKrncl+fu9O4Vvt/vfZ+H8fiCMAyYjmfouo4kCWOaqljoukEYheIAr8hIVGRJztn5jJol0a7XN+eUCN9fkUQB0Tonj0IUDCzDJExiTF3Hcy2yOKDW7vPo/IzT8yFlJdSQQZhQlDKVLHq4lq6JHWu0plBUNN3E0FU0U/hFqjxGVnV29vYZbO2zjiKMOGQ5W5ImsaAEyBK1msPZScpktmAd5dheG912aDQ67O/fRipz4thnNDonigKODp/yi1/+nDBJeO7WDjvbu8wWPpKikWRiUh9ECePZAq+7jVwWdHotvvudb/Hux0+JAp9SlsRENqjwp0Nm4yGarvHt77zBCy99l6KQmYxOefPt9zg5fkQS+zSbNdKoYDaLuBg+pdWqcXR8xmh0zt///t/j9373N7hz5xGarPLhxw8YjhfIlKSRz3Q2Ilgt0BW4dPk6klSJ9UW9wXy2JM9zLMNA13WeHh2zXKzY3t4RsDBFYTabU+QF+3t7uDUPw3KIk4yLixGaptJptVFlhUqW8H2fXm+AjMRisdqEasZ0ej0M0xTJuqIgTnJApcxh5Yvfor0hCG5v9YnjmCAQscEiz8VbnL/EdR2KvGC8ErnsVqtFWZVMpmPkquT2b/w6EhLj8ZRev0+axht9RU4cRnQ6bWSpxDQ0vvjyU6IoRLl86doPd3a2iYI1wWpBloSMRsMNCTwWrJeNhEdRDVRU4RoBkGTKQpDGZVWjlCoRiM5i5rMRF+Mz8iwiTSNkSd40W0LKoqDb7RHHMVES49ZqlFRYjk1VibtWnCbc+fILZtMJZV4IZYQssV77m6zvmpW/EKT8KOLx40fMZzOCtdjVqpqKJIHnelycPuXenc+puSaGKdoTVVWyWCeUZcKg42LqUHN0LFPFMnXSHIbjBVFWUFQlklxStw0cDaLVnOPDQ+I4Ybla4wchKz8kTHLCtCDLMiajIWop8pt+VqBZDobt4no1mo0atm2gqRKSDN1+j8H+Fax6h/OjQ6LAZ3//gCQOUXSNTz74gB//+M8ZXiyJUpV2bx/dalCgopkuS3/NcDRFt+v849/9J7imyjvvvIMfxdy4vscLLz7LZOkTpyWyotJqdrn94rc4Oxuyms4YnR6hlgn+YsmDh0/w/SVHxw9Zzc55dO9zHj24h2EY9HYuodlNkHTm8zmTyYy0qJB0i0Z3lzCVKSSbW8+8hG05nBwfousVe7td3nvnbRzLYm+7RxwkrPyMq9du8J03Xmdn0Ic0ZjEX9rbR5AJFU9nqD6h7DWFgoxIXq2nSbDQJA588Ey2pYO2TpBmaYYCk4NRcTMsgiNacnJ7gr1asV2tarQ7Xrt9ENxzCKMGr1ZiMJ/jrBWEY4tRqNOoNJrMpsgSqCsHaZzqZ4i9FEGE6nRPHMc/cegZZ0ZiNp/S6XTzH4unTJyRxTK/XpZKqTU9VRVVUfH/J6OIMVZUoCnBrHoqi4fs+5+cnLBdz4ijkwYN7fHX/Do5j0qh7/On/9ccsFnOUXqf/wzxLcW2bPI3I4nhTFRJnyzhOifMcWdawzBpnp2cbBoyDoqkgQZqm5GWx6f5BkWfIsoRXt8nShDRJKIsSt1YTMbI0Q9c0Wu0Wmm5+Ay2zbVvEDDWF1WJOGAS0mq1vom9FkeH7S1FToiTLvi7eIs4RWSZ2W56Laersbm3hL6d8+flHxOECy9JwXZP9nR7Xr1xGkirOhws6dYVBr0GjZkFVEMYJuuViu97GslWiyhWaXFDGIQoVVQm+HwhdomaCrJEWEEQRURgRrJZosoSiqcSlhFWvU0kIVm+jhiZLtFtNGnVv4+Y0aXhNkiggSUJsy2Q+naJIFf/qz/+c9977mLKyQHFYBjGu16DbF/nq4fCcjz/+mJ2dPYo04Sc/+mMOnz5GVnVeeP4Wqqby9PiEIM4YDkcgKTz32nfptwecHD9lPrng0Vd3OD464smTYxaLKavljEf3v6LIYl56+VVee+P7BEnFBx9/wXodcOXKVQbb29RqTUzHQ9EsFNWhKFUUVZyFj54+ZDY+pm5rfHnnLrpmsDvo88EHn/Dmu59Sb/c4OLjMtStXeeG559jb3WE+m/L0WIQg4jBisLWNaZo4jo3rukymU2RFxrVNsjRhvpyzXK5Y+Wssy0FVDTqdLrohE8Zipbi7s4+mG5i2i78OGY0npFlOzXFoNOus/CWtZhOvUYeKzUwjRKJElSWqIieKREQ0ThKeefY52q02YRARRzFxHDIYdJBlGcMQXWjXdah5LkWRsVhMmc3HlGWGW3N5enKM70dkRc46WBFGPnmeoaoK88WM4fCUmzdvEIYBb7/1C7HevH3j1g/jKCLPMigKqjxHkiphZ5aFyDdKYuK4oN7oACpFmbNar0hTseAVBWhJmLIMjQqINn1BCYksK5CQKPIC13FRNZnZfEq90cKr11EUhaoqUCSJdqtBmRdYhonrOqyWK+p1D1mWGI8vREE9T2nWG5RFyeGTx4wuztjf3WO9XiHLfBPlymKft372r1gtJniehWnKdFoOKjHths2g2+Pxw4fIksSl/R6GDmlWcXw2oygrOt0mugqmKuOaGo5hkhc5jltjZ+8AVbNYrAKyvCLNK+KsIAxjEn8NWYHnuYRJSlKqaIaBoko4lr5ZKSj0Oh0oS7I84+DgANdzURSZCpk0Sdi7fImlv+THf/JnPD2aUmFSb3aI0pA4DnEdhyIrsDSN0PexNIn7X37O40f3mE8nNBtNXv/OKwRRzGIVoKqioP3kyRFNr8XtV75FvVbj+s1bfPTuO3z5xRc4tsNXd78iChO2d/d55vlXuHztWdJSpT/YpdcfcHCwR811ODsZYlsWjUad+WyCpirCJvfgPrrp8OILz3P28A6JP0eqxOvhi889z5Ojc758cIJd72FadZ4enxGlGe1un1/77vd47ZUXuTg94uGTR8xmE+qNBu1OG8exiYOQYL0kScUxJU1EVFI3TJ5/4UUOLl9lNJliOzXSRCgp+v0+9Xqdi/GFoGj22qxWos3V63W5evUKaZoRBAGyrIodbiweLvLGVm5ZFsvFksVyQbvVpuYIteNoNKQoMizHRVE1LNsBSUbTVAxNIQiWfPbpB5wcP2Zvb5davU4QJiLOuJwxmQrrgWlouI5FmsQosszrr3+Xd997h/sP7lKWJYok88PLB5fQFI0kisTTUALd0CgQYeMsy5EkhXqji+sKR0aWpsJFIkFVlZSF2KUWuWDTXAyHZFmCv1pQZDnNZh0ZCAOhFgwDcVjWNA3L1tFUmTSNxPt9UTKfz5FlmWyz21U1sSurN+oi6RQlVGXJfD5lsVzguA6+76NpKrWasHm999YvGJ4cYpoyW1sdDva3iIIZaboGuaKUVaIk5Xzo49gyqiK8JmlaEscJlBWqrKDKMmmasVgshUyqlJgvfZKsZLUxikVJQZTkBKuA8cUIRaqwbJtVGFJJOoomJsbCx5kL0HIuXpMHW326vSZFnlJz62iaRhKGGIrE5++/y1u/fI8ggkoW5P6vHbGNRpPpeCpEyKrM3c8/ZjYekqYRF+NztrbEume2WMHX1u0N1OujDz/h8v4e+7duo+QJWbhmdHGB63jMZyuQdJBUvnr0mL/+5bukBXh1j2C9ZmvQJS9L8fTRNMJgiaaqrH1fxEBNi6KSaDdbvPzsdS7tb/H9H3wPWZY4PTlF0Rw++Pw+w9GcdneLKIoJw4ggiDg/Pedgb5/Xv/MdgnXA3a/u8vTpIVvbWyL4EQbIm7plkqR02l12dvfRNI2z4QXdfp8kTcmSjLyo6PX6DAbbeHWP1WpJvV6n3mgwX8yFKTxJMEwL27bEm5SusV6tyPIMw9DI04TFYi5CPJ7HoLeFbZiiN61rPH16iLPJA3xtGJdlkdS7GJ1x/6s7rFZzGq2GQNkkQsq9WM6xbVvY32o1dnd3sC2LxWLB9es3aDSa/MW//nOmU2EeV8qq/GESJ/R7PSRk0jRBUjb4S0URWMWNVs40XJAkojik2KSMiiKnKAp8f8l0OhFiI9MSZ8j5jDhaoUgVuqbh1T1kVUU3LbZ2dsiynDDy0TUo85jZdCpEsFnKeDxGlWUBLk6/Vq+XmJqFY9WQkbBsm73dPWzbEQduRWU6m5KnEffvfsbnn35MFK6p8hjXUZGqlFWwwvE8FuuY0XSGopsMRwvWq5hOQyAdxVOuJM8gy0uQNKJYvP7nG7lynOYslj55UaFbLnlZMZ8vubgYEwWBuGmVJbKikwOSolIWBUUufuBVJbFcBszmC6DCczTqroXlesiVhFezOX3ykP/9f/1DHh8ek+Yyqm5SqzcoS4HtaHpNet0ulq7w+OFdkjAgLxLGm+/x4GCHoiiI8wLTMpAVQRCo1VzKMufNN99kfH7CzdvX6TY9kjjm+Pgc221SVAq/uvcVF/OJiGoqEt12l+eefY6DSwe4jkO720FVFfzVCkWRkGVJ9H1Nm15vG0mScByTJAnZ3Wnzg197jfF4wb2Hx3z2q4d4XoebN5+hKkuGw3Mc02I0mvPpF3fp9Hb5p7/3+2RxxINH9xkOz+kO+rRaHUzDxHNFtTBLc5559nniOOXJ4SFbO328Wg1ZUgjDmDwv8LwGeVYwnc6EsU/V2d7eQVNUwkhsFnx/LQokFeRZwdr3keRqI3VKWfsrVFXn5o1nsCyXYB2ibRAqwkVTcjEeimujSIjiNcdHh2RpwtUrV3Ftjzyv6Hb6SLJEs9Hk5o0bDPoDbNujyMvNTtfhmdvP8dHH7/HpZx+RbjIFimEYP1yHQFCzqwAAIABJREFUa5I0wzIcgnWI7VioushVVpV4NatKhNdRUTFMc7OmyUhiIfexNuj/tR/gOi43rl8XY+YoJIlC+NohaYqzQq1Wp1b36HbbWIb+TWLFXwuLmSzLOI6NpilEcUiSpnhenbIAy7TxPI/VaoWiKkJzGAUUeUJV5ZwdH/Ll558IL2dVMOjX8TwDpJzeoMdkEXAymjKeTjcUizoXF1MkCVqtOlAgSSCrKrKqUUkycZKR5RVlJZPmJUGcUQlwC6puUJWI9c7mPK5tTGuKrqPpNoqmU5WClaSqovOapBnrdUDgr+i2bHa2+2LQYLugyfz4j/6IN3/xS4pKZRUk2LUmplUjiBIMy6HT7bOzvc1sOuSru3fIswgoOT07xjQV9nYGInNcFiI0rsgUeUUUJSIWmef8+P/+M+Sq4FuvPk8ahRw+PSaMUwEgWyzo9Lo0Ox329i/x3HMvYjquaAMpMhWCoqepAkVTc4Xr1bYtTMui3vAwLZPT0zP+xX//3xKsYwzD5qNP7nB6PiPJKnb297lx7RpRELBeB+RlRbPbZzSdomoK33r1Jc7Pjjg5PeP09BRZkWm3OtiWJcx1ksx8PufR40cML4bs7e6haBrHT0/QdZPJZIyiqvT6fWbz2QaQUEOSoOaJalkQBEItGQRABaXA42ZZQlmIs2xVVciSQqPRYDwaMRyesljON8aBOVG45uz0iMVsiu8vWPsLHMeiN+ijaQZJmtNstijKkuVywe7uDjs7u8iyxvnZCFXVuHL5Cp12l6LM+cWbf8Xx8VMqoVj4G2ZSVZX0egPSNKMsC7pdIeBJ0oQ0T0QOMSswTRvTtESOMY5IkxTbstkabGOZDlmesVwuvlmDyEislsKQneUZJRK2XWPl+8znczyvxu7uHrIkU280RR+zrDA2zfhKqlj5Pqqi4DquKAcslzi2JabDsTCFn548JU0CNKng/r0vOT85oioytgYNrl7Zwa3pYoGdVzw4PEXWLeEVSTKatTpZmglgl6GgKKCoEjXPxa15Yl9cQpxkFIUsBLxpRZZBFCfM5gtRfA4CJAmkDUn9axZOiSSeokWFLElQVVBBFMeEQUAULHFMhRvXLtMf7KDqOvPjx/zLP/sx7c4W0/mahR8j6TaSauJ6TZrtHmkmjht5FpOlIbPJkNVyxmwxQ9dlTEMVEbmyJIqFBLgsIc8rwlDYtYui4tHDe+zvdum0mqR5wflowmS24nQ4QtEM9i5d4+qNZ7Btj88+/4IPP/wAf+UTRSFnp2ckcYKq6rg1j06ng1evk6YRuqHRbvVwXY8vv7jDT/78Tco8I4wyFuuQpb9mNJmwvbXNpUsH+OsVR6fHKLpGu9sBqaLZqNPvdQnXK05PT5hMxsKaJwtmrmnojCYXmKaBoql8/MlnPHv7OXq9AbWahyzLDIcX2I6NZVmCKliWJHGyeeI7ZEWOJEmEoVhHFrnYqYshZoLn1qh7NWzHxLJ0FssJUbRitZwwHp0SRSsWizFZEpFEIbZhiNqbLJPnJZKsYhjitXg8FUSLxWIJCAaWrpu4To1Ws41l6Tx8eI8PP3qX1Wr5DX3lb+BmksTOzj5bWzsslgsURcE0dLIspihyZFlBkhUM3RI801x4R8qyQJYV0jTFtkwMw+Ds9FS09pdzZrMJ1dfkeEUhDCOyLKMoKxarJSt/LdCZ7ebG+GwI7XwFvr9GkhU8z8OybVHQLXPWgU8Sx3ieR5zEBBt6g61rDI8PefDVXXHGlQp2dxr0+w1MS0dWNE4vpsxWEZbjkaYF4XpNvebQbDUZXkxZhzGGqSEDjuMgKypxmpNkBUlakmY50/mKspIIopgwjgnDkDhJyfOcohRF4CwX2gJZVojTTLy6Z+JJXeTZxs4tAthJHJAmgbgD97o4DZdP3/4ZR0+e4NZanJxNWEcpSz8kLyXWQcT+7j6e67Bazrk4PyJPQ/I0wg/WHJ1dsPBD/CiipAIZkjgiTYVLRZYV1M2P0HVdoOT46VOOj07Y3TtAVnRmc5/pfImkGDTbfbx6mzCMWM5mjC9OGZ2e8vj+Ax58dY87d++wWq5oNTtomgFIWLaFY9vUXJcoitne3qbII9bLFb6/ZroM0SyL2XxBCVy/eYveYIDj1b55wtXcGmma0O/12dvZZjEbk228QnEUMZ/N8P0VqqZuvm9xE2o2O3S6XWxbFDjGkxGGKXCvs9kMTdMFMbIURMmqEgbyoizJswxNVTc8YA0JCV1TsW0T2zbJspDJ9JwoWYNUsl4t8P05ZSn6ps1Gg063jWlZxHGC7/siZFMVrNcr4jhkuZyzXKzY2dkTUDxF5t7dewRBQLfX4sOP3uXOnS/I8uxvX6iKorK1tcv2zj5BsGZ4cb4R5iB8GKpKVcmUlYJhOpRU5HlKhThvaZqKokikWSaqPLqGqkCWxViWQUmFoZsUeUGwXgsPZVlh2Q5h4KNrogq3XCxYrwOSNEWWVWzHpdXuUFYlq9UCWQZvA0qWZYnzodhN7e/uMR2e8dXnnzKfTqikkv39DteuDKh5NpKsMluueXo6JE5LkBUAsiSk7lq0Wi2yomI+X5PnJaosY1sOmm4RhglZIZEVJXlRkmYFSSH4OV//kasKpEoiyTLSNEOSRGQtzXOBGkUS3pwyJ01isiwXa60socjF//t8OOT2ret0mxY/+dH/gakZ5KXC6XBKEOXEWYVpuZQFXL92nWajxuTilIf3fsVscg6AH0acXMxYxDmrMMEPIsoiRzMUJEki3tSp2u0mi/kMpIqyqMjSkvF4iaJZNNsD1kHKZLpguvCJU2i3+7RbLbb6HbZ6bRqew2IyQapKRuMhJyenpElOkmREUYxlW5imjiLynswWM6SqIvQXnJ1dcDqakpWF4OfKCv3BDtu7+zQaTaRKoiwKFF1FUhRqNY+GV6MqYpbzGd1WS6zWzk44Pz9DkmVkScUwLa5fv4EiS5wPh9iOjaLKLJcLal6Nra0Bi/mCigrPq6HrGnEsdBriGOKjaQoSlaBs6iaaolCVBXmRsF7PmUyGzGZjgsBHlWW2Bn3hxrUsGvUGhmVuPKvCkSRu3hnz+YyiSLEsA8ty6PYG3Lh+Q2B8ckGgGPT7FEXC22//NSenx/9vnNnfwM2+xluUlUyj1cNfh1SVgmUaJBu7dVapJEWJZurksRC+llVFSY5pWSRJwsVohESFpn9tny6gqtARy33HsajCkCyLKCrwVyAVIU8Pc5Io4PT0mCwtaLRaXLl2kySOePjwPrquIEuVSNZQUZUZ44tzkjCi4dqcHz3gnbd+xnxygW5ItDsNbl3fx6lZhHHJeDJhOp/j2DayIiKSiirR6rfp1B0MFdoNl/XKZTxdUJUSlpsi6xVlKVFJFXGWATJpCUESI6uKaHBUBWVZfZPnLKoSKCkL8R0pOlRsnrRpJjw8qiou8ixHlmQqFO7cfYjvh6Bo+MsluuKS5yZlIZMXUG90aHd6eF6Tqip5eO8OwXKEppQslmvmszmThXgLuXHtGnIl3CpHx1NW64hepykk0UVB7K+RCsiSAkUxUc0Gnd6ARWJSzgv2brxMrX+V+/cfMZr6NFodXnn12yhyxReffcSdO3fJqxJFldnq9RhejHny8J7IEVsacdwmy2xWyQLb1KiKUug2koK0KNENE8N1QZJZrlb88u23GY4muI7DerUS2sO5wf7ePgvHIzdlrly5ynw8Zr1cU3dcgppJlkU8engXRTNotrvE8Zr9/SvoqsJkfIGq6dy4cYN1KIDv3V6XIi/EUzMTCklVUWjUXNbLhcieU4Jpiel7vCZc+0BBnospsa5otOotTMOk1WrRqKfM53MMTUdXDZI8J0kzXKeGplm02k1UXUNVZS4uLoiihIODAyxbvPI2m000TcPQNR49vsfZ+Rn/5uebC7UocqI4oUKm0eyyWq2RigTLMgnjtUCgmBZxIpFXFUiItkNVIcniNbUsCpI4xjSF/Rl0srzAMk1qbk0kLDSFZsMjjCPWoU+VwjSYE64mSEWKP58Ka9d0yHgy5srVa1imgaFrdNotdMMgz1MW8ynROuDalavE/op33/oZ44sT8iKj13bY3+2g6QpnoxlBEJOmGbZTo9PtcHR8QqveoiwyyjSm4bkYuk2Slvh+wHLpczrySYshUVzS6TRRNZk4rajKlCjLSIoSqRAT4jRLKIsCSVIpSkEclIFKkaEsqNKKQpYoioI0SzcBCkE4LHMxYdcMjWk64u233uXGtQMU2eDR46esQo2zsyFzP2HgeDTrDr1+C03NiYMRShmgSRlUJVGcMl+sKcsS17J57ZVvESURj4+e8ODhfZ4ejem1ahSWQeRH9La2MWs1nFqbrNTI5Bq17hV0y0ExLa5vX+XGrZcJ4gzVMNBMk1azwa/9+m/i1psMz05Y+0sUIElSMQUnpSxilvMJZRbTbTTQ5RJbU2l4HvPRMWGSUEkSW4MBqmbw5b37HB09hbJCUzXWqwVJEpFLFZoC5CWWLmGpBa5lEy0WBMsJulKy1Wug6zKLpU8WzXl8b8KTB19h19pcuX6LvKwIun36g22oQFUUKEQ4XgIUWcLzHDFdrQpkKsoy4+zkAiixDEM0rPKUJI7I84wyrzaBINEfjZMYqayI1hEhMW6jTq1ex9BMNM1ka7ArhrNVyTqIuf/gM1y3zv7+gRheUWHZBr6/5PHjByyXi7/7Qi3LkvV6RRgE2I7ImIqdj6iVxXlBpSg4mwkYEpi2sF1RiVa+BKiqRrfbJYoF8l9RRDqn0W4JFV1VIkklVqWQpxLxek4UhSyKTFANmnXyvGA0nTCZnrIOFlw+uEq9XqfZqNPe6hOHIUkS0e+0KZKA99/6GacnR8hSSb1m0u818eo2s+WSk4sZkiTjuQ7ICkGYsAwS4nSGoSmQpXTSEk2XaTY8qkoiDWIeHI84Gy8wLBO33kSXEKuVskQqRDhDkmRyKoqyAqmkKnLKXHwHRZ6TVIVYMek6iiITxyVZWYggSVYiVxV5lIqSQZagFhXvvvlz/PERy/GY1SogLxVu3uiRlBVurcbr377Cy699myKPufdpRMMx+fTTL7kYnrMKIsIkxal5BEHExXTF7v4ON0wDVZY5evKY2WzJuFyxf3BAd+catWYT3ahRSQaKZlFg4ocZuikSV67j0NJNLMfBc8Xf3tBaGIbObDbGc10cyybNMs6HZ9y9e5cwDBiePuZJEHL9yhUO9nbQNYkiiyjyFEURefL5JvSiqzIrf8nZ2SGmbmDpGopccnF+xr1fyYyaT6mylJql4Vk6g14Tw1RZrJfMl2sMrY6hiB2+Y6lkRYk/PeP9ySmm41Krt9g/uMazz76IbTukhZinmKZJFEZURUoYrFguJiIbUCSkieB5BbKERLVxrYoZg2U5pGnO4WxCrVbDtmxs26EsSsIwQNUkijIjSgWWaD6bo+sG9WYLyxTJvEePHmObFi++9CJFkZEkIQ8f3uPu3S+/Wcn8Wy9USZJI05TFco5lmwz6fS5OE4pqUxEqJXIUDFNIWMsKdMNAkhTyvNjUzyQM3SCKInRDF5BqQ2O5WmHaNpqhI0vCC6oaKmWqES0jVHLKKiNNJdaBoK81W3UURWU0mnB8dEi+tU0UrlnMp6J8S4VhaHz14AuWiwui9ZqKgu2tJpoqsVyumK1CVqsAr+6gqJDnGct1gGrYnI+m2KZO3XJ4dHRBHD3GsQ0u7e5z89plllHK0cWEMC1Yxxn5as1sMqLbbmK7FqqukRfCOKa5KkWeksYZsiQhS4I9HBUZuqoSRxGu61JmJXkcE8TiR6DIykbRZ3F1Zwvb3qHd0tnqt7l99Tq6YaIaOgdXLnE6HPLJx5+ThBd0Whp5luG5BQd7Dbqt7/DZ519ycXeJJGu4jotl2ZxfjFgFa/zVlCT0adSbqJpFs9Pnyo2bXHnmebx6nXt3H+K6Jltbe4RpunnaSBSlEFbXG3XCJOb8/BxZBte2mc5mrFZrkiQna0i4rsuly1fp9Xss5xNGF0Pe/uWb/OLn/5pnbt1kf3dAWaVoqkKjXhMayzBia6Dj2Tpp5FMka7IyQS51pKrCswzycEWkZNiGTqPW5cXnb7O3O8B2DHRTR9MdVn7I4eEhF+fnfPn5PUajObpnMA8i/OUIfzXj4uKU8eiM27dfoOF5qEpBHAl+rqIo4knuTynLnCKLUVWFqsyYLZZCRbHB1EqKLFA/uYofLImjEE3TNrC7HEWRCcM1fhRQc5uUFWRpguvUONi/xGKxxLEdylzMNfb2dnn06CveeuvnfPTh+8w3K6S/80IFiOM15+fHSJRs93rYjk2aBCCJJbF4oFSoqkKaQSWmJOi6DqUAf0kyGy2dRK1Ww3EssixjOplg2yamrqJKpdAwZikUuWiRUJEmCcPhEMdz2er18f0paRgQrSOqDRjq9OljqrIkjkNaDRe9ysnSFKQKxzGppIL5cklRFIRJJtZEZU4WCQZvVsoUOdQbDdIk5Xy2oEgzKDPqdRvXqVGzPeqeizxZsApijk7HlHlGEkXEGfT7KrIq9JL1eh1VkTmfL5gvfIFIzXJmM588F9FJQ4Nut4FrW9iWSd3VKTMdx9Dpdlr0+12+8703KKqMh/fvcuPaFVzDJkgTJNPgeDjmo4++4PDwmGWYslouOdgdcGl/n4uzp7QbXa5e2eYn7zyhkkvOJ2OSosAJQ54+XiApFd1un/Zgm5cOrnD15rMCUpek5AV02h2oVKqqoFWv0WnVMU0dqorR6Jzzi1NUTSNNUhRVpirEubrMS46Hp0wultQ8F12TqXkWrlvHsiyRU/6z/5PPPnyHyfmATqvBRFcpior+1hbtZhtLU6mZBts3b9Luduj3eiiKwoMHDxifXUCZoZUZ33vjW/zeP/kdbNvEa9QFgdLzUFQTWbNJozWLyYinD5/wyce/4s2332f65X1IS1RNIg0WPHnwKyhSbt24yegsIkkTMXvJMtbrNePphKIosE2TLE0FaE8Wx5iiSFitYkENjCMUVRWWdd0gL3OkTNQ3240msqwSpgl5LnavtabHcjUnjUOyJKbKS9rNJlcu7fLpJ+/xox/9KQ8fPSAKQyRJ+ndfqLPZCEXRsDSdKkvQTY2CClWSaNTrTJYZSRxjmTaSJFFSoaoqSZpSUW2SShWGIVATWZYyHq8pipwsTYjJyGMJqSwgz6iKnHarRZ5HzOYz4iRGVmRmkymqDIokuLZRHDKO1sgSlIW4a8VhwGpqcWl3wGyxoNbwaDZr+MECKFAqSZTeDZUyy4kqMWFWFIkyEc1/TdcwdQtVVinyDMiYLVcokkKn08A9nzCbL1mv1uhyia7IzGc+52djVBVkCRp1lTyXCaMUSanICrEi2N7us7e7R55m2KaOVOU0mi5b/Q6WIaFUGc2aKBCUFBwd3cP2PI5PT6hKuHb5Mj/5y5+SqyaqbuA6HoO9KwK32u5Rc+s899xLfLBacv/eHV575QX+8u273H0yoywr0jQhjQIs0+LGrVt8+/U3aLZ7LNcxSVqi6SVhGHF+fkqz3kTTNeI4JE1jHEcIqvM8IwjX1BvCTeP7PmmSsFyucF0H23JYaWsUReX87AJVg5rv4NUdTEPj1q3n2ep0+OKzjzg+POTsYkyWV9x/dERzsM0//IdvoJQZlqHTajQZbPWBksePH1LEPrZecfXyZUpiFCnBdXVkTSavCuqNFrP5EojY3hbmtOViSrPfZGuvy/d/8B0G2wOeHA05ObtgHYXCjzo65lGVUFWF6B5XIqhSlgV5WYrfdaoTxTFGKLCdlIUAjsmC0pkmEnWvzqDTRTNMwiRFVXQUWYYixbEUBt0eSSmxs9WlAMaTET/92V9w//59fH/Nt7/9Au+8+wvefufNbzhLf9dFCvxtSVSSRNi2jWXZWI4lGgQKKJq4c0VRBlQCfagqwq4lyciyvFETpALraOiUhdhTpmlMkgY0PBddV1kt5yiSOMhnaUJVif2oV6/T63Y2bKFC+DqzFKkqKfOEqkixDA1Tl7FMjXa7jqzInJ5fbByXMeP5gjQr8DyhGqiKjLISO7ESjaJUKGXhbqlbLmopYagi+LCc+axXPoauYZs6Dc+BPEOTS64cDLhy0GO7X2d7UKPXa+A4Krs723z7tRd55pnLDAYd6jWbXqfJS8/f5vbNA1p1kySYkkZL+k2PTsPGMSS6bY9mzUFRoKBkulgI5m1WcP/RE5ZxxZcPT1nFBbpuo2s6d+7do9Fq8t1f/z6aIvHkq/scPjpELiqKQubWsy/xwQcfkaYFNdfjpRde5rvf+z6vvv4GummTZDn+es14MqHMMy5GQ05Oj5EVCVkRxfi8KJFkjfliRV7kbG9vY9kWs8UMf7UUUUEkZrM5y9US03Ioihyo2NoaUFUVaz8giTOSNGewd4mrt57l4MoNGo0uqm7y+PCYw7Mhi+WKb73+GvVmkyAMSaKIDz98l6OjB7z6yi2+/2uv8sLzV9HUkiiJufHMSzz/xt9DRhZG8kK86XntLkUBnW6f07MzPv/iM37687+it9XiO6+9gq7AcjoXus9wLdJDqyWL+YzJeESw9kk30VXhTwoo84w4XJPFMQoVlqbimjplliBXBZau0W40MHUBLRueneLPh1TZEqX0adc09nZ65FXKxWjCaDThwcN7IGW8+uqLvP3um3zwwbvfgAr+XR/J87zq3/zHmutx++YLwv1RFTTrLrKqIakW03lEhVjSapu7blFCHASUeY5paqxWK2xHLLzzIqXdahCGK1ECz3NUWYKiwNQ1VEVm5S/QVJV2r4uiyBydnDC8GOKvVlCVqJvpqUxJlecosky/36PRqJOmOaPRmGAdso4z4qJCksCxZRp1g3rNRpbFmTqKc5Z+gGEqtBo1TFllvfDRdYuqBEVXcSwdx1LZ3tmi0+lSbogUhgp5EvHCiy9Sq7dJCpnnX3wFfQOims2n/OKnP+X9d94jzwoW8xnz2YiqSFDkgoODfXYGAzRNo9H0MAxDpIrykqQsOB0Nee6552k3G/yP//MfMpqE9Heu4IcxWRJR5TFJFtFsNvgv/4v/jKv72zy+e5dH9+/z3O1nORlOydQWP/3lpwzHC67fvIVj2ciKhm7amK6Lpmusg0BM4i2bNEkwTRNZkZgvlziOR82tUxTiRuy6NvX6BhIexQTrNbqmYRgWqqqRb/KpURjhOvYm6ZQzn89RFAXbctEsk063g2NoGJqKQsajw0PefvcD3nzr54wuzsjjiIZlMmh73Ly2w2/+1ve5ffMyD+7/ipOjJ9y6fYvd/asMdi7jtbrkG+WiaztohsVstkSSVfqDHlkWYjbq/OWP/pj/6V/8DyzHM1564RVMs8YHH3/OoycnLJZCRGwYJpqukecpRZKS5eJ4pRuaSJflOY6lM+h38FwHSZawLBtFUaCquLiYso4BSebw+JDXXnuZf/YH/4jtXpMvPv+M6Tzkq8MRb338CK+9xbPP3CTLE95++5eC9fXv8fm3XqgA7VaXdmtAt91hb2dAmmVkWUGYlOSVCbKMJFUUlYBMZ1FIHsfohorvr8iymKoCVZOwrc2IO4lZLVfEUYQig6kbaJrCbDohTiIM00TVdVbrgDSOkSjJ0ow8z9AVGUOTcS2TXrvN9tYWqqaSpBFSKQY4h8dPuZjN8eOCtBThBFkCXZUwdBkqmaKS8TyJq5d6dGo2SlWib3TzhqHTbHji1V2VqSSxUqmAIo3pdQbcfuFlnnnpDerdA9BtsjyjSFIM0+To0Vf80R/+L/zVX/yM05MT9vY6uLbErRuX2dnZptXqomomo7kY+oRhyHK1ZrFccDEe8vyzN3njlec5Oz7l/Y/ucnQxw48ybMtGIadWs/FXS27fvMx//h//Prqq8O477+GHJWllczJJMJ02hmmRFwV1z6MoStZhJARE9QZOzcO0bJIsRVEUkZrJU7G0N2385Yrlcoksy+i6iufVKBGMqvHwXFjiiwpJ0XBdjziOxWuhJFGWJVVZCcavoaNqOkGUYlk2dc+j2XTRVHkDPVM4Pz/j7bf/mrOnT1DzmNtXt/jeay/QG3SRlYrPPn6Xr+7dYe/SJSTFYBXGXLp8nSIvORsO2dndY293l8Ggz9buJZBkDFMmjSOkquDk6Cn/3T//5xw/ecLVK5cpSoXziyVnwymz+RKvUUNVJGo1m6v7u2RRgKLJhGlEnmZ0m026nRqDQYvbt29t2FFCtjw8OuSD9z7mr9/+nPPxDMVU+IM/+A949cVbtFsupyenvPfep/zqqxOWZYMbz77OZ198yAfvv0NZlv9eFynwt7WLX3+mszGKrNIfDNBNS0x307V4Gm7wiVEcI0siLlZ3LebTKVmW0uq0SBNhBiuKlOl4RJmnGLqKzGYXGaeE65UgzhW5AEyFIXGWISkqclWhymDoMjXHpt2s06h7OJZDq9nBa4q6m1RJhEFAo1bj4OpVjk5PmC6XDKcjwnCNY2o0PAev5tKoObTaHqapYigVvaaHrkoksUg5KYqCJEtEUUCW5qIYT0WRlrRabZ5/5UW6uwfUt7dA0cWyXNPQVBOqkv1LV7h5+xk+/uhznh4+xTYtrlzZ5tlnn6XRalNIOvcePeXDT74kL0GSZKI42qS6TJbrmDTL+a2//+vEUcbZxTtIFWRZiVP3MHQDyYVnn3kR1+vy0cefcvfJhCBTObi8z83nBqzDhE67Q82rbTKxkjBY5xW27eI16miaSprnwsmS5eia0Fx+fT61bZswCkRWW1GQq4pKrnBdmywREdB1EALguh66q7FcLsUPsKwwXYfB1haTyYyyqIjjjDgeM5lOcFyLmuciS2CYDv/gH/wuSpUTLkYE8zOOhiP+tz/+E+azOaqS0255jCafkJUFXqfH1s4u8/mS4XBImuecnRzz+uuvsQoixrMZ165dxtRUXNfmypXL/Nf/zX/Fj/7kj3j/vXeoCol2vUNZuOzv9fln/+l/wqDfYe3POXzygL1Bn16/j6Kp1JtNTE0jjpfH3QeZAAAgAElEQVQksU/NscnynDAMcJw6p6ePOTl5yPWrA3b2+hwPh/zqi885fnKX3/md3+DGzetkaUYlG9w7S/mXP/lTTk6OvwnZ//92oQKMJue0xl22+9vIKCCpqJooZpNDlOfEeQaUSI5Ds9sjz2I6rSZlkfLFZx+TxiGKVKGqEv5yRlVVggIeByRJjCRJyIrgq5apeC3O8gLDMjjY6VOrmWxt9ZBKOD8fgWpQqDpBIVGVJVevXmfHMIlWC0xdx643mM0uOAgbDHo1dvtNaq4tQhOGsD77qyVSJZoscRRj1S1x1pYVSipqNYs4S4jimDQt2Nnb57s/+AG23aB7cI04TqGaoaBQ5sCGPgclz7/yIg/uP+Txw/uYhk6v02O1DhmvYj744jGHpyOKSiJOMigrDFND12QUpWJ99xHXLu3yysuv8O1vvcTP3nyfBw+PSPMK1zFp1l32dvqcnS/55bt3ePBkQufSqzyzfYlGs4OiCDi0mBtI5LnAyMiqKhQJecloPMW2TPJc3BBdr0GaJPjLNVQFSZKChACtaZqAeJUp/mpFUYopdzGbkKkVlqGJOl8hooCKooAk0lfL5UqkryhJ02hTmzSYTqZEUczWdp+yLJhM58TRGktXqLQaR8en3HtwxqMnx9i2zNXLW1we1Kg5FlJVMZqM2Tu4TJKXGJpBEgWcD8+Ijk545733uXXtGjduXePGjato/Q52zeY//I/+Kbefu82H733Ak0dPuH5tl9/87d9m52APz7EZngcURZdXX3mJIEyQZZ3W7gFFEmOWDUG8TyKi2YjR6Ckfffwub739PuPxjG+9vEUYF3xxdyGyvTUTu9YlSiuiMMD3V/z1Lz9iugz/P12gX3/+DuP433xW/oJWs42qCgauqilIElAUUGYUZU6WJZiGhqZWxFHAbHLB2ckhq8WMNI1I44A0joiiQDRu0pQkS0nznKzYxBDLkjwrkJDRTZMb169ysL/Ftav7/OPf/S0u7e/w5NFjZosA023Q7HQ39bKKmusRpyKPHIU+cThjd7vBC7cvsTNo0ml6NDwXVamgKjcinzq6bmFaJqYlzHWKKsrVqqphWS4FKjeffZnf/r3fx/FqjM/OKNOM6fkpwWJMmUREwZLVbMR8fM5ydoGlq9imyWeffIptGfQGWzw9HfHOh7/iweE5KLqAoZX/D3Nv1mTZdZ7pPXsez5xzZlVWoapQhUKhAIIUQIoUCamlltputR0M2+ELXzh8a/8b/wKFb3zhcHTbVthqN00NJMVRAEEANU8555nPnoe11/bFOoDD7bBCJCHZO6JuKmrMk99e3/q+931e5S0SjaAoS5IsoyxKWlFj6Trbm5t87y9/zC8+eUVeSSzbZzDc5uq1WwS9bZxgg4PX3uDg8HV6G9tUTUtVlKRJRl0LLNtG03WqSsDaLB5FCXlR4Ps+lmUTxwllkXN+fEocxZSlMscrMrykERLP8wh8j7oqWS1XaJqGa1nEaw6uYZiIpsF1HFqUQqltW+I4UVrmpkE0Qg3ofA/X9+h2Owz6fcqixDKUoSOKI2xHyegmlxOmk0vQDXzPZdBx1dVFUxZDgUYn7KKhcos2NjdwbAffccmyhLPTEz791SdsDjewLZ35YspoOOTwtRvEecHLly8IA5ef/+ynGJbBtZvXGA461FWOZRtUZYGsahUYLVvsQKWfB2GAbWk8efyAzz55xMZomyAMmS1iZosE3w8RTcXhtWvcfuMui9mYRw8f8unzS/Kq+cct1KZpiOIVo+EQ01CxA4ah0cqaViqlUVmW1FVGkUVEqznLxYTVco5lGbRyna8iG6paiY+rulbGbNnSrH2uhmFg2g6dTpdrh1c5ONjBMhv++I9/n3/+zz9gf3+Ls9MTfvnxZ2xs7XN4eA3PsUgWc5azuQojcnROjx5hmzVff+8+O1tDdF2iazpVUVGUFYbp4IdDKqHR6Q3xgi5BGGJ7jhJ3GxaGYaMZLtfu3Oftr36TKC+4eP6ELJ4TLWYkqzlZvCCNZsTRjDiao7U1ZR4jigwpGj788JdMlytaw+bJq3OOz+eYtkfTCKo8o5Vqx6oE34JaqHve2ckpk/GMjY09Hj45ptRc7t57h2995wO++e0/4Mbtt9m/ehu3swGGTV6UNK1yzkkpqSqlI9Z1HU1Tp2JVKdZtHEfIVrXcWZYzuRgzn47J4hjRQJJmlOsAqzRRjCBRCwzdwLEdRXKvBVoryfOCNFPQurpplBulaag/z7qt1G6yqEpM02DQ66NpytoXhiGWZSPqEte18Bybuiwoi4xW1Mii4Pz0lMUqpt/rsDXsIBsFsUvzgvFsyfXrr3Ht6lVOzk5ZLSNaIbh5/TqDQR9LN3n44DFJFLG7swmNxDBMNncP2D98jccPH/Ls6UM+ffCEs4tL7tx9g42tESevnrGYXnL88jlHRy9BN7AMCx3tC6Sn3gqqIufFs+dMxhMsOyDLG9JM0NJS1TlvfeVd3v7ae7SyoYwX/PLRCYsoh79n/fJbFyrwBdEh7A3JihrTsvB8D8e10AwLNwjRdIMsLygKlUMp25a6rinLgjzL0FlbidZs3RbQdH0dGQBh0GFv/yq3bt7k7u3XMAxB2LEZDAK293bY3dngyYNPef78FYZhMuyHLGdjJpfnrBYzsnRGlU/RZMy1K5u88fo1LEtHiJq2qbF0DcdySNOS04s555MlaZaT5RUYFrYb4AU9wu4A2wvZ2Dng7jtfYzGd8PCjn1OlK/JEYTwNQ5mKszQiS9XPWYaBrqngpjjO+Nsf/4LTiwnLJGe2SqmlUvooDEuppt+GcrQos7nANE1Ea2K6A9586z36m1e5+/Z7fOv3/5Dbb9xjMNrEcgNMW7Fny6KiKit0TcM2TVxPtfCe69F+wboqSNOUNEtpG4mh6+RFxuXZGVkSI6oKdW0y0DQTa23tKnLV+cSxOoWFaOj4Pr7rqpNftqxWigDv+4GSh8oWx7bJs4KyKhVVQtcVaEAqJ0nYDRFCUJYli+WCphW4joOsFQSsqUrMVrBaLhgvltR1ybDn4zrWOu0+I/Q8bt+6ye7uDg8fPWYyntALPO7cukFRlBR5he979Pohk8klLRpZLnj+8oRut8+dOzd58vgRWV7x8tUrDE3w5v07nD5/TrJagmx4/PQZP/vFx2imw9buPo4boEmVi4NUkRbj8wtMy6USOmeXC4JOSL8f8ta7X+PKazcp85RBP+Tjz55zfD5XYd7/mIUKsIpWtDocXr+Jpin9Y9gJ6A5G9AabeL5yQtiWg2k7OLaDZSmkf73OWG1lo9CPbUurgYZOr99nOOhTVxV+2OWtt97kK+/cwfN1TLOlyBOyJMLWYHZxjut6CFHz9NEDLs+OmU8vkSJld9Ol39E42Omxs9kn9C1aKanLitCz8VyLLE2ZzSJmUUklDfK8YLGMWCU5SS4oa2hag7Jp0UyPwAsYnx1hNAWuoREtFjStxLJN1R2UGVWRIYWgKgpkK+n0uhSF5Ac//CmX0xVF2ZLXQrX6dY0UAr1tadbdiKgbqkoQhh02t/Y5uPYG+4dvYvubjHZeY/fqDTa3D0C3SNIM27EJ/ADLtmjqhroWeI6txOOGTpqqxDDRKKtVXpaIRvkudW1dgHmOJhssQ8cwDdQQ0sQ0VbxkUaiT0vN9yqKgrCoa0aC1kk4QKiZSozoV0NBNA9NUv1/TlO67aRv6/R79fp8wCCiKnKIocD0fx3FxbIfxZEwlSmzLpCpysiTBsSxMvaVFsogixtM5vdCj1+1g2RaBa9MUGYahcfuNN2ilBo1k0AvJ0ojLiwsMw2S0MeDmrdc4PTnm5PSC8XTJZ5895uWLl9x+/SbT2YRHD58QBh1aWfLtb36d5XzGeJ32NtzY5u8+fshf/+BHHFy9xp0379MIyeXFKWfHr/BdC11vqWuBaHQuJyvFAHPgtdfvcO8rv4NuGliWwacPnvDg6ckXntl/1EIFSNMY17a4sr8HtBSFSk1zXbUj01CuBLVvcwiCgOGwS5GnLObTdbqyIjiAxsbWNr/79d/l2pU9yjymP+xy89Y1ZFtRVhm2pWObGpYOg16fXm/E8fEFk9mC58+ek8ZLhn2P27f2ePveDbq+Tuga9AIHS2vVwnoNYsvzkjjJmK9iKmnRamubmZRr4kHBfBGzWMacnl0SJTl7OztoIsfUaixLpywydFMJNfS2pakrxd41dJq2pdPp4jk+ZalE1RdnU5ZL1f5pLQSeQ8e3CT0b33Vp0ZCaxdbONQ6u3aE7PMDrbNG0Do+fn1IJnVWUc3Ex5fTsgpdHJ5Rljagbzk7PyXNF1wjDUE3Nc0X6r6pSqcXW8DFFLWgwNB3bMNFRgUWO7WJaNppu0rYarqvkcEma0Ol26PVVSrxhGCq3s2nRdUWaNE2b0WiEaVlkWQ4t63Zb2RlbKcnzHGgIOwFB4DOfz6hKpQmfrTcENBJRV4rtlJXUVY3fCQi7IYv5lFdH5zRtg2l7OF6AY1pEyylZmnDv/n2++u476G3D1uaQo6OXFEWO46hh2pUrh1y/cZMiL9dKOji/OMfUoRWCn/z4I9pW4/Tikve//g1ef/Mu0XxOJ+xgGDarOOHl06fYhsFrN27S6fdpmxpalSJRFSXz6US9bIUaDApRoGuSvc0RW7u7eL0Bzx4/5WcfPiQv/2Hiht+6UBshFPVvOUejxXM9iiJjuZyhIbFNJYCYz6csl0t63R5B4LJczJnPpuquKBps1+fWrdu8/97XOdzfZbW44OrVbQYbPbIiYbaYksQRRaZOrBuvXePu3ftcXs7567/6IXUlcG2NXsfi/pvXuHG4zeZGl07gYZsGVZ5h6q1ySDgecVwwXxvC4yRjMlthGBa6pi53jVhDxzRlQC7X96ud7Q0CV+fs+CVCKBtUvFqgSWW3Ws4XapjV7xH2OtiOR1koiuObd28zG094+vQZIOmFIR3fBilAQl7UbG4d8Pa73+DG629jOgMaXJrGIE1LoiglTUuSOOXlq1dcXo5ZrSLOTs85Ojrl8aNnxHHK/sEVRsMRZVVRVqWa1FrqJVTXinJoWxaGbtBKFTjk2A6yUXR/23XxAzVcclwHUOA0IRS0bjAYrDN+CoqyJux0sBxLdUS6qQgYhXopKMi6OqUty1Qs3CRSnOg1+KxZt711XTPodrF1g9VyToua4krZ4oUee1d28V2bz371MfM4pyhLXNvGtU18z6aq1Am9MehT5ilSKqXccDjg7OyM4aDP9evXVLyXpnFxeUla5JiWgawrTE3n6ZMXGJbPfJnw45/8gkHf49XLF5xfqNCsJ0+e4Dk22xtDrt+4wWh/D72tacoU37VJ1+RGXTMwTAdNb3FdkzqPOXn1jCLL2dzcxNLhL77/E6L4N5/8/lqFqq0FANFqxeX4govLC4oiBymRokLXWhxbkfTrusI0ddp1NIFjWWRZQd207O4fcnDlOjubm9T5ktBtMYyaUgo03cDQNbIkJU5idrY3+eAPPmAw2OD7//tf8fz5EYYmefveHvfv7rHZdegGDnVTMxpukGUFs9l0DQDvg+5QFA1RlLFaRshaIhtJLSpsU8cyDEDg2haebSNFhWmAbuqkWcLh1QNEVbKaT7B0yeXJEY2o6XS75EVJHKVYtsP27h6D4SZxnBEGPv1uB1FmtLUCroWeS891mU1X1K3P5t5tDm+9y/bONeoa4qSkKARpHCmPpw5lvm6tm5pWNliWQZamZFlBXuQs5wvCMODg6gEtysQtW7X7bBpVbKKu0dDodnrYlk1dVtSVQDNNDNPEsMw1YV5b43XUtFPTVNJ6u6YUhGGoWmPbxvMckjShFg3dbpf+oE8LFGVJliW0rYKpSyHohB0c16WqK3Rd8XENw8D1XDY3RtiWoWSiGoCGYZqgK8jczmjIX/zF/0pUNISeweHBBnt7m3R7XTQk8XLByckpUrZ0O11sx2a+XDKbTXn/G+8xHPb42U9+xHK5wHEddre30GWD0Sq/7vOXp7w6OqfT7ZGkK548+Jgsr/j5Rw+4mKxI8gJouX//Ld75xvvQVhw9+RXPHnyI41o4nsNqGWGYDklaMl/MMUxBVabkacz0/JjLk5folPzw5w+ZLRPgNxso/VqF+vnzebxAlmUslwvGl5fMFzNaKZXsrNtl/8o+oq6YL+bqg5AoCpxu0B9sYRoOdbHAN3IOr/SZzccs4hTDcohWS6I4VqgWz+XOrRs4lstf/ru/4fmzZ2xtdvnW+7cZhjpJtKBFoywFw+GI04sx48lUfROaLqdnU9K0oMgrFrM5rusRdntEixV1XeA6Jp5jEfoemmxo6gJkjec7LFdzdE3jnXfus5hfIqoMhCBNIkQr6XR76JqBZdn0BgN2D69jOw5SKombLEvu37vP5XhBJeBg7xoYHXYP3+TWvfex/AFpVnBxfk5RKmRLkWVoUhHaG1FB21KUCjZdlzV1LZQCx3EV8gXY3tmiLAt6/QGO45CXBVJKLMOkEYovZNu2ok80DWgaruNgWhYSiWg+5zspuaTrOOi6RppmpGm6jhG0yfOCRgpcx1K+y3Xhgpr4ClFRi2pN7FN5upub2wRhsJYteuvil+iA59rIpmY5nzKdTHB9n1oKJpNzkmjB+OyEjz76iKyo0dHY6Dsga05PT5BNTa8TUGQ5VV0z2tzg8PA6L14eUTcNX//G+xwfvaQqM05PT3nzK+/yxltvMTk7JvBcNja2ePz0FZeTOYEf4DkGb715i/e/8Q0ePT3hwcPnGJokTWJ293a4+9abnL16RjQ7I3BtxpMxTdPieT5ZWnJ0dIZsBb2+wgRlWU5TFtRFynI+4fHLM2ZRRftPWaj/t6JtWxrZkOcFF5eXvHr1iiSNcRyHnd1t+v0+8WrF6dErVssVdSMZbW2zt7uJzZKdQUvH15kt5lxMI2rUfamsGlrN5OLslMBzGPY3+Df/8//B0dEzXn9tk55nEy+XFFWFRMdxfUTTcnk5pq5qTMOmrGAxT6hKJeaXGqRFRZap7NI8iXBsDUOXiKokXqjsHc/RcF2dsox58fIF21ubvHH3Ni9ePMX3HMqqpGkrNrc2lc1J1EgpcWyHoNNjc2+fNK/53r/9K54/O+P4IkF3hrTeNq07ZLh3iNfpkeUZeZaQZzmGZRN0umi6jm3ZSuWjq4FO0OkShj1GG5sUpUDXTTzPXzs/UvrDHnv7u7iey3IZMZnOMHSTIAhpZKtUSHVNK9t1onVNmmfoho6QEtf3MEy1D7Utk35/QFmWzOdKoPKF4UJK9vd22drcoChzRNNQV4IkzxVVohNgmqZatVk2rudTCfX3dnsdFWBc1Yh1+HCSxizmM8aXF8xnygaZZTE/+Jvv84O/+h7paq6m23VDmRckqxVlusKihkYdFK7jkCQRk+mc4cYGV69e48nTp/zBH/0hlmVxenTKZ58+4OrBLjubPc5Pjnj58jlbO1scn57x9OlLev0uW5tdbEvwB9/5Fn/z/R/RVAb/8Z9+QCfwOTk54dqVXYZdn6au6HZ6BGGf6XRB20iVs3M6ZTyeMOj3ME2XLK0wDFvR8UOfp6/GXMyLNT/r/4NC/fefpmlYLle8ePGCs7MzTNPkYHcPZKNyOzshm6MBnqOzv2ET2Dk0FfNFxCqpsO2AulGKmrIoqaqKjeEI1wn5xc8+Jo5n7O8M0IQgjVMMSxnUy/VpU1Y1VQOGHZAVLeNZvG7DDaTUmM4WVFVN4LugCURTYxlQlev0OiR+YGOaGqsoopYaZ+MJt2+/TrcbcHlxQiMrgrCD7/ucnpzheT5hECKkRne0idfpMtze4/j5Mf/Ln3+PtHG599VvITSXuBDMl+pE/tz+10qJ1CBOYooioywrxcXtDbFtdy1QsGga1ZJ6XoBtq+lv0wi2tzcIQp/lcsH5+TltK+l1e6Br1ELg+aqoa1FTliXRKgLAC30MW+FEslyt0bI0/eJ+2q6FKKDyhYqyxPE8RqM+vW6HuhKkWYZspdoxGjqO61CVNY1oMC0bUVeUa5Zx0wiQLbZjk2XJmnZfYhqKrpHGK05PXvLi2UO0ViBFTZIXaJpNFCeYusXO5oD9vW0sRyXTq2SDinL92ff7A1bLBW4QsHdwlc8++Qwhanq9Lq7jcO36NT59+ICHj58gpc6LVycUVY3jmnR9OH71nNeuXee/+a//K9544xar1ZKjly8Z9EPuvnkbUQnSrKTXHbBarfjkVx/SSoNud8Snnz2mrBuKUnJ2PqYoSna3N9nYGPE3Hx4zWWb8k7a+/9Anz3NOTk549vIFUtPYHA1588YhHc9hPj4jdBtCr0WUJU0t0U1VcFmerUUUNXVdU+QVaZRz9Owly/lsvSIwMQzwO4Gi6xUlRVGh2RaXi5SPH53w6OUFeS3wfQ/LNilKwWoV4Xs2jqfgVtBiaArrCRLHMXEsm6DToxAt59MlcVai6QZ37txW/Na6YGdX5aHGcYqoa2bTObrtceX1u8hGYtg2+Srlk4fPuP32N1kWShRgOxamZSJli2UpvXBRFio7syqpq4oyz9kYbjIcjkCyHngJyjKn3+vS7XaUqigvMHUVPO15Hlqrvg6jjU0812exWFLWNabt4Ps+jVDrqm6vg+u5eJ6H47gkSULTSKqyRNRqn2vbNm3brqfI6odhGFi2yaDfVcOhVmM6nSLXyqRaKKys7TiYtqWkoYa+LvgWIRSKsyoLsiRWJIQ4xnZsaBumF6dk0QzHFPQ6HnES8+JoQi1rbNem0/FYrFZESabUTo5N1TSsooQoimgaQVmU/OEf/TOePnvO5cWEe/fuEUUxlmlSC0mcF/QGIxzHYzZZcHJ0QV5JTs/OuHVtG9+1ePerv8PTZy/4sz/7My4uz9XAdDVlb2+Xei2eQGo8f/KU8fkJjWgQjcMnD54zixLC3gBdt3Bsk9FGn1fjhJ99dkLxW6iT/l6t72/6tK36JnQcF9uycB2Xfr/PwdYI8pjTkxOmszGu3mXU3aepKmglG70OhqEM3KtYsZgkMJ0v0eQxcZaxiAWnkxUbmx1M02AVZWuJnEOaV5SN4OVZzCePLxjPEna2emSFOjUNTaffCehoJmVZI1soM5X5aujgWiZmC1GSInUbz/HxPY+kqPjpLz5GNpIPvvUev/z533J6OkaTLZ7rkGc5um7h2jbpdI6QwMWc5TyiqFou5kuivGExnfK1d7/GwLQ4ObsgWma46zCsvCho6pLWAGyTplGEPN/3qOqCosoJO4F64RQZQpRUVU3oe0rZZVp4XsBqFSEbpVDK80JB6ERDXqv21Pd9FbibJGTTGb1BnzDsMF+ojCBQKx3f99eT43ptaNZwPIfhYICmaUTRiqqoMUw1DKrqUiXzNQLdMHA8V10HXBe7qr4oJK1tSLOERqpT23VtNCSrxZQ8WYEoqYuCuq7oBh08JyLPSyzXoJYOSSGVu0WDOK9wbZPQ79OIkudPn2NoOoPef8bh4QFPn73g2DbJ0hTHNHnx4gipge+7XH/tJklUIcQP1ugc2N+/xrtfuc+f/Xf/A3/30SN29/rcvHkD0Qg+e3DEw0ev2N0ecmVvj6PjV4wnE0xD7YDRYw72t3jw7CVRnLG1OWJ7s4due3zvb37J8p9CmfTrPLpu0OuNuHHzDt/65ge8+/bX+Ob7v8e773yVqsx4dfQC0UiatmW+WGJaJn7YYblSEO1GVrRCoT40zVSytLqmbXUWUcw8TnE8m0HfRcqaptGopMFkVfHLhyf86OePeHq0otMfsbu9ySpKeXZ0zouTKReTJVXdqj2bblILKGpBWha0rQaoBX6raSRppi7+raSoSrJC8OLohLv37vHWvfsUac5sfIljWWxvb+M4Pp7f5ez0ks8+fcjf/uBnPH1+zMvTKeOo5K2vfEUJ29fUhOfPn2JoOmHYwdANVssFeZaC1DB1A8dWmuCqrijrGonE81wVvBVHyFbieyraY2d7i2F/SFkqBVGRK7yr47gY+jqVr5FURbn++zNaTeK4KobEMEzSKKYsy7UXVSKEQp22EizLUTmflsnW1gaOZSFqQeApQ3tZFsRxQtuC47jqxZAXKh1gPcAqy4o8z5CypsgzkjgiTxN0XadtKpazC5oqpchiFrM5shb4ts/mqE8cqyCuOCsQa/1tllUkqULJuLaD63mkaUqRp3z729/kjTdu8/HHH/HJxx+jyZbJeMKHH/6S5SJSgzbTIk1LfvHhr4iTiKtXNrl6cMC//p/+LZ8+PMULugjpsljmzFcpx2dKtugb8PTBp/zqk0+VEEQ2VEXB9taA3b09Ts+nzGYzwsBF13V+/uCYF2eLtXbgN3++9ELd2rrCO1/5FvfvfZXXb71OK2ouTo94+ugzZuMzWsT6rlSxXOXM5hFxLji5WCB1i6aBJCuQrbFOVavQ0ZFSZzpbUZQlw2EH37Uoy5qkaPn44Sk//egp4wj2Dl/nvd/9Fn/wh3/MW/ffYTjokcQpUZRQVA1RkqokNiFZLCMVBW8po7C13uOJRq5FEilCVDiuB7rDbL7i0aMn7Gxtc+fWDfI4Is9TbMulkQYvjs84Or5gcrnk5YszJssU0+siDYeyVKyj6XSGaanViOu4WJZDkmREkQplBqXYMi0FkUPTaAHP9+mEAY0QNI3AsW2CIFyrfGwGw8EaUKci/dA0fD8g8H2V+6NpiqTRiLUmWE2Gi7UEsW1bZNuSpimLxYLVcklV1woeoKmcmbzIVbIfsIoiWlrCMMR2bbKyWIPHlaupyHKSOKEq1N0/L1KKIlEBXFVJFsdkeU4jBYYmKbOIJF5yeX5GluVcvXqI55pIUbC7vUG349FKlVQgms8ZymraX64pCd1OQJYljMdjDg4OaESNJgWu4zIabbBaxXTDHrblEq9SsrTiwYPHFIVA10wePX7OYpkwHG0RJyVtawAGoGHoLVev7DG9OOfBp49YRjmtZmLomroqWCYbGxv0egMuzi+oa8HpLObp6fK3ank/f77UQtV1g7ff+QZ7e/v4ljyRHX4AACAASURBVMX88ozLs1cs5xeUyRLPNTBNRWVrhPKgLqKMs1nMPK5IMsF0njJdZiyWOUVVY2gGnu1RVQ2T+VINRxwb17YYjxMevrjkYlow3LnGN7/z+/yH/+q7vPu1b9AbbRCEIdevXWV3a4Myy5jO5uoEzWtmi5isKNjc3CD0XapS2drKqlLCciS6Lr+IXBQC6rohSmIeP3rExqDH3t4O08mE6WxFWWvkZUuaCybjBbXUaU2XuGzQLYeTkzPyoiIIQhV0G4TYtktVCZIkVeucVuI6LqZp47m+cizppiI42qaiureSIAyUljdVocl+4HP16iH9XnftQlLBR3VdMej3sSxLDYU0NcFV7pZ4HTXiYJgGoFxDcRRxenLC5PMVl6FE/bbtoqGRxAmtpuG569+nqRdbUVYKfPe5fruV6x2u6lPyPELWJbQtsi4p8hwpFTJH1AWz8RnT6YSLyzHTZcyf/ul/wJ/8ye8TrSb0Oz7vffU++7tDRFlQFgIhpLq+g5qkahq2aWFZBqenZ5yfXXD1yhVsx6LX7ZMkBReXM6pKkuYVFxczLidLppMVcVpSVpK2NXDdQO2Ua0FdCWVGsE0MHRazKa9enjBbJKSlSvzb2Rpi6qCh4ix293YpyprnR5ccz3KiXPy9LKR/6POlFurm5j5333gHzzFp8hWziyPSaIasS8LQw7IMHNfFd12C9U5NNMpFE/ghVqtBA3XdslwmJHlJJRrkevcnpSSrarKyYpUUXExSehsHvP2Vr/PV977F9Ru36Q83cYNwPblUHKarVw/ZGI2Io4iLiwuEbBGNyoexTJNepwOob15Rq/WH69q4rqMYvY2AVqDpKpFuOpkzWyx586236A8GxElOK3V03Wa5jMnzilazyBqd82nE9vYVTNPFtjxGo018zyfPS6pSIGW7zq1pMAwT1/UwTRtQSiLRSLZ3d9c2tRVinUeSZTlVWdI0Df1+n40NlXD2+XS1aQR1U69B6Wt9tWzWbWjxhSmg0+mioZGl2bo1FtSlygRVJzN4nocQAimVkULToNvtoWmtenmsT2RRr6e9hooLkVLZ5MLAByR5llKXOVVVYhgGYRDQ6Qak8ZJoMWWxWHA5WaikvLbhtcN93v/aO7x2fY9bN68QuDY7Q8VYXi3nFKVANNBI8FwLw9DVKqduSLKMG7duc3654mIS8+zVOeeTFZfziIvpkigtqRud7mAD3+/ieD4tBoZlIRpBWVZkeY6ua7i2QyMappM5Qmj4Xo9GSD744NvcvXOTk+OXHF7dZzDokRclW9s7PD2d8+hoqownX8LzpQ2TNE3jxo27uLbNYnJOtrgAUeA6Dr3RCMdzqURNJwyxdJ14taTX6bO1uUWU5/iej1lXaqmum1xMpyyThDhZMZkv6AYBvuvi5DZxUdEdbvDWnRu8/c7X2Nk+AN2g1U1WUY6QimxuOxpC06mF4ODG6/zpv/xXtKLhpx/93fquo/Hg2SllWfHa4RaeFyBFRavpVHWLbJXayjA1XFNH18HUTVaawbNXl/zrP/9L/viPvs17v/f7HD99zsX5hE7gYZku42XGyXJJVUl0zcZxdGqR4QcdbMtgtS5ox/UVPwnW5nMNz/UAg0oosb5tO2iNjuPYRKsFohY4jotrO5RFSRRFKvxoPWFtabFsC8dwlegeSdtItFZFWzqOu46F1DB0jbaBuqhYLpfYls1oNKSqSuI0JlrN6fZCmrzFdNSUWIgGKcGxTNI0wdX1L2DWZZljWUrcj6uBYSi7mOUALUHgoWsBUZLRSKUQ02iwTIOqqinrBt3U+cVHv2Q5OeHurbt897vfQjMCPv3kl9x74x67WyMsG2Zxxcl4wdn5lChRJ7psG3QNknzJ9/7659y8dR/dcBnu7TA8WCufUJ9jkascnsD1qeqKxXKpdNJ5ynI54/TkmHixJMlKtFbHdvrKnxt0mc7P8L0QXVOMZV2XGJamXuaGhu0pXNGX9Xxphep5HSzDZja+RFQpvY0NQt+jbVu6vS6mo7yMnSDEsx0sr4vlzRkisT2fJE4oV0t2HBfd9tg/SJnPL7kYn7FcLkjTgjhKGQ23uX/9de6/8zvYTqCEDpqJabr0RyPieEV0MWVj1KPXH6BZGtPZHNcwObz5Ov/Rd7+L4Rj89Y9+ghCSum15+mpMVde8fmMbo5WIOAUC9LpFNBWOZWKZCpZt2srcnNctv/jwAZPpgv/ku/+SW7du0RuOyKtPePXJU6ariixVUYetprO9s4M4OaeuahWh4bgURfNFNAKOpu53mqawlcDW9g7D0QZJnJDkKXKNs7Rth06ng6hq8ixnMplw/fp16rpWAOlGYBgafugzGg0xDJUGnqYpjZBomoGhtYSBT12XzFcLpXumpdUkXugT9jq4oUcjGybjc4qyotMfsbd7gATyPGN7a5+izKmK8ou4QsddvxzaFsdTyX9FnpFmGZtb2/S6AZeXE+omwTA1pFTRka0Qa86wpDV0qkaS5imfPvwVL//b53z13df55FcPOB8v2NvbxfEdDkdDDq7ucno25vmLYybTCAE4pvLI/vTDh7i9m9x+43W2dw/o9jrYjoFsBLKuSSJl0wt8H9f10U0Lx3VopSDPE6bjC06PXnFxdkoSRViGjk5LWaQEouLfff+H3Lo6oNftINuWSlTYnsPF2YrZIv6ySgv4kgpV03Tu3/8ah9euYdHiezaWa6kPTFdp47ZjY5s2VV5SN5L+1hUOrr9GKyuqSjKbzliZNnt7exSV4PLiFFkH+M4+s8BlPMsYbV/jrXe/TjjYJE4L8rLB8S1K0dLoquWR6EipMJKdTg/TbimzgmQZkVQGN+7e478Y9fGDgL/8/l9Si5ZSSI7PF5gm3DrcxTQ10qLCdm1M20OzLLKspKlqTLddJ3zpRGXJz3/xKUfHp3zn936Hm9euMp7NefzkJSeXMa3VBcNF01XKnWkqv+diGZEkmYr2W3t2RatSqF0/oKorZKMxHA6Rbct8PqeWNUHgrHEnqvUtciVMNwxjjWAxSBJ19zNNteJJkoQgCBhtDDEti/HlhCovMTWNQtdwbRPPtVgUOULWdPwQzw/ws4CqqjANg1XUUjdCaY+rYm1za8iLEt8LiKuaLMu+wLG0bUtZV7SagW97pEVBa2j4nYDxeMp4MgW0datvURgGVaXiPSXQrp0uAuiNfLKi5vnRBTU2H332mE8fP6WsNVrNYmujQ7/XZWszRNNaXD8kSVMuxitWiRpSDncLTL+mNSVaVpPnKa5lYeg+huOSlA1pXTHc7KE5PpZu0OguG7s+V67dQachjVdMxudE0WLN6oLTF4+Yjh9w7fCGQtoIiW7prNKKyZdcqL/1HdVxQ95595u88877XDm4wv7BPt1eH900Vdq25eMFXTrdAX7QBc3EsB06nT6W5RB2+rS6QSVb/LDLYHOLVjPWTo5GUQIKyfVb7/DO+39EjcXR2QVxmmGaFmGng2M7FEVBXZWYuo4U9XoIoGjvtu1SCzUt1A0T1/O5dniI2dZML87IS4GQLUmq0CBbGwOkbChroSBseYllO1iWoxwiUqNparIsJ1/TKl6+OuZnP/uQKM7Ji5ZVVGJ7PV6/cw/XC1kuV4xnY/b29zE0Yy1z1JCtIM1SQCcIOjiuh+d3yLKM+XLGdDrBssD31NQTWOfRqmGc73uqS3FtwvDzPWsOqElvlqYkcYxtO9SiIUtT6qpCR6NpBMvlQgVI6xpJluJ5HqZhUBY1RVEShB0cN0TTHCzTJfA6IDV836UsK2Qj1sIR1mQJTXGSakWtqMqC05Nj0BQednx5ztnpCUHgYeoGtmVRJDGz6QXz1YpVmlGJRiWat5LA72CaJuPLKf3eQIEA2lYFBWuQFylZnpAXKb2ux/72CNtxmMwW1I3B9t5r7O4dYtse0/mck7NLylIQRSlRnCOkxtXrNxiMRpSiUEaGplUuJNPENE00w6SqlaR1Y2eP/tYeg60Dbr9xh+nlEZPxMZtbAwUBxOHRyzE/+egJtfj1aYP/b89vVaimafPNb/4hv/P+tzk+OWI8HtM0klo0tGiMNrYIwgDdMNAw6XS6BEFHhe3oOnlREcUJ+1eu0gJRmtEfDBFNSxD4VKLg/PwS0w65+eZ7RKXOy+NTPM+jPxwipCRLMizLVmsIoC4LFZT8+dBk/UXXNDB0E9NyqBvo9bpc2dmiLiuW05n6tRLKssCxTfq9nkoH1zRkozJEGxUGS56l2JaBbpoUZY2m6XhuSNPqZHlNLTSitEa3PG6+/ia7uwe0LaziCFE3OLaLY1u4rgpt1g0D1wvwgy55JTBNm1qo9RAooJjvqxNOJVfr5LnKrrFMW92dTWMNwG4U0b6qMQwDz/PVwKooyPIc2UhM08TzXFopmUzHar1h6mqOUJTYtlobZVmG5wWIWtII8F0VT9LpdCnynNViRZ7laFqL46hdpmwFTVNj2w6u55MmEY5tIJuS+WzMajEnjSM8x8ayLOLVUokdsojZUqmOmvVdWjaSpm7ohAFJnBDFOTdvXGVrc8R0EhPFOZ1eiGkaBJ7NoB9S5DmvXp0yTySa4XDl2m0ODq6RphlnZ2dq5aSbLJcxF+MZYHxBsbBdGyHX93/HxTBNsrwgSTN0w8IPOgS9Pq1pkRY1w9GI2eSUH//or9je6jIaDRHS4Be/esGvHh3/VgKHf//5jQtV0zTuvfVV3v/dDxiOBhwc7GJZ+nqC2aIbNkHoUlYZcbRiOp2r0Fop1Jg/ikiThOVCmcB3tnbwPZcf/+hvqSrlPayriigpGGwcMNq+Smsqk7MfhHihR7sOR9Y16PV6lGXJbDpdryAkRZ6DrorecdQJq+xQFi3guD32dnex9JbVdEKeZhSVmkJvbvToBq5qEYucNMkRrVTIyLIEjTW2BEzdAAnLKOHl0Tmnl3OqRmP3yg32rlyjqBo00+K1w+tYpkq71rUW17EIOyGe72M7HpblYVg2tm1zsL+nEvVqgef5uI6LEICufxGmrOsGWZaRZQWD4ZA7d19XE8t6vRttJGEYMBj0vxA++L5PECgoeZZnOK6HpusYtoXtOJR5geN4jDY3aKSkKEp0w6DTCTEtNXnurqHceZogW4EfBJimIjwmSUSaZthrd4/nuQy6AafHLxhfnKouIAwJPBdRFWTJijxdkcYrZvMlqyRHaspd0/F96jJje9TF8z1OzyfoWs0/++DrvH3/Hp98+oLZIsJ1LDzHRNd05quSk4uEugHL63D7zjt0u8O10aGhLNVd37Rs/KDDzu4OJ6dnRHHE5tYmy9WSvChwXZ+iyImTZK2gcrFdRwVWS5S7qSrZ3tlmPrukzCYcHOxQ1Trf++EvuZj+/6T1vfPGff7T//y/pNcbcHZ+xpWDAw6vXiPPKsbjGYPBkMFogK63rFYKpWgb1hf0+16vS1UVTKYTppMpSRqRRDGNEAy6XUxdZz6bcno6YXPvNeygR5IX2J97JFuJ47kEnr9ed6ixf55lmKZKnXNdl07of9FGNXVDURYEvo9lOyyXETt7+2yN+mTJimgRkVU1cZ5jGRqmrlEWSn1imoYizScpyBbNgDRNKNIUDRVEnOQVl7OUOKvxOz22dq6odZHfwXcD7rzxJrt7O3Q76v+uaSq+UiWsqwITtUC2LaONIUIoagNoJElMnme4nofvBwBrFpWO74cMBwPC0CeKl1+sRT4/sXu9Hp1Ol8FwiOsqcmOWpxiGQSfsUNSlmiHYii6YpzlpljEeT3Bdj62tbTY3t0jTlDzPME2Tfr+7HmxZmJZOXdesVguiSJ3mRV6SpclacLLk5bNHtFLguD6Dfo+mLsnyBNsyaIqcLImZL1es0hyNNSmilXiOiWNr+I5JN/SJljHzScLbb91htcp49OSELC8oq1wB1jWf2TKhbKDX3eTOvXfx3ADfdciyFCkbbt18nSTN1yA3GAx6bG1tUlYlaZpycXGpSI6WhWWZWJa9xqfaGLqBqFTUSp7nhN0+mxtD9Dbn8OoVJquc7/3gl0TJ/zM68bd5fu1CbYGtzT2+/cG/4Padt5jNFnz00cecn12yvXNAUVS8OjrB8RzlzWykOhFch9FgCFISRUt0DVzboqoKPM/F0HSiJMa1bAxDEi1mvHr+HE13OLz1JlLTWSyW2LbD7t4+dV2zXCxZLVdkcbLGWwoF+rItqqrEshRpoKpLNE3pVquywnFsWlqiVUKeK0fI9vYurZAsl3OyvGAZxerDsW0M00DTFHW/Kktsx6IoSoWrdBzQTaKkIklLZcwWDd3uiE5vQJwVWLaPkC21qAk6HXRaRK0KNS+UXcy2PUQjlYOmzKjrirZVK33Vzq6oRU0YhArRWQuiOGZjY5Mw7GA6JqNhj1a2bAwGBIFPEIS4jguatl66tzSixvNdBoMBrufj+T66riur3Zrlq6GrSXOWMhiOCIIui/mSPMvJsgzbsv8vlZKukWQReZGRZxlNowZZvu/R7wbkWcqTh59hWzAY9tB1A1PXEFUJsmE46JMlSyaXZ8wXS+K8Yn3DoG0klg69wEWXAh1JJ3CYLyZMJlNaWbNYxuhrX2ySViyigrKRNBK2966ys3uAZdlUVaVS/9Zxkovlkk6nw8bGBnmekWU5um4QBiFxmjGbzkjT/IsEgDiOsS0bUQlE1eCFKoIxSzP293fodkLmUcIPf/YZP/nwyW9sZ/tSCrVtW8Kwy+9950+4++a7HB0d8/jJE6bTGWWhIi8WiwVRFGGaBv1elyRN0FoIwwBN+xx6nTObTqnKnCv7ezRNSZqs8B2LMo958NmvePjgAWlWcvXGbSy/xypJcR2bK1eusLW5ReD7JFHM5fm5mk6aFmfn57SfQ6KFQMqGMFS8HiU8VSHDUir9cBqnCNnQaBpXrxyyvbXJYjEjiuZEScZsFdO2CmUq1v9uy7ZwHAfLstdyvgYhNNJ8ncFT1pRCpY3t7V+lkZpKetM0xuNLqqIgjWPatsFxTEVSMG0sW2XNBp0Q3w8VRT8v0HW1vxWNwDJNwiAgilYqxtLz6PR6Kj7Q0NjaGrG9valiPGybMAyVFrUqsUyDWtSkeYptO4Sdrgr5chyGoyGmaXJ5eYlpmFimiWzUvbPVYDZfKKFIXZMXytnUthLbscjzhLZV8PG2bbFMG8dx6AQehgaPHz0iT2O63YDRcIBpGNRVidZKdAN832F8dsLl+TlRmlGUyr+q/iydQdcldExMrUVrG0zTpkWnSDN830M3WvS1hfF8mhHlNVUjMQydvf2rXL12A9cPyPOCoBOyvbvLYrlA09WUvaxKkiTFMHTCMKCqazTNQDdM4ihhPl9Q5CWL+Up1fkmqUKh5jmW7dLsjmqalrBv++//xz/k3/9sPvvQihV9zPWOaFrdvv81X3/1dTk5OuRxPQdPZ279Cx/cxLZ2yrJlOL4njFZsbQzzPYTK5ZLnQMQ2dpq7J04RotaAuS+aTc8KOj8gjjk+PKYuMy4tLilpja38PzfJZrJaAgee6QMv5+RnLxYI8TTnY20XXdbJcydPm8zmOY1OLmm43oGmaL9rAeLXC+T95e9NfS5L7TO/Jfc+TZ7nnbrX0QrJJkSKHHA08km145sPYhmcG/uD/04AND2YGgiTYsDSSKIoUqV7I7mZ1dVXd9WyZJ9fIjAh/iNM1MGBR1qilA/Sni0ZX9T2RGRG/932ewDdIk7YFh5PsCBohSYoV7773Ho8Pr9gfjxy7gZc3O3oxcbWeA+AEmmNzZBIm1WRpTgvWCJ9tx0JpBRYcygOul5CmBXI0Wd8mS9FhhFIjSeqf5o6aphXYjk2azgxqpevwTueqr5i9fd+y1QqtzbYQJdk9PhjthGVgYq57hpLmIsm2HYIgwHVcHNeGEz9Zaok8pbP8wCcKQrKZ4OnTZ7i2Q32s6fuRUWm0gkH0aEsxyQHXtYERpRxsNHEcY7saz7Ep9wcG0XG2XGJbmtevXmKpyZSpPSPKRgk8W9NMg2Frbe/ouoZ5UWC5EcrZUTUNXS8oiog8j9AoU6tzPLphQAzjSS52ZFakUHd88eUWLQ16FsB1wLUN1yvPChzLx/E92kEwjhNd17LhnjTNmc1y06OuSu5u71iv1qxWa6p9xevXr4jCgOV8jhADWk34oU+ez3Bv73ly/YRZHuNaCbY/w7bt/yK3zN/2+Tu9Ua+u3uFf/Mt/jdYWn33+giTNOD9f4zg24ziYnqKlubu/ZRAdrsXpkC85HnY83t7Q1iVtc6SuSppqx/b+DdV+w+bhlsf7W451Tdn0LM6uefLOByT54q1iwbLMvPD+7o6bN6+NRj4MKcuSpu1IotDUw7TCsWxczyFNY1zPYz6fG38l4HvGapbECWma0tYNUy+o9luq7R1jX/Gw3dIOAgUM/WBK2tOA6xiRc9t0yMnoIyzLRSsD2Wi7nm4YKRYrPD8yl2pJzny+YOg7fM8njhO0lli2hWObnmTb9LTtgOu5J5QoZouu1ImN3DD0LSjz1vI879TV7ZjGEcexODtbmG1/b8YMaH3qh/qMo/jPXyAN3mmm6zgO2NB2La7nkmczXNdHnv5dx/lq5KKZFwV+6NG1tdE0YppISknSJKHITVc2DAJ2m0eqck8Umt5rmscMXYuLRRSE3Ny84otff4boG3zH4oNvvstvfe87zOczotBBa0VdmSOAEBOTsmkGSdOOYHtESUo3DDStYOglXT8ySsVwWqlZnLBcnHP15BssV+cUiwUvX73m7s7sGo7HCt8PybLULDrPQ2pJ1xlBlBQjx+ZIWZX0fcf55QVRHHM4mBhnlmZYttFUOraD73qs1+f86lcfU1WHr3mZ/h0W6nJ5yQ9/9N8xTdrIeeOYWVEwjAOg8RwLzzVI0UF0XJ6viUKfw/YB1wakQAwNw9Ax9h1dUyGHGj22iLamrRvaQdBMEieaMT97wur8GYNQ5hx5SuOgFEPfczgccFwH1zNh9bquGYXAsx1zkNbw9MkT3nv/fbOVOqV95GhI7l3fvyX0He4fmfqOptwytgdsPbDZ7dhVDQrDII5Dj9CzCRyLwPfRfKWkUIRBQJ6lKKWp245OTKR5wXx+xmy2ZBzVyT6uT7fNIUHgMctNPLBpOqSyCMKIQXT0fXeCi5lFcqwOTJM5/3ZNhxxNWNxccJj6WZbGZrfgOmgpKfcH6mNj3qphcGIVSbqmwQJCz5j0LAsmaSwG0ylTPUqJUqbj2g8DYhwJAp9ZYcRcZXkgSSLOVkvq+sg4jCRpwiw3uJX9bstu+4jr2vieR5qmZFmCnEYC16NrjnzyyV/T1hWMI1K0PHt2wQ++/x2+8d5TlvOU73/vA77z7ffY7jte3mzYVz3VUXBsR5p+oheGP9R3imFQ5HlKEPocmx4FrIolSbpgvrgiTXOqUzIrihIc26Fve+q6oa4bkzYLQhbLFVEUILoOITryWYbtWOSzjPfefx8xjGilcGxYLs+MOzaKKXdbpqFlXszwfZ9PPvnw5Iz9R16ovh/xz3/3X6GUxePjA0kck2dG6SfEwDSJk3LgSN+1hGHEcj439PP9Fs+2sU/iYs91cR2jxhu7lnHoqKojXT+gHA8vmpEWa4rFBeCamN9gyABJHHOsjLZRDIY6MAwC3/OAr0LhE1EUMQwD10+uuLy6OF2QWAxdR+AZx0xT19SNyaVu7u8Y+56+rVGiRsuBx+2ezaEyYl8LtBQUWYJjK8TQoy0L2zGaexNwt/GCiHaYaHpBli+Yz88Iw4QwjBHjhGVBHJsOZ5okxFEEWEZLofQp6G44SNM0nm5tfVzbPByqqjwBxiRKmXNYGJhLOzAguGUxwz2lgwBGYRJWxbzAtjTbxw2TEDiu4fG2TcskRsZpglP/VWPjOK55k/fd6RIrwfc8urbBc22SKOTiYg1w+vJaTNPIsaoQfUcUhRTF7C2UWylFlkTUxz1/9md/zOPDPYHjoCfB1fmcIvM57B+5vDzn+z/6Ab/zox9wfrZkt3vko09f0I2Qhj5ZlhBGwUlYlfP+e++iJonnuWjbZlea8+aiWBAnOVFqwjfbreFKR1GCpTViEEynS6J+GJjPC7AwxQc5IrUiyRLiJCZJM8IgYuh7XM+4UYuioG1bNo8buromClziwCcvZobQeXfztS7Uv/WMalkWP/zhf8P7732Ljz752CyIaeTNmzc4vvkCTOOAEB1luSWKY9bnawNK3u9OHUtTrxqkZBx6JtFjaQmWUQoe254oKwjinDhfEWcLsrSg7UYCPyQOI4Zu4FiWdH1LVdbGGeoYUsGh6whCgxtxHPctO/bu7o7l2ZLlcmFoBZPE9zRxEKC0xtIwdANN2zNLY5Is49BtkMq8JT3HoRfTCUkiwbKRWpk2j7I49crp+oFplOAEdF2P53n4noeUkt1uR5pBnJqnsx+YkYnvmzjgKASe59IPAq1MWsl1bXbbnZkP5zlpEhP4DkkcMwphmjPjiJTKQMXyDNczuWqpNVqY7G2WZAyip6xK/MAjiQJ8z2e32yGVhRv4jJ1gnEYs2yFMIvMmDwIsy8bxXIIoQE7G+i6nAdeG66tLhOgpy5LFfM4sy9jvdhz2e8QwYKMJQ/P3CzLzu7NtiRwFf/qf/m++ePE5URAxMXG+zHnn2TnXlws+/+JLfvIXf843v/1NPv3kZ/zpn/yYv/75z41gybbI0pBFkTPpkbKaUFpSFAnbR8X99kA3mVvyNIrMhZztcNhv0JaJcAZhTJblYNu4rkvquaddlY/renzyySdYNvi+C5YZv6VJiu8FPNzf4bsOge+BDknTzHR3dzvOlnOSyIDXXdvld37nv+LLL1+w222/toX6t75Rn16/z49++HsEvoc8IR+DIGS/P2BbNlKZuFcchtzd3REn0Qk5ab5UWhoLOZaibY40dcVhv6HvGiytaLseoWB9+QypfZJ8yXyxxveNr0RJiWO7DIOgaY+okxYjTXMWiwXDaOpI02jQI57vn9i0iigOKYoc13VwHQsbm6qqcGzbsH6UZugG2kNqZwAAIABJREFU2rbjnXffoSgytg+v2W1uTYRvX9KPI67jmvOo66CVsYRPSpmz0yQNOFpbPGwOHI4tXhgRxSm+H6O1RS9GkjQ158rTscE9dTnH0cTwxlEgJ8GkDKVPSoVjuWbsJE3ty3VtbMsxPx/NrbY8OVrzPCcIfPIsNcBtxzE4T8+lGzrKw85U0HzPwLK1Rd/1JlooRsqypGtb0iw9jWtaLEBrieg6xr4nS2LSLCEMfZSaEEJQFAXTOHL/cM/xBE13TwBuKSVqUvi+R5aF/MHv/zt+8bO/IPJ8PNtjloZcP1mA7gmigKrtzJZ2avjD3/8PPDzs+cXHL9h3GJ+q6xCFHlqPjOOAkuPbQvnhWDNpCwubNMnI8iVBlCGVzSBGNBazWYHjuCY7fcLHRFHEB9/6JlorXnz+ObOi4OmTpyAVTV0xdr3pMj/cIieB6AfGYeRsdcZytaJtOwLfYz5L35IZLy6uKMsDX7z89T/OQl3O1/z2d/8Z82IBWKYGNAwGpD2ZL1MURURxcAoVaMLYZxADQyfwXBMd8wOPpj4yjSNx5FOXO47HA65j0/UTtp+wPH/KqB2COCXN5vSDIAwMoX04Key907xstVqhlOZY18xmBeMkUFrTDz1D32PZEEYhT548Ic0SlJKmx6k1ozCEg5ubN1jazA/DOOK3fus7WJbi9vUXbO5fG1rf8UjdDViOuYQaxWh6ntN0IkFIHNthls/QGo51Sz9KHM8jy2cEQUyaFQRBhO0Yi/kkT2xebUYoaHXyu/Q07RHPc5kv5mgFs3xGFEfc39+ikayWK6LQcKiUkkYPYdsnOZSLlIL4JHKS0uBQjKNU09Q1TVO/RYLIUbLf7UjSjDTPjF5Ca/wgOI1HjGqibWra+ohlQRJHp+aWYpxGur47ZbE7hmF4S/ubzczDcTzZ++bzGS8+/5g//IN/T+R7hK5LEDhcP12jHcGxPaIsm15MZtQiWh7uHqhbuH+sOfbGneO5RlAchh6OC55jiBa26yG1jdQWaIswygjDlDDOCOMMrcEPQrI0ZxqFSU+15s+9XMwpioxf/vIj6qN5iAe+z9A2DG2LFIKmMsJtzzO0h64b2O32SGVQNZMcWa8X9F2D7TisVivA4ssvv6Cuv56E0t+49U2TnH/6o99luThjUhOjUFSVGfrangeWbXAcFvjBmnSW8d3vfpe7hxuCIKBvO4bOFI9ty6JuGsrthovVAsdxzM2kmJi0ixdmVM1EXqxQlkt1NETxUUhGqRBC4Pk+i8WSNE1J0oQvX77k9c1r3vXfMcCuMEBqk2ntxYDrezRth5LaeE+VpGo6siSj6Urq+ohrBSRxyuXTy5NQSZBkGX4QYls1vuuf1IgWaKOHtFwXzYSYJnMbqs1ljOM6eIGP1ZutMpb5sgvR4wUOUo0cyw6poWsH0iQ1zKKhR4gBKQUoozh0LIcw9Ah9l6Zt2W03zJdzfD/AczwAPM/n7v6Bum4IQ/9Enzdn8/1+T9/3WJZDL3oc14QdlNSU+wMGLeIi5MTNzQ3vv/ceq7MztrsdZXUwZ9GupTzscW0bLUccz+Ow3+I6ttF3uO7pPF0TeD6bzT1VWRK/+x7FrGAQpnz+5MlTXNfm//qjP8K1XDw/xLYHfu93v0fVHPjFpy9xbJuy09iW5Hf/2T8lcT1G8Yq7hy1elBK2Fb2YEJMCy6MVE1ma851vPecvf/opr28fiSIflCYKDSzOcizatqaYr8mKBV0/8PDwBksrHNdFDA1t13N3byGGhr5pcC3NfnNH3x2IgojFbG5aSKG5B7Bcl4v1BZZls9/tjZVOCKPUmEyFcxATx/LIs6fv8du//SM220fzEPx7fv4/36hBEPIv/tv/nvlizSeff44YJbPZnEGMRElMkiToEzXA812C0GMYB87OVgbANQgWy8IMw8eJsjwYasBuw+bhntBzGUfBdn8gjGcE6QI/yknzGQqNlKczbW/GFUEUng7+NVVdM00Tx7bGtmGcesTQmacbhi5fNw1oiyD0ub485/x8xWq5IAwiLNuiaSqOZYnvetiOCRm0bUPTHJn6mt39DcfDgWGQHJoWBXiOi+/b2I7FcHr7WFg4jsF/Oo5P2080/WB0EZ6P4wf4QcykMSrCrkMrsB2HYlYYeHRTMymDoDRbaE3XtXiOw36/5dWrV4aoMMvNzS3G8eL7Lv3QczweWa1WLJdL5sUcpRVNe6RtGmzHflsiEKMwmBQFcpxOfhjftFEwDON+6N8eFT7/9FPK/Y6rywtsy2YaBY+PD0g5sT5fG0mxGMizzIRXxECchDinfm11LLEdi+Vixh//n3/IRz/9KUkYME4jWRLyox9+i8Ox4tevbpHaQYwjvuvxP/6r/wFbh/z+H/wxD7saN0wZpWYQ4mRQg+pY4djw7Nk1o5BsHrYmWeVYxGmO7QdgO1i2SxDGPH3+nGK+pGsbpqEzxY3JzGID38OxbbQ2hI3ZLOPi4oK+76mqikEMZLMU2/URo2JezMmylMurS6SU3N7e0DVH4tBjMS+om4aqKlFacXl5xd3dDZvNwz/MQo3CmKdP30NphzdvblleXJPNCra7R3O7hmK3358SIRIxCtIkJpulLAuT7xVty+2rl3RdTRR4LGYZfXukqUssoG46JsshWZxhOQY2PUoJGrMwR8E0jRRz08m0bftEXw+QcqRvO9AjceKjtEFr7nZbHBcWi4L7hzvGoeMH3/suq8US33NxLHBs8FybFy9+TZ6mKBRt1/D4+EC539K3JcfDI21VIYaRqm1ohMDWGt93CAID1HJscCwH3/OJopjdoWSzL2kHSRjGzOdLxKjRJ1KD5xmYmVYwKYXnOfiei8bGdQPCMMVxjQ4jyWPq5sj9/R2u73J+eY7Wkt3+gOf6RFFkYm+d+VKEccp3f/v7ZLOcSY5MomMaB1zLzLcnOdLVNV3XYWkLlKZrO8rKqDAfHx4RQ8f6fI0f+EghaJsjV1eXFMWMzeM9dzc3lIcD67MLzs7WWFrjhz5d3Zy4yDZxFFEUBfWxYrPZcP3kik8//Zh/97//r8SeRXRiN9kWtMeGum6xLZs0CinynMuzKxaLc+bLK17fbPnFr17guA5N1+F7NhfrhSF3hD5tI/js05cUs5SzZYaLga71CorlGmXunwCz7Z0Xi9NoThKGAWHg47nGVu75ZpcSxClJkoK2wbaxXYdJS3MPY9n0bYdWFkkcsdvvafuGNI/QSBbzHCzFsTxg2RZplqCBjz7+BY+P9/8wC3UQPeMw0bY9cTbj/OKSsix5eLwnS2IuLy4Qk5mtBWHAfF6cnk7GJSLHkVH0fPqrXyH6nuW8QI0C0Ruq3yQnymNNO0nSYkkYZjx58hzX8/A9lzAKiGOjZ+iGzhSRB2EgXfKr84pN3/U8PNzh+TbL5cpE67Zb0iwzZznbIU9i5GQgaa5jKAS243J3d2PeovXxRJEzdPwscim3d2y3G5q2YZCKUU64jsXsVKnyPAssF7SN53t0vcmcDqNCKAiimCdP3iGKE+qmw3VDsjjG1ka85NguaRwTn1QSnh+RxDlyUgSxz3yes9lu2e/3LBZL/MCnqWsD+XY8sjwzi862SJKUoliwPjtjtViCMnoONY2MfY9W6lTzc1BSM04TXdexfdxQHSuatkFOI2dnK5I4QmvF/f0tUk48f/4crTQP93c0jWmdDEPP4lRCb5qatq4Rbc/r168IY9Mx/eLzzwGN68C//z/+N9q6ZJHlFEWO1CZ0oTW0rWE3RXFs0lva4ZPPXoKX8a//5/+Fjz/8JZ9+8QVCKp5eXxDHAU17pKmNGb1phJnFqoEoClDa5sXrHWk+w3M889+yNN1g4Oy+7+O7HuM0Yju2KcBPE2IwP4uTzDCePQ9taSzb5vmzZ0SRaRtJIaiPJfPZDJi4f7ghDD2msePi/Iyh72naFguNZcGPf/wn/OxnP/mH2/oaPIjF6myJ73vc3d2y222ZZTliFJzw7VRlyaKY851vfwfPc40hzfPY7bb81c9+yigEy8UCWys2j/dUhx3HY8n2cODYCyZtk+dL3nnvW5xfXDONI69evcayLIrZjEEYAn0cxW8TOF1r0ioWmuZY4diaNMlOUl0by9IMveDy/Jrz87WJ4EmznbQdl8V8QRInfPHyJcfK3HSuVyuury/ZbTfIoaZrSnbbDZOUSDUxyQnf8wnCiLbpqOsepW0GMdH1g+mk2h7YDuOkCMOIy4srzs+vyXKzI9AK4ig8JX1cktPTexgN59d3PRzbwjlVyZpjR5ykrNdnNE1DfWwJg5iL80vQmC1XP5BnBc+urunqlr6reHpxwVC3aCkJPQfHshl6geN4+FFELwa6rmW5OiNOcuq2ZXW2YrVeksYRd7e3PNzfc7ZeU+Rz2rqmOpT4rkschziuRVmVRnNo26RZzqE8sN1sqMo9u8cH2vrI/cMtH3/0cw4P9+RRSBz5FGdLLi6uOL+8YHW25tm732C2WBMkBdoJ0V5CNFtz8fw9vv29f8Kzd97lP/7H/8CoJH7gmj9L1aCkhaUhcMzdgxgGknTG4dBw7EfUqFit10hl0l+u45r5e9vj++HbeuA4DDT1Eet0QYTtECURX+XCkyShmM1AS6LQpxc1bVuiEUghOO4PVLsdkxCsz1YcjyWTNA+evu/52V/9hC+/fPH3XqR/40IFgz988uQpk8L8kk/jkjzLaOqaUYw4jmciY2HIOBnN4jiaTmh1OBAGPst5gVSC3fYBtEIMgsf9AWW5xOmcYnHGcn3Fbn8gCAKWywVVVbHfG+RFHIVMYkT0A13bYGmNlALf99jtN1xfX+I4Nvf3D1xfXjCfFwbdOJ9xfXnBerUky1OmUaDUxHxZIOXET37yY7abR66uL3nn3Xeo65pXL79g+3CHHnuapsR2jEP0UNZU7WDIhuNEPyiEkKZMPmmUVKhJmp9ryPOCi6tnaFxmsyV+EBmfqGVhYajzSZKSpIaW2DRGFCVGYdJD/UCW5qRZTj+Yutk0aZ4/e4cszXj16kuapsFzfRxsPNdmaCrGvsV3LIauZbfbcHt3S1VWVGVFnCR4QcChPKCB66fPcByb9dkZ10+uEaLjsN/xxYtf47keFxcXNMeaVy9e0jb1ya49MAyGYi+1uXUOfJ9DeeDh/hbR99RViZITUeixfbwjjWLGYcAJA979xgcs15d89/s/xAsTJA7L8yvy4gwnSLD9mMX6itXFNVguZ8sVeZbz13/9c5qmxrast55Xz7aY5QmeaxEnEYHv8/BYYVuYc2VRYFk2zfH4ljU1DCPTpMiLBUUxx9ISLSe6puVY1bRdx3y+II5j0iRBSsXdmzfYFniew7Hco+SI77ocS+N9RRn6xnw+ByzjIUozXrz4nJ//1V/+w9/6immkqms8L+XJ8/dZzFfc3d4g5UiRzbFtA7DSUlMfS7q+IUoiAs/FdRw++OADDrsNTdMg+hrRmwsSpQ2+JchmxOmcOMnwPI/truRxu+Gb3/gmZ2dnHPZ7+q4zRW/Ho21q5DQgbW3OEGricn1GEvs8PjzycPeab77/nFGOLBY567PlaX4ricKEs5VZoNPU0zQ1dV1S1SVZllLMcsr9nizNSAOLvtKAwnMN9nKSIDW0vWCRhHiWg1Ia2zY7D99zsW3jJBUKsjTFtl2qqsULRubzBUEQMvQNbdOipHUK2xvzelHMcSyHqizRlqZYzPGDiK5tqY4ttusTOBZhFOM6LnFkdBNJFBN4LnW1J3BgEorPPm2YpERbDvlsbnYgXUM/1GhHE0cRtu0wTYJiPsOxbZqm5ubmNdvHB2ws+q7jkw8/JPQD+qZFDB2DpZnkSFVXJkrIjL5t+dXjI11v6m1qFCSxsavd3d/jWBo5Kpp+RDgdo7Ype0k9Wly//x0eHh6YponQ83HjJdt9SVOPjL1iGjUHceSf/95/za8+/yV/9Ed/wKRM81drSRJHRKFNXUuktMjyiDT1KRuBZTkMbcVssWZ0bOQkCNIM2/bQckJNkuXlGS4TU9/SqJHAsxGj4FgecF2LcRhwXZeh63joGkSfnkKjtukfa/P/23V9HMtnHCRhGGG7NqOYuLu9YbN9/FoWKfyGN6rWmvniAtuJKOYr8tmMeZHx5s1rpByJI9Nk0VpS1xWHck8YhcRRyLGsQGuWiwI5jXz55WeI3szw9lUNtkuQzIiSGXE6IwhjM7IRgqZpuL66Ik9T+rahLI32YhwFjmNuXV3PYRwFcRKdWLsWFg5SStq+Y7vZGnlvnp6Kv+ZmbxiGt7PZ/WFvRje2hWOZiwfbsnDQCNFyrPb0fcehqinrDnlKV6VRSOB5ZFnGvMgosoT1csFyUXB+tqIo5th+RJgW+EGCZXtYtnMCf2HmwsKQ77I0x7IdLi+vyNOMqq5x/YAoiomi2NwVjJIkyd7a41zPIYpDQs/Hhrc5as9zsFA8PG6o+5533/8m3/v+D3BcA9Buhw6tFefna2ZZSp4lJGmMUpJPPvmY29ub0/nfYhpH9DQZg/zpLW9ZmmHosSxYnZ1h2w5luUed4oz1saRtasZpYLt/pGuOhL5HVTcM00gSJWjbRWqXh22F7XjMV2v8JMNyAsQIX766Zbs7sD6/ZLFYmPHW2HNxcc6bN6958+YG29L4HoSejZICyzLU/DSJuLw4ww894iREjBNxmuL5IQpTJUziGEubm/osyw31QZo5dt/3RIEJoiitTVyzPtIeK6ryABYkaUbfdex3B1wnwPV8k3YLfLLc8KqMVW/HX/70z7m5ff21wLfhN7xRjWlaMV+akUlZHnAdje1opOyQU4BlWYR+zChtul3Dm9evCbx3uLi44LDbcjwe2e42jEKQpSmP2x1CSZKswHXMBYfrh9RNy3K5RCpFfTRKgiLPiaOIx4cH07d0XTTmVtjzAqIoNHlNKUyvMJPc3t0zmxdoBXc3t8zynPD60pDuxYjtQNf3aIUJcUhQUrDdPLLdbNFKc32xIghjwz/qBeM04VgW4WnBY1mEcUiWJkShh4smib7i8ppzm3f6uxmZsmO09oGHGASO6+L7nOBcmsALCIKYw35nZL+pz6QU28OeYeixT7e8ruvgeA7jadtvxTHNJBBDh7YkEqOdiLMZlhcwW57jhDH5YsVaaqr9I33XsN88kGYZvmvRdS11XdM1NVEQ4jgOeZqBlLRVRbnf4jhGbuw4DhpzwRKGMWIylIMojui6mmkU+L5L05bUdUnsuVhaMaoJLwzI8xl9M+AEA26Y8uKLL3ncHQjSHK1sJiE5HHumSbGvGsSkcG1QWJxfXPFv/qd/y+PdPVW1YVbEpIFPHHjEsUcY+pwtV8TpjE68oHnc41gWgWfRTRauF4BjgaVxXaiPO25ufL7x/jeYZordbk+SaDzXwz7NvkEbmr8ecT2HMIhI4ozqYFAzthOSJj7awowUtQLL2AB3+wdu7958bYsU/pZkUuBHPH32AVVdk2czgjCiKktgYhQtZbljnAbmxYz0dJasqpLdfk8Uh9THA5v719go1DSyOdRoJyKIMsIoYTZfYnshoxjxXAMyTpKYvu1O5WV5cqQOoCVtU5uETJIwyxdobdN3A8vlmvrY8vCwActhuTgnCCJ2ux3D0Jut6KkratmYxec4tHWLVtJ8IZRCKY1lW8hp5NXLl7R1jdIWYhpNze7Uf1ktl6wWC4osIQls5Dhgg/Hp1C12OMP2EyyMt2WSI1EUoLXJ5gZByPrsjDDwGUdDMyzrI5Zj+qNVVfFw/0AQBCRJgut42IazZm4fJ0Oz6NoWpSeWqzXr80uK5RlpXmA5LnGWmV+wbRN4Pm19pCr3NG1N3VSUhwO77Z7Nw4az9fmpjJ9weX5BkeW4jmUQoI6xG3yFonF9nzhLaOrGnKe7xtAqkEyiQ44DajJFdbRlxNVn56zXF9TtgBfEnJ2fmx3DpKnbgbYT+F5IsVgilabrep49e8ZslhEGMa7rEXoBUeDhOyPX5znnq5wk9ggChywNiQKf7XZ/8ukWzJdzeqEYpY3thTi2jWO7RFGKHwYc65qm6bAdm7ZryGcZcRKzvrzA8XzatmGchpNRLyHNZ9iecdKGYYgEA0OTE0kakeeJgYs78NOf/YQPP/zF19pL/Y2h/KraEoQRZVXTdyPn62uWq5b6+EBTb5nkxLEqGdoO3wuYFXNsz+XL169wPBuUAj2hJkFdd3hhhueljBIWccr55RVtN3HoSqrqyGI5NygV1zHE8lOOEit8u/W1LAutLcZREQQxwzBR7hssyyGOM+RktkKLxRkPj7d8/uIFnufz/NlTivkZUgq22y1FPsf3fPa7DZ4bn8gNMbatUY6HZbtIaZohWkqmSaMURLHxxWx3e+xZQhpatE1tziqOQz/0KCGILKOW0EOPHxkotW0Fp8XjEIY+rmvSXWNT44QRWZGjpKRrG8LAI09T08usSzzXJYoCkixjFAIxDKSznOXyOc+fPScIIxzPoxt6tpsdSkksLamrinK7o2uOJFGI4xlzQFN3hGHMe++8z8XVFV3fYdsQuK4JLbgOXT8YjaMyygrL1jiei1LQtObOoT4eUbIHPTEO5jwceR5plpPN5qhXtzi2Mfalo4UYBX3b4+UhahoZhok4zshObSwl9dtqnedFJt2mXMIw4fvf/wGBI/j453/CaI2kcUAYh4RRxCiN4vEimbMtO764fWR7aDhfP2G9MIyqYRyJLYiTmGzmobVJbrmBR5wlSKlRtk1ezJmUpCyhPh7BNTjberPDBfI0xvZ9BtFT1Qc8Hzz/miiK2Gwe+OLFr00f+Gv8/MY36jiOvPPudwnjnEEIoihlNi9YLOcsz85wXI9xVLSdYLc/0Pf9CSUSszpbIYeOhzcvEV1P20vOLp9RrM5xPI/AN1+6LJ8x9L25gVyfMQwdFiCGjq5p3tLypsmE2cMoRmMYskEQoiQ0TYu2TIn5WJYGw3F1wWIxNyq+vicMQhaLBUmaGAlw3zObFW/Rn3EUo+RXlASbutzR1aZS17Y9Ukpsy5SepRwNG9dWaDXR9x1aKYLQB9tFuylxtjRppbZnXsxZLBYnV4yhP0RBgGPbxifqeri+B7ahIMhJsFrNsR3Y7zagjTVtludYaBN/dB2uri7J8gIvCHEDH6kNm3f7sKXa77m/ueHu5hV9X+P7DlFoHhTjMCK15smT51xdP8W2XabJsI6wbEN9iBIUsN+XJ7h3gG2DZVsoZS7DHNs6QQD2HHaP9E2NGk1zaTFfcnX1hEGM2LZHUSwYlabvBVKBZbvYrgeWg5Sa4OTQ1Rq2uy15EnNxcW4uw8SE77knooakPu5JopCrywuyvMCPcrQ34/VDzadf3vPiZsvj/sh48uDMstnpQRfhBSYzHoYxRVGglGK33xLHCevzK+7vNyg08+WKNC/wgxMTepIMfU/XGLdr09Q0dcV+v0XJkfe/8T5FkfOrX37Mn/35f2IY+n+8hQqQpDPOz6/M6ORsiZQjSknm8yXFfInr+cyKgvl8iQSatkNjkSQxceCzfbjj9s0tthvxwW99n9X5BWIc6U+CozzPiIKQKIrRamKUE5ZlZrRyHHEc+23LwQ98pFRoDYMwfFnbck/RwpI8T3Bsg3IEjec6+L5vooiuR56n5iZvELRNSxgEtI2xmiVJiud6J3nvQL3fUB+2KDkhJ2XSUY4NWjFNI0HgMY6CMDLbQtAUs5wwjAnSFV40RyqjckzT7C1VYBh60Abj4vseUir8wMcLAsQomEQPKBxHodRk+p++Q55nOLbNdvtI0xwBC9f1mSZF3TYEUUh9go9ZSjH2PQ+3b9hs7pDSjM4cx0ZPkmEYyYs5l1dPcByP4TRm8TyftmtNadxzCMIIL/BPoYoZKEXbtTiuByjKw5ahq+maCtF1eJZ9CjIMOK5PHMZYrsM4asI4JslmTEohJYYH5ThcXT/Bts1bOklS3nnnOZZtcSwrnj99iu96DH1nxFMa5CSIwpDPvrzlwxe3vLzZ8/L2wK9fb/jizQMP2xJxAoIb07kCpXCwWZ6tSWeGYOH7gfH0aM1mc0dZVfyTH/yI5WrFJCX5bE42m6OB8lAyjSOu7ZBnMYHv4joWu93WdJwDj3eePSeOQ/7yJ3/ORx9/yH+GwvwjLVRLS37r29/C8zSeZ3PYbRj6jv1ux263w3Vdnj17xvnVE2w3ZHeowHY4P79g6Aeao3myhXHG4uwChUvTDgRBhMJUiRzbwcFiUhKlRnzfY7/d0nctvu/ieS6r1ZJhENzc3RKGIa7nYtkWvh9S1RVvXr8kiUPSJGK9XOI6FofDgVGM+EFIFMesVgtsx+JwqAg807Pc77bGo4nNMAj6oTey32pHXe4MYsW2sWzbLFbLBhT+KXdq2zaO56DURBi4RHFKPLtA2RFKGfO61kaG9NVZW0lJkiSnhdGBZbb0Uo5EkY9lTRz2B0LXZbGYE4UB49jTtvWpFG7wMGIc2e12bHc7kxWOYrI4wlIju8c7dtt7LEzNTGllINxNy9ALZosl5xeX9J3ZLfhhiOv7hiUsJ6SWjKfLMdfxCMII27HYH3ZYtsV2+8h+/whqRI0DDib1VLc9WbEkjVNs18FxDQ2j7Tourp6Q5wXjpBDTRBQnrNbnaOy3ZoPZrGBeFMRRyHIxRytlRnNSEgYhQgxEYcjNw4aff/wZD7uKXdlwKI+M0/9bcWhcrRrP9oijxOgs44Q8ywmCkHEcqesDTVvRDzVNfSQKQ/J8Zr6fSuM6IWhjNtBKkZ18s8PQE4fG7eM6LlmeMYqBP/3TP+bha8j2/p0Xats1lOUjbX1gFKaOpeRkooCTwPN86qal7QRhnBElMceqJEtzimJBuS/RtoMXBAyjouslQZiQJClSCnb7LWqUNE1H17fmbDp0iKFnEoZ21wvDne06Q2VPkoRxMroLpSz2+x1iqFFyZPPwQBAYh41lWWZuGwSGWVubgbjrGRJeFJq8p1YKeep2Oo7NKAbG7oiWph1xbBuwHaZJ4vkBUgqWy4L5YmbY+DSjAAAfxUlEQVRAZmgsSzLJES9MsKMlTa9xXfctOT4MA/NAsGAUhhTgez5inNjt95RVSZxE2NbI0HeM/YBtGzLCbrelqUuyNCWKUkQ/0g89bdcixMgsz1mtz3hyfUVXV/zsJz/m/u41YeAyy2YkUYS5P4W6aXGcgOsnz1Cn2p+FmZsLMRijgGuf6BkDQRgilWIQguZYcfvmDUHgI6eRujrg2orFLEOpiduHRzb7ktX6knfe/YaxqTsOYRTTDyOT0jx9/pwwSrAcl9lsznp9SRQlJ0taYvw8nstqOSfLIsP9VZJB9MYS3wssy+bsbE15rLm7vzPn57/hhlVphet6ZOkMISbT33V94z8dR6ZpQGmB42g220c++uhD9hvzgG6bGse2mRcLPN+n61uaqmS/2TD0A7M8I46M9cD3XLbbR/70z//4rZD6H3Whaq05HA7c39/x5uYlZbmn6zo0Gj9wWJ+f03XCMHLbmiBwubq84FgdWcyXXF9dc9jvGMYey3WxHfNPPssJgsBspRyXaRQslgvW6zWWBceqYug6kjQ1t4fjwLE+oLUmjlMc1xjHq+ORw37DYp5zdXlBedhTlXtzK9q15EVhAtIWHJsj7dASej5KSoosozkesW3LwM8cszCUnNjvNrx69SVt39P0A5OEtjPbdT/wSDOfJArR0lzaWLbxnConIJ9f008Wo+yZpgHLVvieGdfIaUTJkV4MWLZDHKfISVIe9qbBYWvjD/Utbu9v+eTjDymrPVEaG+1FlBMnGV3fm0uRLCVOIvqm5vbVKz7+xV9RlXvW6zVZntG2DX3fEfr+qZcZ8ez5O2RZTlt3uL5LEAd4tmXm1LaFVhMoRRD4iFEwDCOeF9Aca+Q4YtsW+92OtjngOmDbkl154IvXd3RiMhZzx+Wb3/o264tz+r4nzTKabmAcJfms4Omz50xSI8TI5eX1qdC9pWkMFnYxn5HEhi2Fo2j7lqZpaZvWoF9cjxdffsGrN6/gN2wzzcPaANTDKEIMguPxyND19L3BzOqTaT30AmwLqv2W/eYOLSe0GumHjiSPSXJjNK8OeywpT0wow6tyPJvPfv0pn372y691LPPV5/833Myc3UaOx5LN5o7t9o7jsaTves5WF+SznOPxyObhgaqskEoyDqYB8+z5E2bzGdvdDqU0Gossy/A8l6HvkJNxlYhxNPR03yfPMo7Hmn4YWC5XpGnKOI0c65rjscYPQr773e+hMKIkMP4VjUYMgyH0CcEwTihsXM81YQnHxnN9itmM7eMDL794ie95VFV5IhiaGed+98hHv/wV292O6ZRKElLh+hbFzAQGtBxPYG6FRjFhMUiHeHZJlM7pupZx7JFSYDkOUZRiINjmTS3GyfB3s4Q4NqOvm5sbNpsNbdOQJgkX5+cU8yW2bbCmF1dPiNOUpm1xHZeyKqn2Ow7lgbrc07U1jmO250M30Hc9x8pwgYSYOL+65hvf+oDAC3Adj0kam1wYmAys61qM00RVlfR9Q9d2oBWeayOGFpRkFOYyzQ9srp+c0zZH/vrjX3H7eMDzfCzb4fb2lt3+wAff/gCpQNsWcRQzSkXb9xSrNcM00ra9oR4qw4SephGtJKvVgihysV2jouyFgdKNYuBYl+z2W37x0S/Y7jZ/63dXSkMhSWJz3PD9AM/38LwAx3VRajI+njAys+HIJ/R9+r6laWuE6Hh4fKAs96SBh1amkHJ+cUYSx2hLI6TgZz/7CdWx/Pusx7/x81+otDAIkarcc3vzkru7L5mmifliRZrNkZM8fekFx6Y0LpkwYlSKum5Ob7uGoWtI4vAt1mMQA2I0X2ApNYv5gmE0hDzX802TX0ocz+VQHpjNZoRBwDBIfvTDH6G0zeFwoFgtCKOQvh9wPJ+uHxl6wdOnT9nt9jze3xGFEfW+ZGhaoiQnSSKiyPRDq2MFUrC9v2F7bGhGyaQ1jgVPrs4JAgNr810L3wHPNyDrelA0A6wunjGbm9vtoljg+S5qnBiHERv7pLGoTzfZAXESkkYRi/mc87MLtLLIkpzr66f0QjPLl7zzzjd5+uxd/CBEKo0QgjD0yLMUKSXn6zM++NY3zW5gvwEpmYTRMkRRjNIWabHgyfPnKK05HmuwIIhDkjTlsDcpIz+KUBqOdQ0a1ssF1eGRDz/8Sw67R2zbZtKKKAlACfbbDZ9++oLPXrwGx8GyzN8vCD3Kas/uUJMVBcv5gjQ1IOy67fECY4Pz/ZDtds9mdyCME2azGct5QZ6n5HmM0tB1I1EQGRfRfsfUd9xvHvj4lx+dTHi/+fPVWdW2nRNcz0wM/NA/zaYxRocgZbE4w48S0tmc+aJASoOiqXZbtve3HA97ksQA1sI4JM0TOjFQNzU//dmPTzLqr//z99Yuaq2p64rXrz7n888+ZL97YLlcMcsjbm7fMIiWYei4f7jHxsL3HITo6Noa0Liux2xmZLvjNFEUSywspNTMioKLyyvquqNuWxaLpTlXSFPL+osf/wWbzSP393e0bct3vvNtbMem7wSu51NWNdvtnvl8yWy2wA/Mm7SpDTLTkhPFrADLYhgGLMeMfXzPRyvBZnNLN/SM08SowbXgvXef4rucSPceUeDjez5SwaHu6UZwgwSNjdL/T3tn9iTHdaX33809szJr6+oVALGQkEhKGsVE2J5wOPzoJ/+vfnF4HOOZB9mSaAkhkRLJIQECJAF0N3qvJfebefOmH24BM/ZoJJAERUKu7wVvjequPJl5zznf77MJIkNkVG2zLo7eFGnbMp1MONjfJwojOt2Z1LSuJwgjdnf2ka0mCgfcuHmH3d0DZrMdLNtk8lycnRnOruPw+eePqIqc89NnfPbZp3SqJY5jgsCcxaI4BmGvz582R8fHHB8ekmepueB8H9uCMAjIi5yqMhT6YTygqQsef/kAVReEnodsJZZt0TQVV5fPuLg44+GjL03jzPOxbQfXc7FdYbJdFwuWyyVadezu7hFEA7BdwsGI7e09fC9A95BmpmGku45hEjPdmgA9Smsz0lGKrpXUdYGg4/GTL3jw6AGternzoO41wXq64Djr/kDT0nYt0WAN+e57HN/H8VyWy8UL00Fdl7SyxvddoiiiRxuI396uoYo0iuPjQx4//vyblNIf1StLHAeQsuTw6QOePrmP6/nrHBj/xf6kbdnMtraZbe9i4YLWFFmB7w5wnZC/+sldhBA8fvLExCZg4/ohd+7+gOOjI87OLwxy1HVxXQ8/cKmqgps3b/L0ySPoFe+++2PKXNKqjp3dG3zxxSNW2Yr96wfUTcvFxTmubZHnGbPhkJ3dXRbLFXlpXpN7YVLFncAnSGLCyDMrZbI3xPquWeev2jiORY8JcrYFRH5IUVccPX2I7/ts796myErqsiDwQ/ygom0bBnEEaKqyoEhzHNtDawshbKrGIEy15TKejHjr7l2iOKIsC8o18sNzbPZ2twh9jyzNcITF1fkZy/m5eWJECVXToC2oVE1fYHyYteT+xx/jB6Y421aitSLLV0SeTyMrTo+fovsOsX6DkGVBW5fUleEJB9GArq25OD/h/OSIk7MLqrrB9T2wwLZNB1dY4IU2PTCfn3NvMadoFNdv3OaN23fJMkO7GI8m+EEEwqKuK2zbZrlccXW1YGtrQpal6M7kzsjK5LfqTpLmKVVdvfS12fc9qlOA2VtOhgmW7dKohqYpcFwLV1gsF6dm+yoMEFjYFtS1pOs7ExZlWyAsxpMJYRSTZhmd7nn08MGrLKV/oW/8RP1DMhzXzrw2NHINKKup64qyLEjiiDiODRRbWAgMzrFtW4QloO/pVIewbaRs0fTUsqIoctq2YTrdIgwD0jRFdS0/evddbt66TZbmpGlGLRt2d/cYjcwane41rucSBpFhsV6e0veaN964Tl3VtJ3CXa/zqVbhWBZFkbFczumUYSI99+C6do9nwzAJsdexiIB5kjgebSOxdEUcekTxBMv16brOBD71ZhzlOBau41LXxukRhQPoQXU9o8mE6dY2YKG0ZmdnhzAIkLJmfnlBI2uGyYDA91itVlycn9G1DUVZMJuOiKLI2Li2ttCYLFTDYRJ4nkM8TBiOx8jG3DRG0ylhFNFUEtVKFldXhg6ZZ6zmVy8wN1LW2LZreM19y/zqnOXyivl8QduZ9AAhLCzbwnFdbNtlMEjWDiODManqhlYLdrb3EJbL559/get5ZvwlTENvmCQURY5qOzzXEC9cx0ErxSpdYtsWdVPzwe9+y/nFVxuD9L2B8ZVlRS0lSRJjO5aJrixKVKtMd75r12A2iWwaEwOynnQ0jQEfWLYhPiRxTJqu+O1vf8Ufa2p9U30rhfrH1Lat+VJGY0I/MEhR0eO6NmmWGgRLZygEjVJEgxjP9/D9tfvBsphuzcxgujXd0uVySddptmY7jMYTBoMBli1YLZcmbnAyQfc9eVFgAWHgYtkC27FYrJb01nqE43jGiqcUV4s5J2fn9L2FsF0zU7QtAluzuzNhmEQorUBY6+gxjWNbDEKX/VmEpSV12xONpoRBjLAcM3ZqasoiM+hO1ycIzVyPdXd9PJ1y9wdvM5lMTZhU12GJnkZWpKsF5+enqFYRhRFZuuT4+AnTyZTZbItGNvQ9XLt5m2Q4xLYsA5wWgjRLSUYjbr75JsIyPKbJdMJwPDZuHT+C3qS+DYKAXrWopjG4Uq0Rls3WbNtsj9UFeb5kvliiuo62VViWjWUZ1rHn+GaMpXtsx3CjfC9EY6x6QRBx684dPN9/8fmWizmB7zMZj7Fsh7KsKLKU8/NzwsAnDHxsxyYIPfIs5d69X5GmX61xo5QiSRKuXb9O27UURUYjayxsem2OW1EUMduaMhoNabuWpm0JghDXNZMJyxa4tkUjGwYDczz48OPfc3p6/O0UzFqv9NX3ZSSEWURYrZYc7A+IooCsrKhqieeH+EFAFEWkaUaR5ybNOwpxHWc99A4ZDBJ6HHps9vb3WS4XfPrpfXa2F8xm29x44yb0MF8sCIKA0XiC7/pYgaDIV8ymIzqtWK1S7PVStus6DOMhUTCkLDLAYpnmLBYLdN+ZMGJhE49H7G2PaFWD61gI27wBuLZ5/R0lQ5LQZplmpM0CSy4IoiFaeKTLjtD3cSzIswKvB7REqYq+F1zNL+ksm2s3brI922Jra4RqGuaXBirWNtJwcy2L2WyKH3hMJlP29naoKklRFrhakxcFl1dzHMdmb28P23FJ8xxsB88PiTpI4gRbWMzPrhCdxf7eNVzHJQx8VvML6toQ+W3XxsIhSUJu3rqDEB2WZSJB0qql0T29sAxLaz3PtCyBbTsgHPzAGLBtzyLyDCT86eEhLRa377zFZGuLKAjo10/tPM+xLJvQ9zk/OaZpJfSaH//4XQ5mNxB0PHny5dfqrgphkLfT2QxnPXFoW4ltVeuUuI6T05SiHJq0hbahbSVVmRtkS1Ob6YeU9H1P3dScnD7j4cP7r7xO/l/92QsVoJY188Wc7a0ZQThAdYK8qKkrSZZlDKIIC7MVpVtJkUoWc+MJ3NqavTBpC9cjCGP2goBBlJjE8LLk+OiYnZ1dhqMRRZ5zcX5BHCfs7W2zkJKqrIgGAQ4erZKUsiEeJC/YOG3XGQKAEBTVP3UV+x6ezUt2pjnbo8isEHSgtTIL61bPMPZxLU3oWihVUVx8juXEWJ6xj5mnljm71bJkuQJh9/j+gKv5FVnZkGcZ1w72GEQB8zKjbcxrpyUE+3t7OK7Dcjnn+OjY3O09n8dPjhiMJsRxjKwr5vMlruPieyGuF6A6M0uUa9Rm6EWcHB/iORGe5ZtFClkhi4yzZ0cmJybwkU1NMpxy+86bDOKYq8tz+l5wOV8xz6r1a31Pj0mzE1jreawNlg1YxpLYNPS6p5UtiIqj42fYToBj+4xuvcGtW7c4PHy6zoE1SQWr5ZIg9KhriWyUiQzJl5yePPva5IQ8z3hw/74J9+K5nbPDsg2grW2aFzA9S4gXSXpaa/rerK+af/u1QaR/ER/ybeo7KVQhBFfzKxarBdueTxT6dGoNoaoKruaXxElE20m0NnERumuwEJTpkqPHnxMlCa4NRS25drDPD996h3v3fg3AcrGgVR2j4ZhkOMX3fMrSLOKjO1bzKwJ3Rl1VBIHPbDphNEpwXJuz01OKfMXJ6TOyP3AxZGXDx1/M+ZsfD4iiGNqOqi7Jq5w4cBCix7FtkkFEI1fU5ZLL44cIfwupQPfmFUzWCtlIyrpFKrCsDITDwf4+ge8xv7xEVubG43ourueYu3tdk10YVE1ZFLz55pt4QUAyHhGGEUppkmTE2+8klKXplpdVSV5k+L7LxfkphRfS1JLQ96HvSVdXZPmctpFopVCtJAqN51fKhizNSFcpQhhvqmxbzi4XIASW7QImatJZky9U1+GvO8yqbfB9EzfSSoXQmq5pmExCusZY9cqyWjO6ZqSrFZ98+gDXtklGI6ZbY7Z39xgkMQDz5ZxHnz/82mMQgTDA8/qbL83/OQr0uf7sZ9TnUmuA9cHBNcIgNE9IYVwiqjMmb0FvGkZNQxh4OLYA3aFaiZQlqm1pWsnR4TEH+3tEUcTFxQVqTdqLkzGu5xMEIWEYcHF+Sq8VoySiKnIC32d7Z5toEFLWBWdnz6jKgqOjQ97//fsslot/8bmFEEilqWTH9iTBcY0n0bZ6xsOYyLNxBLi2TRj6xEmCbBpqqclKZegW60V9zw9ou55VluP5Ee++8yMGgwDRG4pdUWRkaQr0LJcLnj59asBnRbHuipuA6NlshhCC+XxuaHrRgOlshhcEKGXiMixLIOuKbLUiXS4NwM6xkbLGtaHv1BoALuh7bRwmYUjbKtI0ZblYEMcxcRLz+999wIPHT178PcyusvG9+n6AsByEbZ4BSmtjiA9NvIfnBdR1Q9t0eL7JcKnrinS1ZDhKzBqh77O/v8etWwYM7rgOZV4Q+h7n5yf8wz/8N7JvabHg+6rvrFCFENR1zdbUgKYQPVoobFtQlBl5vsL3XWzbwnVtgsA35yCxzlTUhsdbywrdd6SrK9rWNFOSJEb3pgUvLJOO5jgWooflyqzq3bx1k1u3bjKII87OTnh6+Ji6Krm8POejjz/k8vLqjzogyrqBXrM1DNkahuxOBiSBZc6cTUXbVHi+ix+YpfTAj+hEQN0YSsV4PCZZu3nCIOKHP3yH/f19yiLFsiySMODw8CnpckGrpLkpNRJZVci6JkkGhsZAb+BcWcbF5SWj0RDLEuRZjmM7Zoe6LJlOJsymBqmqmgbPtU1YsmMYV+tmO8Iyr62d0lRlhdKa0XDEeDplNB5TVSW/eO+XLLL0//oue+M9JAgiXC8w4znLIFVb1dG2mjAaEg0nuJ5PWVaMhhN+8MO3abuWVTpnOB4SRObGOp5MTcK743B1esZnn37KZDLm6OhLfvazv0Prb2ex4Puq76xQgRfnG2NXg6auKaoc3zPnsV53WIDvmQ0SpTsTA6EUi/kVrusS+D5+4CDrgiLLqWvJwfVrdLrn/PKC4TAGAXVVmcTy3nhO/93f/Fsm4xEPHz3g6OgJoGlaySef3uf84vJP2pS07mnaltnQ453bO8Rej25KhG7A0kBH20qW6YqyLKlbRVG1CN3hiA6tJfaa9+S6Lr3u6PuOyTjBc2zmi3OqssC2hdn2wSwkmLhFmyRJsG0TH3l1dclsNiOOB6xWC9Isg94woOqyxLKsF5avqizpusbMhrXJ63FdYx9slWIy3cIPQlRnjiLj6ZS37v6Q/YNrBJ7HyckxP7/33npk9c8kBJ3WdLonChPieEgcJ7h+SBBE9FoQxQnDyRa245IXOViC2bbh9YaRz7XrB7Rty5dffEm2ymiqmixNOTs5Ic1W7Oxs88Hv7nH//kffyvX4fdZ3WqhCCIqiYHe2RZIM1sbtGtELE1fRPMdTKlrV0WmBbXk4jskZ6TqF5zgcHx7T64697W3qsqRtOt566x3aViHrEs81i9eDwYBr1w7Y29/l6vKczx58QlGZjRvVtXx6/wHPTk5f6uwhhKBZr0ruDGE8EFiixQzUwbFs+l4glSLNGubzOaGnuH19gqUNNFr3HbJtzbm1rZGywHUFWjWUhUGdeI5Dp0xcZdcpAs/Dcx1WqyVVUSDrmjiOCH2HLFsh64oiz9cNuZ6mlviei2MJrq6uyLIVQvRYQqDpUV1vltW7Dt3DZDZje3+PyfaMeDQiGsT0jr32GIe8//49Pv7s/r+6eN51HW3X4rsBjhsRJ1MG8ZDA96hK42V9bv6P4yFgoTvF9RsHGFieYSB3quPq7IzFYs4gSWhaAzL7zW9+wcXF6au8DF8LfaeFCv90ID/Y3zNzvyBEK4XrCtP17Tt0r82+r+MSrpcDxuMReZZzcvqM2WzGIAyRTU0ta1bLBbfeuMNPfvITjp8dI6XEtWzu3n2L27ff4OjoKacnR9juOsZPa97/3QccHn3V8FlBWirmq5xppBkOjIHccwMEjgkQkorjZ6dsTYf89N07iK7AEZpa9fz2o4c8ePQFp6fHXJyfcnlxysnJEecXZ9R1iVKKNFtSy5pG1qRZapLp1q/BiJ7ReMhsNuH09IRlOkcIQ4cX2oRMu44Z1jeNpGlqrhYXqE4RhQOEsJhOZoDFfLXCdh329vdJhkNc32cQxwjboahqtne2qYqUv/0f/51lmv6xPwmqUzSqZTLdxlr7UR3HYbFYIKXEs21kVQGC0WjE7t4eu7vbpOufO93aIhkM8F2X0WhErWrKquLy4pTf/ObnJpnv/zN954UKZgH89q0bDAYhTVMi7N6QJERPt84hdV2XIHSxLeg7Tas0RVXS0zOIAgZRSJ5lZHnGaDSikgWX8wssLLpWsbe7z9Zkgm1p+l7h+TZbWxPCIOD99z/g4RdfP8tyVWrSomE69Ah9D93bBtDdQ1WVjMcRNw52Kdajh0LZvPfhUy5XJWCeQrKRFGXJcrnk/OKco+ND6rrC8zyqqqSua3OOVCZ93fdcXMfGsSy07vEDD6UqqirHEtpAvYuCqi6pq5LV8oosW9A2LVppdrZ3uXXrDr4fslyusF2bmzdvMpuZrajVMqVrW7TuwXFwPY9HDz7hV7/59Uv5LZVqkLJkOp3huC7jrSmz2Yyr81PqIqdTrYnIdDxmsy2SOGEQDeh7ODk9pZIlb7/zNgc3rnF5eWko/meHfPrJB1/7e3qd9b0oVDDzrb7vOT454ejZM7748gmHx884Pj7h4vLixR5opxVCmIsTIYjjEN21OJ6H53iG+RP69EJTlhVoi0EUUeQZeZGjtcL3BUWR4Xo2Tw8P+eX/fu8bf/5lYTrBu7Mhvh/RdZjksiRiPBxQlDlKaSod8D/fP+R8+afHA0VZvHh6NE2N55k4xKOjIxZra9tisSBfJ1+v0iVKmU2hTmnD8y0r2qYhLzKq9VN6mIzY3t6hKHKatqEoc3Z2dxiNEvJ0RSMriiyjrArCKHpBd3jvvZ/z9OmTl6brSVmTrpbs7B6ws3vNnNmXC7I0Q2tIhiOmsxmdVkhZrg0aCZaA46MjgigkGQ7Z292jbiS/+F9/z8X5V33r+cvQdzJH/UM6Pbvk9Oxf9xbO53PKomQ222E67XHdkOFggOo6XNtGtZq6aRgkQ7w11lJWLYMwZDQccnV1xWJxRZz45GVBVRd88MFvuX//1W2VPDgqGY1yfvrWADS4jk3oO1iOxc5gj+O54me/eszZUr7Uz9Nac3F5QdNIs0mUWsTRwKBHMdjTsq5pO23M1J5DEJjfWyvTAff9AKG1gXrh0WtwA5fzy1OqsmYyHjMcDpBVwRePzskz4xrRvUZrwbs//ik3bt1E9JpnJ8cv7VZ5rrJM+ejDe+zsH4BlU7cd2nEJhgMsz0b3Db4rmF9dINCEgU3gO9y6eR3f9zk+PmY220F1HYdHj7/Gt/KXoe/NE/VlpDqzmJ2mKzqliCKD75BSrZEkE1zHo8embU1jahBHpoFiC3b3ZownEbIpefLkMR9/9I+vlL0qhODkIqfve24djJmOBziujWX5XBQu//XnDzlfvLzjA8wZvq7NGa2uK7I8M0Fd6yybpm0oyxLZNC+wMMbraqj3lhA4roPneViWWfUTAmRVolRDT0dZFGRZzipNyfKUujZ71rVsqOqKTiu+fPwFH370e6R8uZvMP5dqJc+OnxAnI27ceIO7d+8ym00YjWIsqwMU9Iq+bynzFQ/u/yPzqwvoFVWR0zQ1n3zyIe/f+znf5uL791liOBy+lr+5EILRaMobN2/jOD7jyYzAD+l1T5bmSGlM2VVdkGUrhqOY8WiAlDk98Otf3aN+Bdspf0iW6PkPP9njP/37u4Shx/ufnPG3v/yMVfFqmiD9esVNsKZyG68dnufi+z5CWAR+QBLHBuQVBCbaw3HMHq7joFWHlNLMUG0P2SjqpqXrWvMqWtfkuXn97fueqiooy/IbfW7Hcbl+/Q5//df/htEkpu8VjTTsYNlIWFNE5vM5VSVfkDB8z2e5nLNcXr2Sv9/rqNe2UJ/Lsh22ptu8/aO/oi4NmBoEWZYThh5puqCWpcko0c+7ny1V9dWebF9VriP4z//xLsNkwH/5+4/Jqz9vp/J5MbuOa4zcto3rmAUShMBCrOfQnpmZ1hIpJa1qUaqlaY1Z+1Xzf/oe4jhmb3+PwWBAVVXkRU4jJWrNBDbQsVf/f7/Oeu0LFcxFOZ5soTv9oiOpVPtikVrr7jv50oexgWwv0m/3pvBNJIRZ3vhz/32ej+U2xfhy+oso1I02+kuX9V1/gI022uhPa1OoG230GmhTqBtt9BpoU6gbbfQaaFOoG230GmhTqBtt9BpoU6gbbfQaaFOoG230GmhTqBtt9BpoU6gbbfQaaFOoG230GmhTqBtt9BpoU6gbbfQaaFOoG230Guj/ANe3pCtTglkmAAAAAElFTkSuQmCC;" vertex="1" parent="1">
          <mxGeometry x="40" y="40" width="80.29" height="70" as="geometry" />
        </mxCell>
        <mxCell id="eZ2o3girgJDlzD4JXMhm-2" value="450/min" style="text;html=1;strokeColor=none;fillColor=none;align=center;verticalAlign=middle;whiteSpace=wrap;rounded=0;" vertex="1" parent="1">
          <mxGeometry x="40" y="110" width="80" height="20" as="geometry" />
        </mxCell>
      </root>
    </mxGraphModel>
  </diagram>
</mxfile>
